SplineFontDB: 3.0
FontName: MScore
FullName: MScore
FamilyName: MScore
Weight: Regular
Copyright: 
Version: 
DefaultBaseFilename: mscore
ItalicAngle: 0
UnderlinePosition: -51
UnderlineWidth: 51
Ascent: 819
Descent: 205
LayerCount: 2
Layer: 0 1 "Back"  1
Layer: 1 1 "Fore"  0
XUID: [1021 577 2134738168 4915929]
OS2Version: 0
OS2_WeightWidthSlopeOnly: 0
OS2_UseTypoMetrics: 0
CreationTime: 1385043608
ModificationTime: 1386111701
PfmFamily: 81
TTFWeight: 400
TTFWidth: 5
LineGap: 90
VLineGap: 0
Panose: 2 0 5 3 0 0 0 0 0 0
OS2TypoAscent: 0
OS2TypoAOffset: 1
OS2TypoDescent: 0
OS2TypoDOffset: 1
OS2TypoLinegap: 0
OS2WinAscent: 1000
OS2WinAOffset: 1
OS2WinDescent: 300
OS2WinDOffset: 1
HheadAscent: 1000
HheadAOffset: 1
HheadDescent: -300
HheadDOffset: 1
OS2SubXSize: 666
OS2SubYSize: 716
OS2SubXOff: 0
OS2SubYOff: 143
OS2SupXSize: 666
OS2SupYSize: 716
OS2SupXOff: 0
OS2SupYOff: 490
OS2StrikeYSize: 50
OS2StrikeYPos: 264
OS2Vendor: 'PfEd'
Lookup: 258 0 0 "'kern' Horizontal Kerning in Latin lookup 0"  {"'kern' Horizontal Kerning in Latin lookup 0 subtable"  } ['kern' ('latn' <'dflt' > ) ]
MarkAttachClasses: 1
DEI: 91125
ShortTable: maxp 16
  1
  0
  220
  187
  5
  0
  0
  2
  1
  2
  22
  0
  256
  46
  0
  0
EndShort
LangName: 1033 
GaspTable: 2 8 2 65535 3 0
Encoding: UnicodeBmp
UnicodeInterp: none
NameList: Adobe Glyph List
DisplaySize: -72
AntiAlias: 1
FitToEm: 1
ExtremaBound: 10
WinInfo: 57384 8 10
BeginPrivate: 0
EndPrivate
Grid
0 142 m 25
 337.333 142.333 l 25
 337 -141.001 l 25
 0 -140.666 l 29
EndSplineSet
TeXData: 1 0 0 360448 180224 120149 0 1048576 120149 783286 444596 497025 792723 393216 433062 380633 303038 157286 324010 404750 52429 2506097 1059062 262144
BeginChars: 65539 263

StartChar: .notdef
Encoding: 65536 -1 0
Width: 371
Flags: W
HStem: 0 34<68 271> 648 34<68 271>
VStem: 34 34<34 648> 271 34<34 648>
LayerCount: 2
Fore
SplineSet
34 0 m 257,0,-1
 34 682 l 257,1,-1
 305 682 l 257,2,-1
 305 0 l 257,3,-1
 34 0 l 257,0,-1
68 34 m 257,4,-1
 271 34 l 257,5,-1
 271 648 l 257,6,-1
 68 648 l 257,7,-1
 68 34 l 257,4,-1
EndSplineSet
Validated: 1
EndChar

StartChar: plus
Encoding: 43 43 4
Width: 256
Flags: W
HStem: 230 52<7.21997 102 154 248.78>
VStem: 102 52<135.735 230 282 376.265>
LayerCount: 2
Fore
SplineSet
128 128 m 256,0,1
 117 128 117 128 110 136 c 256,2,3
 102 143 102 143 102 154 c 258,4,-1
 102 230 l 257,5,-1
 26 230 l 258,6,7
 15 230 15 230 8 238 c 256,8,9
 0 246 0 246 0 256 c 256,10,11
 0 266 0 266 7 274 c 256,12,13
 14 282 14 282 26 282 c 258,14,-1
 102 282 l 257,15,-1
 102 358 l 258,16,17
 102 368 102 368 110 376 c 256,18,19
 117 384 117 384 128 384 c 256,20,21
 139 384 139 384 146 376 c 256,22,23
 154 369 154 369 154 358 c 258,24,-1
 154 282 l 257,25,-1
 230 282 l 258,26,27
 241 282 241 282 248 274 c 256,28,29
 256 266 256 266 256 256 c 256,30,31
 256 246 256 246 249 238 c 256,32,33
 242 230 242 230 230 230 c 258,34,-1
 154 230 l 257,35,-1
 154 154 l 258,36,37
 154 144 154 144 146 136 c 256,38,39
 139 128 139 128 128 128 c 256,0,1
EndSplineSet
Validated: 16385
EndChar

StartChar: comma
Encoding: 44 44 5
Width: 117
Flags: MW
VStem: 68 50<-61.5204 70.5>
LayerCount: 2
Fore
SplineSet
68 -37 m 256,0,1
 68 -20 68 -20 57 -9 c 256,2,3
 46 2 46 2 34 6 c 256,4,5
 22 10 22 10 11 24 c 256,6,7
 0 37 0 37 0 58 c 256,8,9
 0 82 0 82 17 100 c 256,10,11
 34 118 34 118 58 118 c 256,12,13
 83 118 83 118 100 100 c 256,14,15
 118 83 118 83 118 58 c 256,16,17
 118 -28 118 -28 58 -153 c 256,18,19
 54 -161 54 -161 46 -161 c 256,20,21
 40 -161 40 -161 35 -157 c 256,22,23
 30 -153 30 -153 30 -146 c 256,24,25
 30 -143 30 -143 49 -102 c 256,26,27
 68 -62 68 -62 68 -37 c 256,0,1
EndSplineSet
Validated: 1
EndChar

StartChar: hyphen
Encoding: 45 45 6
Width: 169
Flags: W
HStem: 156 29<0.00366211 170.996>
VStem: 0 171<156 185>
LayerCount: 2
Fore
SplineSet
156 156 m 258,0,-1
 15 156 l 258,1,2
 0 156 0 156 0 170 c 256,3,4
 0 185 0 185 15 185 c 258,5,-1
 156 185 l 258,6,7
 171 185 171 185 171 170 c 256,8,9
 171 156 171 156 156 156 c 258,0,-1
EndSplineSet
Validated: 1
EndChar

StartChar: period
Encoding: 46 46 7
Width: 117
Flags: W
HStem: 0 118<13.3984 104.602>
VStem: 0 118<13.3984 104.602>
LayerCount: 2
Fore
SplineSet
0 59 m 256,0,1
 0 83 0 83 18 100 c 256,2,3
 35 118 35 118 59 118 c 256,4,5
 83 118 83 118 100 100 c 256,6,7
 118 83 118 83 118 59 c 256,8,9
 118 35 118 35 100 18 c 256,10,11
 83 0 83 0 59 0 c 256,12,13
 35 0 35 0 18 18 c 256,14,15
 0 35 0 35 0 59 c 256,0,1
EndSplineSet
Validated: 1
EndChar

StartChar: zero
Encoding: 48 48 8
Width: 375
VWidth: 768
Flags: W
HStem: -256 30<150.063 225.937> 226 30<150.063 225.937>
VStem: 0 119<-123.037 123.535> 257 119<-123.037 123.535>
LayerCount: 2
Fore
SplineSet
188 226 m 256,0,1
 143 226 143 226 130 170 c 256,2,3
 119 127 119 127 119 56 c 258,4,-1
 119 -56 l 258,5,6
 119 -126 119 -126 130 -170 c 256,7,8
 143 -226 143 -226 188 -226 c 256,9,10
 233 -226 233 -226 246 -170 c 256,11,12
 257 -126 257 -126 257 -56 c 258,13,-1
 257 56 l 258,14,15
 257 127 257 127 246 170 c 256,16,17
 233 226 233 226 188 226 c 256,0,1
188 256 m 256,18,19
 273 256 273 256 324 180 c 256,20,21
 376 103 376 103 376 0 c 256,22,23
 376 -103 376 -103 324 -180 c 256,24,25
 273 -256 273 -256 188 -256 c 256,26,27
 103 -256 103 -256 52 -180 c 256,28,29
 0 -103 0 -103 0 0 c 256,30,31
 0 103 0 103 52 180 c 256,32,33
 103 256 103 256 188 256 c 256,18,19
EndSplineSet
Validated: 16385
EndChar

StartChar: one
Encoding: 49 49 9
Width: 325
VWidth: 768
Flags: MW
HStem: -256 24<33.0029 81.4844 277.126 325.997> 237 20G<225.5 232>
VStem: -2 29<-17.8435 -12> 120 119<-203.122 133.999>
DStem2: 0 0 27 -12 0.424434 0.905459<-7.10177 164.53>
LayerCount: 2
Fore
SplineSet
179 243 m 256,0,1
 191 243 191 243 208 250 c 256,2,3
 225 257 225 257 226 257 c 256,4,5
 238 257 238 257 239 240 c 257,6,-1
 239 -136 l 258,7,8
 239 -176 239 -176 260 -204 c 256,9,10
 282 -232 282 -232 314 -232 c 256,11,12
 326 -232 326 -232 326 -244 c 256,13,14
 326 -256 326 -256 314 -256 c 256,15,16
 285 -256 285 -256 246 -250 c 256,17,18
 200 -243 200 -243 180 -243 c 256,19,20
 158 -243 158 -243 112 -250 c 256,21,22
 67 -256 67 -256 45 -256 c 256,23,24
 33 -256 33 -256 33 -244 c 256,25,26
 33 -232 33 -232 45 -232 c 256,27,28
 77 -232 77 -232 99 -204 c 256,29,30
 120 -176 120 -176 120 -136 c 258,31,-1
 120 115 l 258,32,33
 120 121 120 121 114 128 c 256,34,35
 109 134 109 134 102 134 c 256,36,37
 95 134 95 134 92 127 c 258,38,-1
 27 -12 l 258,39,40
 22 -22 22 -22 12 -22 c 0,41,42
 8 -22 8 -22 3 -18 c 256,43,44
 -2 -14 -2 -14 -2 -7 c 256,45,46
 -2 -4 -2 -4 0 0 c 258,47,-1
 120 256 l 258,48,49
 121 259 121 259 125 259 c 256,50,51
 129 259 129 259 147 251 c 256,52,53
 165 243 165 243 179 243 c 256,0,1
EndSplineSet
Validated: 1
EndChar

StartChar: two
Encoding: 50 50 10
Width: 375
VWidth: 768
Flags: MW
HStem: 232 24<131.35 204.225>
VStem: 12 141<75.6582 164.938> 241 119<22.919 179.777> 347 29<-169.15 -136.293>
LayerCount: 2
Fore
SplineSet
234 -256 m 256,0,1
 203 -256 203 -256 180 -245 c 256,2,3
 155 -233 155 -233 146 -222 c 256,4,5
 136 -210 136 -210 120 -199 c 256,6,7
 105 -188 105 -188 87 -188 c 256,8,9
 62 -188 62 -188 44 -204 c 256,10,11
 26 -219 26 -219 24 -245 c 256,12,13
 23 -256 23 -256 12 -256 c 256,14,15
 0 -256 0 -256 0 -245 c 256,16,17
 0 -207 0 -207 18 -175 c 256,18,19
 36 -143 36 -143 62 -122 c 256,20,21
 82 -105 82 -105 120 -76 c 256,22,23
 140 -60 140 -60 178 -28 c 256,24,25
 205 -5 205 -5 223 30 c 256,26,27
 241 66 241 66 241 108 c 256,28,29
 241 160 241 160 224 196 c 256,30,31
 206 232 206 232 169 232 c 256,32,33
 147 232 147 232 132 222 c 256,34,35
 117 212 117 212 117 195 c 256,36,37
 117 181 117 181 135 160 c 256,38,39
 153 139 153 139 153 125 c 256,40,41
 153 95 153 95 132 74 c 256,42,43
 112 54 112 54 83 54 c 256,44,45
 53 54 53 54 32 75 c 256,46,47
 12 96 12 96 12 125 c 256,48,49
 12 182 12 182 58 219 c 256,50,51
 104 256 104 256 169 256 c 256,52,53
 246 256 246 256 303 214 c 256,54,55
 360 173 360 173 360 108 c 256,56,57
 360 64 360 64 344 31 c 256,58,59
 329 -2 329 -2 299 -22 c 256,60,61
 269 -42 269 -42 240 -56 c 256,62,63
 210 -70 210 -70 170 -86 c 256,64,65
 130 -102 130 -102 105 -118 c 257,66,67
 118 -115 118 -115 132 -115 c 256,68,69
 178 -115 178 -115 228 -145 c 256,70,71
 279 -175 279 -175 307 -175 c 256,72,73
 324 -175 324 -175 334 -169 c 256,74,75
 344 -163 344 -163 347 -156 c 256,76,77
 350 -148 350 -148 354 -142 c 256,78,79
 358 -136 358 -136 364 -136 c 256,80,81
 376 -136 376 -136 376 -148 c 256,82,83
 376 -175 376 -175 336 -216 c 256,84,85
 297 -256 297 -256 234 -256 c 256,0,1
EndSplineSet
Validated: 16385
EndChar

StartChar: three
Encoding: 51 51 11
Width: 340
VWidth: 768
Flags: W
HStem: -256 24<107.317 191.627> 0 30<75.0034 206.138> 232 24<103.345 192.575>
VStem: 0 93<-202.509 -126> 12 81<138.5 210.071> 222 119<-189.768 -35.283> 222 105<50.883 204.186>
LayerCount: 2
Fore
SplineSet
269 15 m 256,0,1
 269 5 269 5 280.5 -4 c 256,2,3
 292 -13 292 -13 305 -21.5 c 256,4,5
 318 -30 318 -30 329.5 -53.5 c 256,6,7
 341 -77 341 -77 341 -113 c 256,8,9
 341 -182 341 -182 289.5 -219 c 256,10,11
 238 -256 238 -256 158 -256 c 256,12,13
 95 -256 95 -256 47.5 -224.5 c 256,14,15
 0 -193 0 -193 0 -140 c 256,16,17
 0 -112 0 -112 20 -92.5 c 256,18,19
 40 -73 40 -73 67.5 -73 c 256,20,21
 95 -73 95 -73 114.5 -93 c 256,22,23
 134 -113 134 -113 134 -140 c 256,24,25
 134 -153 134 -153 113.5 -167.5 c 256,26,27
 93 -182 93 -182 93 -195 c 256,28,29
 93 -214 93 -214 112 -223 c 256,30,31
 131 -232 131 -232 158 -232 c 256,32,33
 193 -232 193 -232 207.5 -197.5 c 256,34,35
 222 -163 222 -163 222 -113 c 258,36,-1
 222 -96 l 258,37,38
 222 -62 222 -62 220 -45 c 256,39,40
 218 -28 218 -28 206.5 -14 c 256,41,42
 195 0 195 0 171 0 c 258,43,-1
 89 0 l 258,44,45
 75 0 75 0 75 15 c 256,46,47
 75 29 75 29 89 30 c 258,48,-1
 171 30 l 258,49,50
 199 30 199 30 211 48 c 256,51,52
 220 62 220 62 222 98 c 256,53,54
 222 110 222 110 222 131 c 258,55,-1
 222 139 l 258,56,57
 222 232 222 232 154 232 c 256,58,59
 94 232 94 232 93 199 c 256,60,61
 93 188 93 188 111.5 175 c 256,62,63
 130 162 130 162 130 151 c 256,64,65
 130 126 130 126 112.5 108.5 c 256,66,67
 95 91 95 91 70.5 91 c 256,68,69
 46 91 46 91 29 108.5 c 256,70,71
 12 126 12 126 12 151 c 256,72,73
 12 199 12 199 54 227.5 c 256,74,75
 96 256 96 256 154 256 c 256,76,77
 230 256 230 256 278.5 227 c 256,78,79
 327 198 327 198 327 139 c 256,80,81
 327 97 327 97 318 74 c 256,82,83
 309 51 309 51 298 46 c 256,84,85
 287 41 287 41 278 34 c 256,86,87
 269 27 269 27 269 15 c 256,0,1
EndSplineSet
Validated: 16385
EndChar

StartChar: four
Encoding: 52 52 12
Width: 409
VWidth: 768
Flags: W
HStem: -256 24<114.003 162.484 358.125 406.997> -128 30<30 201 321 409.965> 237 19G<148 156 305.5 311.5>
VStem: 201 120<-202.638 -128 -98 68.364>
LayerCount: 2
Fore
SplineSet
230 243 m 256,0,1
 259 243 259 243 281 250 c 256,2,3
 303 257 303 257 308 257 c 256,4,5
 315 257 315 257 319 253 c 256,6,7
 322 250 322 250 323 246 c 256,8,9
 323 242.323 323 242.323 321 240 c 258,10,-1
 30 -98 l 257,11,-1
 201 -98 l 257,12,-1
 201 36 l 258,13,14
 201 50 201 50 208.5 58 c 256,15,16
 216 66 216 66 228.5 70.5 c 256,17,18
 241 75 241 75 260 98 c 256,19,20
 275 115 275 115 298 161 c 256,21,22
 301 167 301 167 307 167 c 256,23,24
 320 167 320 167 321 153 c 257,25,-1
 321 -98 l 257,26,-1
 394 -98 l 258,27,28
 409 -98 409 -98 410 -113 c 256,29,30
 410 -128 410 -128 394 -128 c 258,31,-1
 321 -128 l 257,32,-1
 321 -136 l 258,33,34
 321 -178 321 -178 341 -203.5 c 256,35,36
 363 -232 363 -232 395 -232 c 256,37,38
 407 -232 407 -232 407 -244 c 256,39,40
 407 -256 407 -256 395 -256 c 256,41,42
 373 -256 373 -256 327 -249.5 c 256,43,44
 281 -243 281 -243 260.5 -243 c 256,45,46
 238 -243 238 -243 193 -249.5 c 256,47,48
 148 -256 148 -256 126 -256 c 256,49,50
 114 -256 114 -256 114 -244 c 256,51,52
 114 -232 114 -232 126 -232 c 256,53,54
 158 -232 158 -232 180 -203.5 c 256,55,56
 201 -176 201 -176 201 -136 c 258,57,-1
 201 -128 l 257,58,-1
 30 -128 l 258,59,60
 14 -128 14 -128 6 -120.5 c 256,61,62
 -2 -113 -2 -113 -2 -104 c 256,63,64
 -2 -101 -2 -101 13 -83 c 256,65,66
 28 -65 28 -65 49 -34 c 256,67,68
 70 -3 70 -3 91 36 c 256,69,70
 112 75 112 75 126.5 129.5 c 256,71,72
 141 184 141 184 141 240 c 256,73,74
 141 256 141 256 155 256 c 256,75,76
 157 256 157 256 168 253 c 256,77,78
 179 250 179 250 196.5 246.5 c 256,79,80
 214 243 214 243 230 243 c 256,0,1
EndSplineSet
Validated: 16385
EndChar

StartChar: five
Encoding: 53 53 13
Width: 345
VWidth: 768
Flags: W
HStem: -256 24<107.24 202.079> 43 30<99.6155 205.662> 144 112<59 186.874>
VStem: 0 93<-202.749 -126> 30 29<29 143.647> 239 118<-171.443 0.428009>
LayerCount: 2
Fore
SplineSet
46 256 m 256,0,1
 54 256 54 256 63 253 c 256,2,3
 66 252 66 252 110 248 c 256,4,5
 152 243 152 243 188 243 c 256,6,7
 233 243 233 243 272 248 c 256,8,9
 319 254 319 254 321 254 c 256,10,11
 332 256 332 256 336 256 c 256,12,13
 349 256 349 256 349 247 c 256,14,15
 349 243 349 243 346 240 c 256,16,17
 251 145 251 145 77 144 c 256,18,19
 70 144 70 144 64.5 139 c 256,20,21
 59 134 59 134 59 127 c 258,22,-1
 59 29 l 257,23,24
 103 73 103 73 167 73 c 256,25,26
 258 73 258 73 307.5 32 c 256,27,28
 357 -9 357 -9 357 -92 c 256,29,30
 357 -163 357 -163 301 -209.5 c 256,31,32
 245 -256 245 -256 167 -256 c 256,33,34
 99 -256 99 -256 49.5 -225.5 c 256,35,36
 0 -195 0 -195 0 -140 c 256,37,38
 0 -112 0 -112 20 -92.5 c 256,39,40
 40 -73 40 -73 67.5 -73 c 256,41,42
 95 -73 95 -73 114.5 -93 c 256,43,44
 134 -113 134 -113 134 -140 c 256,45,46
 134 -153 134 -153 113.5 -167.5 c 256,47,48
 93 -182 93 -182 93 -195 c 256,49,50
 93 -232 93 -232 167 -232 c 256,51,52
 239 -232 239 -232 239 -92 c 256,53,54
 239 43 239 43 167 43 c 256,55,56
 134 43 134 43 110 35 c 256,57,58
 86 27 86 27 76.5 17 c 256,59,60
 67 7 67 7 58.5 -1 c 256,61,62
 50 -9 50 -9 45 -9 c 256,63,64
 30 -9 30 -9 30 6 c 258,65,-1
 30 240 l 258,66,67
 30 256 30 256 46 256 c 256,0,1
EndSplineSet
Validated: 16385
EndChar

StartChar: six
Encoding: 54 54 14
Width: 348
VWidth: 768
Flags: W
HStem: -256 24<137.684 212.313> 6 24<137.721 212.605> 232 24<153.231 232.421>
VStem: 0 120<-129.766 -1.976 16 120.172> 237 111<-193.528 -31.61> 242 94<137 209.619>
LayerCount: 2
Fore
SplineSet
174 6 m 256,0,1
 136 6 136 6 127 -24 c 256,2,3
 120 -48 120 -48 120 -98 c 258,4,-1
 120 -128 l 258,5,6
 120 -178 120 -178 127 -202 c 256,7,8
 136 -232 136 -232 174 -232 c 256,9,10
 217 -232 217 -232 227 -197 c 256,11,12
 237 -162 237 -162 237 -113 c 256,13,14
 237 -53 237 -53 225.5 -23.5 c 256,15,16
 214 6 214 6 174 6 c 256,0,1
120 16 m 257,17,18
 153 29 153 29 174 30 c 257,19,20
 255 30 255 30 301.5 -6 c 256,21,22
 348 -42 348 -42 348 -112.5 c 256,23,24
 348 -183 348 -183 301 -219.5 c 256,25,26
 254 -256 254 -256 174 -256 c 256,27,28
 92 -256 92 -256 46 -180 c 256,29,30
 0 -104 0 -104 0 0 c 256,31,32
 0 103 0 103 54 179.5 c 256,33,34
 108 256 108 256 195 256 c 256,35,36
 252 256 252 256 294 227 c 256,37,38
 336 198 336 198 336 151 c 256,39,40
 336 123 336 123 316.5 103 c 256,41,42
 297 83 297 83 269.5 83 c 256,43,44
 242 83 242 83 222 103 c 256,45,46
 202 123 202 123 202 151 c 256,47,48
 202 163 202 163 222 175.5 c 256,49,50
 242 188 242 188 242 201 c 256,51,52
 242 215 242 215 227.5 223.5 c 256,53,54
 213 232 213 232 195 232 c 256,55,56
 149 232 149 232 133.5 195 c 256,57,58
 118 158 118 158 118 90 c 256,59,60
 118 78 118 78 119 53 c 256,61,62
 120 28 120 28 120 16 c 257,17,18
EndSplineSet
Validated: 16385
EndChar

StartChar: seven
Encoding: 55 55 15
Width: 345
VWidth: 768
Flags: W
HStem: 105 94<171.5 275.878> 164 92<65.7911 139.099>
VStem: 0 30<0.0039978 145.433 210.938 255.996>
LayerCount: 2
Fore
SplineSet
69 164 m 256,0,1
 54 164 54 164 42 146 c 256,2,3
 30 128 30 128 30 92 c 258,4,-1
 30 15 l 258,5,6
 30 0 30 0 15 0 c 256,7,8
 0 0 0 0 0 15 c 258,9,-1
 0 241 l 258,10,11
 0 256 0 256 15 256 c 256,12,13
 29 256 29 256 30 241 c 258,14,-1
 30 226 l 258,15,16
 30 222 30 222 33 217.5 c 256,17,18
 36 213 36 213 40 211 c 256,19,20
 44 209 44 209 45 211 c 256,21,22
 78 256 78 256 125 256 c 256,23,24
 164 256 164 256 198 227.5 c 256,25,26
 232 199 232 199 255 199 c 256,27,28
 280 199 280 199 301.5 213 c 256,29,30
 323 227 323 227 335.5 241.5 c 256,31,32
 348 256 348 256 352 256 c 256,33,34
 358 256 358 256 363.5 252 c 256,35,36
 369 248 369 248 369 242 c 256,37,38
 369 238 369 238 343 199 c 256,39,40
 317 160 317 160 286 109 c 256,41,42
 255 58 255 58 229.5 -18 c 256,43,44
 204 -94 204 -94 204 -164 c 256,45,46
 204 -181 204 -181 206 -198.5 c 256,47,48
 208 -216 208 -216 209.5 -226 c 256,49,50
 211 -236 211 -236 211.5 -244.5 c 256,51,52
 211.571 -245.714 211.571 -245.714 211.571 -246.816 c 0,53,54
 211.571 -253.429 211.571 -253.429 209 -256 c 256,55,56
 206 -259 206 -259 199 -259 c 256,57,-1
 170 -251 l 256,58,59
 140 -243 140 -243 120 -243 c 256,60,61
 98 -243 98 -243 70.5 -251 c 256,62,63
 43 -259 43 -259 40 -259 c 256,64,65
 33 -259 33 -259 29 -253.5 c 256,66,67
 26.7143 -250.357 26.7143 -250.357 26.7143 -247.051 c 0,68,69
 26.7143 -244.571 26.7143 -244.571 28 -242 c 256,70,71
 65 -154 65 -154 117.5 -70.5 c 256,72,73
 170 13 170 13 249 122 c 257,74,75
 219 106 219 106 188 105 c 256,76,77
 155 105 155 105 123 134.5 c 256,78,79
 91 164 91 164 69 164 c 256,0,1
EndSplineSet
Validated: 1
EndChar

StartChar: eight
Encoding: 56 56 16
Width: 375
VWidth: 768
Flags: W
HStem: -256 24<124.424 233.042> 232 24<153.012 257.275>
VStem: 0 45<-177.843 -53.258> 15 104<112.596 187.655> 275 106<-180.685 -93.495> 315 45<75.935 197.071>
DStem2: 150 106 109 -8 0.866778 -0.498694<14.6826 137.211 168.44 221.651>
LayerCount: 2
Fore
SplineSet
265 39 m 257,0,1
 315 93 315 93 315 143 c 256,2,3
 315 184 315 184 280 208 c 256,4,5
 245 232 245 232 196 232 c 256,6,7
 161 232 161 232 140 210 c 256,8,9
 119 188 119 188 119 160 c 256,10,11
 119 125 119 125 150 106 c 258,12,-1
 265 39 l 257,0,1
296 22 m 257,13,14
 381 -27 381 -27 381 -109 c 256,15,16
 381 -169 381 -169 329.5 -212.5 c 256,17,18
 278 -256 278 -256 187 -256 c 256,19,20
 111 -256 111 -256 55.5 -216 c 256,21,22
 0 -176 0 -176 0 -113 c 256,23,24
 0 -89 0 -89 14 -64.5 c 256,25,26
 28 -40 28 -40 39.5 -27.5 c 256,27,28
 51 -15 51 -15 78 10 c 257,29,30
 16 53 16 53 15 119 c 256,31,32
 15 175 15 175 63.5 215.5 c 256,33,34
 112 256 112 256 196 256 c 256,35,36
 263 256 263 256 311.5 226 c 256,37,38
 360 196 360 196 360 143 c 256,39,40
 359 89 359 89 296 22 c 257,13,14
109 -8 m 257,41,42
 46 -63 46 -63 45 -113 c 257,43,44
 45 -164 45 -164 87.5 -198 c 256,45,46
 130 -232 130 -232 187 -232 c 256,47,48
 227 -232 227 -232 251 -206.5 c 256,49,50
 275 -181 275 -181 275 -147 c 256,51,52
 275 -104 275 -104 240 -84 c 258,53,-1
 109 -8 l 257,41,42
EndSplineSet
Validated: 16385
EndChar

StartChar: nine
Encoding: 57 57 17
Width: 348
VWidth: 768
Flags: W
HStem: -256 24<116.049 195.674> -30 24<137.096 210.279> 232 24<133.915 210.316>
VStem: 0 112<31.474 193.262> 12 94<-209.43 -137> 228 120<-121.093 -16 1.97601 129.766>
LayerCount: 2
Fore
SplineSet
174 -6 m 256,0,1
 212 -6 212 -6 221 24 c 256,2,3
 228 48 228 48 228 98 c 258,4,-1
 228 128 l 258,5,6
 228 178 228 178 221 202 c 256,7,8
 212 232 212 232 174 232 c 256,9,10
 129 232 129 232 120 197 c 256,11,12
 112 167 112 167 112 113 c 256,13,14
 112 50 112 50 123 24 c 256,15,16
 136 -6 136 -6 174 -6 c 256,0,1
228 -16 m 257,17,18
 195 -30 195 -30 174 -30 c 257,19,20
 93 -30 93 -30 46.5 6 c 256,21,22
 0 42 0 42 0 112.5 c 256,23,24
 0 183 0 183 47 219.5 c 256,25,26
 94 256 94 256 174 256 c 256,27,28
 256 256 256 256 302 180 c 256,29,30
 348 104 348 104 348 0 c 256,31,32
 348 -103 348 -103 294.5 -179.5 c 256,33,34
 241 -256 241 -256 154 -256 c 256,35,36
 97 -256 97 -256 54.5 -227 c 256,37,38
 12 -198 12 -198 12 -151 c 256,39,40
 12 -123 12 -123 31.5 -103 c 256,41,42
 51 -83 51 -83 78.5 -83 c 256,43,44
 106 -83 106 -83 126 -103 c 256,45,46
 146 -123 146 -123 146 -151 c 256,47,48
 146 -163 146 -163 126 -175.5 c 256,49,50
 106 -188 106 -188 106 -201 c 256,51,52
 106 -215 106 -215 120.5 -223.5 c 256,53,54
 135 -232 135 -232 154 -232 c 256,55,56
 200 -232 200 -232 215 -195 c 256,57,58
 230 -158 230 -158 230 -90 c 256,59,60
 230 -78 230 -78 229 -53 c 256,61,62
 228 -28 228 -28 228 -16 c 257,17,18
EndSplineSet
Validated: 16385
EndChar

StartChar: f
Encoding: 102 102 18
Width: 587
Flags: W
HStem: -295 39<-79.2169 28.6035> 485 40<105.005 234 478 617.995> 851 38<580.851 692.306>
VStem: -186 106<-253.9 -195.038> 693 107<788.663 847.802>
LayerCount: 2
Fore
SplineSet
467 485 m 257,0,-1
 371 172 l 258,1,2
 349 100 349 100 309.5 22 c 256,3,4
 270 -56 270 -56 218.5 -129 c 256,5,6
 167 -202 167 -202 101.5 -248.5 c 256,7,8
 36 -295 36 -295 -27 -295 c 256,9,10
 -93 -295 -93 -295 -139.5 -271 c 256,11,12
 -186 -247 -186 -247 -186 -199 c 256,13,14
 -186 -142 -186 -142 -161 -99.5 c 256,15,16
 -136 -57 -136 -57 -91 -57 c 256,17,18
 -58 -57 -58 -57 -34 -80.5 c 256,19,20
 -10 -104 -10 -104 -10 -137 c 256,21,22
 -10 -155 -10 -155 -21 -168 c 256,23,24
 -32 -181 -32 -181 -45 -187 c 256,25,26
 -58 -193 -58 -193 -69 -205.5 c 256,27,28
 -80 -218 -80 -218 -80 -237 c 256,29,30
 -80 -256 -80 -256 -39 -256 c 258,31,-1
 -27 -256 l 258,32,33
 -3 -256 -3 -256 16 -245 c 256,34,35
 35 -234 35 -234 46 -220.5 c 256,36,37
 57 -207 57 -207 67.5 -180 c 256,38,39
 78 -153 78 -153 82.5 -134 c 256,40,41
 87 -115 87 -115 94.5 -79.5 c 256,42,43
 102 -44 102 -44 106 -29 c 258,44,-1
 234 485 l 257,45,-1
 125 485 l 258,46,47
 105 485 105 485 105 505 c 256,48,49
 105 525 105 525 125 525 c 258,50,-1
 245 525 l 257,51,52
 287 668 287 668 399.5 778.5 c 256,53,54
 512 889 512 889 640 889 c 256,55,56
 706 889 706 889 753 865 c 256,57,58
 800 841 800 841 800 793 c 256,59,60
 800 736 800 736 774.5 693.5 c 256,61,62
 749 651 749 651 703 651 c 256,63,64
 670 651 670 651 647 674.5 c 256,65,66
 624 698 624 698 624 731 c 256,67,68
 624 749 624 749 634.5 762 c 256,69,70
 645 775 645 775 658.5 781 c 256,71,72
 673 787 673 787 682.5 800 c 256,73,74
 693 814 693 814 693 831 c 256,75,76
 693 851 693 851 652 851 c 258,77,-1
 640 851 l 258,78,79
 603 851 603 851 577 831 c 256,80,81
 551 811 551 811 536 772 c 256,82,83
 521 733 521 733 513 697.5 c 256,84,85
 505 662 505 662 495 608 c 256,86,87
 485 554 485 554 478 525 c 257,88,-1
 598 525 l 258,89,90
 618 525 618 525 618 505 c 256,91,92
 618 485 618 485 598 485 c 258,93,-1
 467 485 l 257,0,-1
EndSplineSet
Validated: 16385
EndChar

StartChar: m
Encoding: 109 109 19
Width: 801
Flags: W
HStem: 0 21G<9.5 131.5 263 385> 426 115<89 179.683 328.5 409.273 559 642.113>
VStem: 519 167<33.8164 131.375>
DStem2: 6 18 146 18 0.322729 0.946491<18.8264 396.929> 259 18 399 18 0.275449 0.961316<13.581 391.929> 521 67 687 121 0.230305 0.973119<81.9724 334.264>
LayerCount: 2
Fore
SplineSet
-50 260 m 256,0,1
 -50 262 -50 262 -40 292 c 256,2,3
 -15 366 -15 366 40 444 c 256,4,5
 109 541 109 541 196 541 c 256,6,7
 229 541 229 541 250 512 c 256,8,9
 270 483 270 483 274 441 c 257,10,11
 339 540 339 540 420 541 c 256,12,13
 455 541 455 541 477 511 c 256,14,15
 499 481 499 481 504 438 c 257,16,17
 567 541 567 541 645 541 c 256,18,19
 689 541 689 541 722 504 c 256,20,21
 755 466 755 466 755 419 c 256,22,23
 755 406 755 406 752 393 c 258,24,-1
 687 121 l 258,25,26
 686 118 686 118 686 112 c 256,27,28
 686 97 686 97 698 97 c 256,29,30
 718 97 718 97 758 128 c 256,31,32
 797 160 797 160 800 160 c 256,33,34
 811 160 811 160 811 150 c 256,35,36
 811 144 811 144 805 137 c 256,37,38
 720 55 720 55 685 32 c 256,39,40
 629 -7 629 -7 580 -7 c 256,41,42
 552 -7 552 -7 536 9 c 256,43,44
 519 25 519 25 519 49 c 256,45,46
 519 54 519 54 521 67 c 258,47,-1
 592 367 l 258,48,49
 596 385 596 385 596 393 c 256,50,51
 596 426 596 426 574 426 c 256,52,53
 552 426 552 426 529 408 c 256,54,55
 506 391 506 391 499 367 c 258,56,-1
 399 18 l 258,57,58
 394 0 394 0 376 0 c 258,59,-1
 272 0 l 258,60,61
 254 0 254 0 259 18 c 258,62,-1
 358 367 l 258,63,64
 363 384 363 384 364 396 c 256,65,66
 364 426 364 426 341 426 c 256,67,68
 318 426 318 426 296 408 c 256,69,70
 273 390 273 390 265 367 c 258,71,-1
 146 18 l 258,72,73
 141 0 141 0 122 0 c 258,74,-1
 18 0 l 258,75,76
 1 0 1 0 6 18 c 258,77,-1
 125 367 l 258,78,79
 131 387 131 387 131 395 c 256,80,81
 131 426 131 426 105 426 c 256,82,83
 69 426 69 426 37 376 c 256,84,85
 5 327 5 327 -15 266 c 256,86,87
 -20 250 -20 250 -38 250 c 256,88,89
 -50 250 -50 250 -50 260 c 256,0,1
EndSplineSet
Validated: 16417
EndChar

StartChar: p
Encoding: 112 112 20
Width: 667
Flags: MW
HStem: -266 30<-246.754 -81.2432 114.836 223.745> -257 23<-204.399 -80.125> 444 90<67.3439 162 367.528 464.142>
VStem: 472 180<264.791 431.823>
DStem2: -72 -210 109 -202 0.324365 0.945932<57.6165 317.941>
LayerCount: 2
Fore
SplineSet
427 444 m 256,0,1
 377 444 377 444 332.5 386 c 256,2,3
 288 328 288 328 265 257 c 256,4,5
 242 186 242 186 242 136 c 256,6,7
 242 65 242 65 297 65 c 256,8,9
 346 65 346 65 379 100 c 257,10,11
 415 140 415 140 443.5 240.5 c 256,12,13
 472 341 472 341 472 383 c 256,14,15
 472 444 472 444 427 444 c 256,0,1
137 534 m 256,16,17
 187 534 187 534 222.5 508 c 256,18,19
 258 482 258 482 268 438 c 257,20,21
 308 482 308 482 359 508 c 256,22,23
 410 534 410 534 458 534 c 256,24,25
 550 534 550 534 601 475.5 c 256,26,27
 652 417 652 417 652 325 c 256,28,29
 652 171 652 171 544 76 c 256,30,31
 449 -8 449 -8 366 -8 c 256,32,33
 323 -8 323 -8 290 1 c 256,34,35
 257 10 257 10 238.5 19.5 c 256,36,37
 220 29 220 29 212 29 c 256,38,39
 187 29 187 29 181 10 c 258,40,-1
 109 -202 l 258,41,42
 108 -205 108 -205 108 -211 c 256,43,44
 108 -228 108 -228 137 -232 c 256,45,46
 166 -236 166 -236 195 -238 c 256,47,48
 224 -240 224 -240 224 -253 c 256,49,50
 224 -266 224 -266 211 -266 c 256,51,52
 56 -257 56 -257 -11 -257 c 256,53,54
 -81 -257 -81 -257 -232 -266 c 256,55,56
 -247 -266 -247 -266 -247 -253 c 256,57,58
 -247 -241 -247 -241 -219 -236 c 256,59,60
 -203 -234 -203 -234 -120 -234 c 256,61,62
 -80 -234 -80 -234 -72 -210 c 258,63,-1
 131 382 l 274,64,65
 136 397 136 397 136 410 c 256,66,67
 136 444 136 444 106 444 c 256,68,69
 63 444 63 444 15 387 c 256,70,71
 -34 329 -34 329 -60 266 c 256,72,73
 -67 249 -67 249 -86 249 c 256,74,75
 -100 249 -100 249 -100 261 c 272,76,77
 -100 273 -100 273 -90 290 c 256,78,79
 -46 387 -46 387 -10 438 c 256,80,81
 16 475 16 475 56 504.5 c 256,82,83
 96 534 96 534 137 534 c 256,16,17
EndSplineSet
Validated: 16385
EndChar

StartChar: r
Encoding: 114 114 21
Width: 400
Flags: MW
HStem: 470 79<311.087 436.5> 487 61<53.3594 155.5>
VStem: -31 29<395.067 434.919>
DStem2: 5 18 143 18 0.25088 0.968018<10.4665 446.135>
LayerCount: 2
Fore
SplineSet
443 387 m 256,0,1
 416 387 416 387 402 400 c 256,2,3
 388 413 388 413 385.5 428.5 c 256,4,5
 383 444 383 444 374 457 c 256,6,7
 365 470 365 470 346 470 c 256,8,9
 315 470 315 470 280.5 443.5 c 256,10,11
 246 417 246 417 239 386 c 257,12,-1
 143 18 l 258,13,14
 138 0 138 0 121 0 c 258,15,-1
 18 0 l 258,16,17
 0 0 0 0 5 18 c 258,18,-1
 111 427 l 258,19,20
 114 439 114 439 114 451 c 256,21,22
 114 487 114 487 86 487 c 256,23,24
 62 487 62 487 34 460 c 256,25,26
 9 437 9 437 -2 406 c 280,27,28
 -6 395 -6 395 -18 395 c 257,29,30
 -30 395 -30 395 -31 407 c 257,31,32
 -31 444 -31 444 24 502 c 256,33,34
 68 548 68 548 137 548 c 256,35,36
 174 548 174 548 201.5 530.5 c 256,37,38
 229 513 229 513 243 483 c 257,39,40
 321 549 321 549 412 549 c 256,41,42
 461 549 461 549 491 528.5 c 256,43,44
 521 508 521 508 521 474 c 256,45,46
 521 442 521 442 497 414.5 c 256,47,48
 473 387 473 387 443 387 c 256,0,1
EndSplineSet
Validated: 16417
EndChar

StartChar: s
Encoding: 115 115 22
Width: 377
Flags: W
HStem: 0 28<129.978 241.621> 510 24<275.077 342.491>
VStem: 35 76<47.2784 121.5> 115 109<334 437.599> 295 111<94.7729 183.927> 353 92<396.794 487.696>
LayerCount: 2
Fore
SplineSet
224 403 m 256,0,1
 224 377 224 377 252.5 352 c 256,2,3
 281 327 281 327 315 307 c 256,4,5
 349 287 349 287 377.5 252 c 256,6,7
 406 217 406 217 406 175 c 256,8,9
 406 98 406 98 341 49 c 256,10,11
 276 0 276 0 188 0 c 256,12,13
 126 0 126 0 80.5 28.5 c 256,14,15
 35 57 35 57 35 106 c 256,16,17
 35 137 35 137 50.5 159.5 c 256,18,19
 66 182 66 182 91 182 c 256,20,21
 116 182 116 182 133 164.5 c 256,22,23
 150 147 150 147 150 123 c 256,24,25
 150 111 150 111 130.5 97 c 256,26,27
 111 83 111 83 111 71 c 256,28,29
 111 48 111 48 132.5 38 c 256,30,31
 154 28 154 28 184 28 c 256,32,33
 229 28 229 28 262 55 c 256,34,35
 295 82 295 82 295 123 c 256,36,37
 295 160 295 160 267 190.5 c 256,38,39
 239 221 239 221 205 240 c 256,40,41
 171 259 171 259 143 288 c 256,42,43
 115 317 115 317 115 351 c 256,44,45
 115 428 115 428 172.5 481 c 256,46,47
 230 534 230 534 310 534 c 256,48,49
 378 534 378 534 411.5 500.5 c 256,50,51
 445 467 445 467 445 423 c 256,52,53
 445 392 445 392 429.5 371 c 256,54,55
 414 350 414 350 386 350 c 256,56,57
 362 350 362 350 345 362 c 256,58,59
 328 374 328 374 328 389 c 256,60,61
 328 393 328 393 340.5 416.5 c 256,62,63
 353 440 353 440 353 465 c 256,64,65
 353 484 353 484 344 497 c 256,66,67
 335 510 335 510 318 510 c 256,68,69
 278 510 278 510 251 478 c 256,70,71
 224 446 224 446 224 403 c 256,0,1
EndSplineSet
Validated: 16385
EndChar

StartChar: z
Encoding: 122 122 23
Width: 523
Flags: W
HStem: -29 137<258.661 471.715> 18 110<55.5 245.575> 329 158<106.363 198.211>
VStem: 495 27<125.986 216.425>
DStem2: 5 26 134 108 0.731118 0.682251<150.259 532.062>
LayerCount: 2
Fore
SplineSet
65 18 m 256,0,1
 46 18 46 18 31 9 c 256,2,3
 16 0 16 0 14 0 c 256,4,5
 0 -1 0 -1 0 13 c 256,6,7
 0 21 0 21 5 26 c 258,8,-1
 394 389 l 257,9,10
 360 378 360 378 321.5 371 c 256,11,12
 283 364 283 364 232.5 356.5 c 256,13,14
 182 349 182 349 157 345 c 256,15,16
 72 329 72 329 63 329 c 256,17,18
 29 329 29 329 29 359 c 257,19,20
 29 405 29 405 79.5 446 c 256,21,22
 130 487 130 487 181 487 c 256,23,24
 251 487 251 487 324 471 c 256,25,26
 397 455 397 455 436 455 c 256,27,28
 459 455 459 455 474 465 c 256,29,30
 489 475 489 475 492 475 c 256,31,32
 506 475 506 475 506 460 c 256,33,34
 506 454 506 454 502 450 c 258,35,-1
 134 108 l 257,36,37
 177 128 177 128 195 128 c 256,38,39
 244 128 244 128 310 118 c 256,40,41
 376 108 376 108 425 108 c 256,42,43
 495 108 495 108 495 163 c 256,44,45
 495 177 495 177 490 194 c 256,46,47
 485 211 485 211 485 212 c 256,48,49
 485 225 485 225 500 225 c 256,50,51
 522 225 522 225 522 139 c 256,52,53
 522 72 522 72 493 20 c 256,54,55
 465 -29 465 -29 411 -29 c 256,56,57
 383 -29 383 -29 272 -9 c 256,58,59
 122 18 122 18 65 18 c 256,0,1
EndSplineSet
Validated: 16417
EndChar

StartChar: rests.0
Encoding: 57600 57600 24
Width: 384
Flags: W
HStem: -160 160<0 384>
LayerCount: 2
Fore
SplineSet
374 -160 m 258,0,-1
 10 -160 l 258,1,2
 0 -160 0 -160 0 -150 c 258,3,-1
 0 -10 l 258,4,5
 0 0 0 0 10 0 c 258,6,-1
 374 0 l 258,7,8
 384 0 384 0 384 -10 c 258,9,-1
 384 -150 l 258,10,11
 384 -160 384 -160 374 -160 c 258,0,-1
EndSplineSet
Validated: 1
EndChar

StartChar: rests.1
Encoding: 57601 57601 25
Width: 384
Flags: W
HStem: 0 160<0 384>
LayerCount: 2
Fore
SplineSet
374 0 m 258,0,-1
 10 0 l 258,1,2
 0 0 0 0 0 10 c 258,3,-1
 0 150 l 258,4,5
 0 160 0 160 10 160 c 258,6,-1
 374 160 l 258,7,8
 384 160 384 160 384 150 c 258,9,-1
 384 10 l 258,10,11
 384 0 384 0 374 0 c 258,0,-1
EndSplineSet
Validated: 1
EndChar

StartChar: rests.0o
Encoding: 57602 57602 26
Width: 384
Flags: W
HStem: -160 186<1e-07 383.998> -26 52<-159.736 0 384 543.719>
LayerCount: 2
Fore
SplineSet
374 -160 m 258,0,-1
 10 -160 l 258,1,2
 0 -160 0 -160 0 -150 c 258,3,-1
 0 -26 l 257,4,-1
 -134 -26 l 258,5,6
 -145 -26 -145 -26 -152.5 -18 c 256,7,8
 -160 -10 -160 -10 -160 0 c 256,9,10
 -160 10 -160 10 -152.5 18 c 256,11,12
 -145 26 -145 26 -134 26 c 258,13,-1
 518 26 l 258,14,15
 528 26 528 26 536 18 c 256,16,17
 544 10 544 10 544 0 c 256,18,19
 544 -10 544 -10 536 -18 c 256,20,21
 528 -26 528 -26 518 -26 c 258,22,-1
 384 -26 l 257,23,-1
 384 -150 l 258,24,25
 384 -160 384 -160 374 -160 c 258,0,-1
EndSplineSet
Validated: 1
EndChar

StartChar: rests.1o
Encoding: 57603 57603 27
Width: 384
Flags: W
HStem: -26 186<1e-07 383.998> -26 52<-159.736 0 384 543.719>
LayerCount: 2
Fore
SplineSet
518 -26 m 258,0,-1
 -134 -26 l 258,1,2
 -145 -26 -145 -26 -152.5 -18 c 256,3,4
 -160 -10 -160 -10 -160 0 c 256,5,6
 -160 10 -160 10 -152.5 18 c 256,7,8
 -145 26 -145 26 -134 26 c 258,9,-1
 0 26 l 257,10,-1
 0 150 l 258,11,12
 0 160 0 160 10 160 c 258,13,-1
 374 160 l 258,14,15
 384 160 384 160 384 150 c 258,16,-1
 384 26 l 257,17,-1
 518 26 l 258,18,19
 528 26 528 26 536 18 c 256,20,21
 544 10 544 10 544 0 c 256,22,23
 544 -10 544 -10 536 -18 c 256,24,25
 528 -26 528 -26 518 -26 c 258,0,-1
EndSplineSet
Validated: 1
EndChar

StartChar: rests.M3
Encoding: 57604 57604 28
Width: 460
Flags: W
VStem: 0 154<-256 256> 307 154<-256 256>
LayerCount: 2
Fore
SplineSet
451 -256 m 258,0,-1
 317 -256 l 258,1,2
 307 -256 307 -256 307 -246 c 258,3,-1
 307 246 l 258,4,5
 307 256 307 256 317 256 c 258,6,-1
 451 256 l 258,7,8
 461 256 461 256 461 246 c 258,9,-1
 461 -246 l 258,10,11
 461 -256 461 -256 451 -256 c 258,0,-1
143 -256 m 258,12,-1
 10 -256 l 258,13,14
 0 -256 0 -256 0 -246 c 258,15,-1
 0 246 l 258,16,17
 0 256 0 256 10 256 c 258,18,-1
 143 256 l 258,19,20
 154 256 154 256 154 246 c 258,21,-1
 154 -246 l 258,22,23
 154 -256 154 -256 143 -256 c 258,12,-1
EndSplineSet
Validated: 1
EndChar

StartChar: rests.M2
Encoding: 57605 57605 29
Width: 152
Flags: W
VStem: 0 154<-256 256>
LayerCount: 2
Fore
SplineSet
143 -256 m 258,0,-1
 10 -256 l 258,1,2
 0 -256 0 -256 0 -246 c 258,3,-1
 0 246 l 258,4,5
 0 256 0 256 10 256 c 258,6,-1
 143 256 l 258,7,8
 154 256 154 256 154 246 c 258,9,-1
 154 -246 l 258,10,11
 154 -256 154 -256 143 -256 c 258,0,-1
EndSplineSet
Validated: 1
EndChar

StartChar: rests.M1
Encoding: 57606 57606 30
Width: 152
Flags: W
HStem: 0 256<0 154>
VStem: 0 154<0 256>
LayerCount: 2
Fore
SplineSet
143 0 m 258,0,-1
 10 0 l 258,1,2
 0 0 0 0 0 10 c 258,3,-1
 0 246 l 258,4,5
 0 256 0 256 10 256 c 258,6,-1
 143 256 l 258,7,8
 154 256 154 256 154 246 c 258,9,-1
 154 10 l 258,10,11
 154 0 154 0 143 0 c 258,0,-1
EndSplineSet
Validated: 1
EndChar

StartChar: rests.2
Encoding: 57607 57607 31
Width: 242
Flags: W
HStem: -150 74<-3.5 143.646>
VStem: -24 78<-249 -97.5> -6 128<-17 89.5> 121 128<180.5 286.5>
DStem2: 84 400 59 380 0.644264 -0.764803<-10.892 112.204> 146 -67 139 -108 0.640184 -0.768221<-53.4394 27.0158>
LayerCount: 2
Fore
SplineSet
-6 80 m 256,0,1
 -6 99 -6 99 14 120 c 256,2,3
 34 141 34 141 57.5 157.5 c 256,4,5
 81 174 81 174 101 203 c 256,6,7
 121 232 121 232 121 266 c 256,8,9
 121 307 121 307 95 337 c 258,10,-1
 59 380 l 258,11,12
 55 384 55 384 55 390 c 256,13,14
 55 396 55 396 61 401 c 256,15,16
 67 406 67 406 73 406 c 256,17,18
 80 406 80 406 84 400 c 258,19,-1
 239 216 l 258,20,21
 249 203 249 203 249 190 c 256,22,23
 249 171 249 171 229 150 c 256,24,25
 209 129 209 129 185.5 112.5 c 256,26,27
 162 96 162 96 142 67 c 256,28,29
 122 38 122 38 122 4 c 256,30,31
 122 -38 122 -38 146 -67 c 258,32,-1
 232 -168 l 258,33,34
 236 -172 236 -172 237 -178 c 257,35,36
 237 -185 237 -185 231.5 -190 c 256,37,38
 226 -195 226 -195 220 -195 c 256,39,40
 218 -195 218 -195 203.5 -183.5 c 256,41,42
 189 -172 189 -172 163.5 -161 c 256,43,44
 138 -150 138 -150 109 -150 c 256,45,46
 83 -150 83 -150 68.5 -164 c 256,47,48
 54 -178 54 -178 54 -218 c 256,49,50
 54 -280 54 -280 83 -314 c 256,51,52
 86 -319 86 -319 84 -323.5 c 256,53,54
 82 -328 82 -328 77 -328 c 256,55,56
 70 -328 70 -328 46 -292 c 256,57,58
 22 -256 22 -256 -1 -205 c 256,59,60
 -24 -154 -24 -154 -24 -119 c 256,61,62
 -24 -76 -24 -76 17 -76 c 256,63,64
 66 -76 66 -76 139 -108 c 257,65,-1
 4 54 l 257,66,67
 -6 68 -6 68 -6 80 c 256,0,1
EndSplineSet
Validated: 16385
EndChar

StartChar: rests.2classical
Encoding: 57608 57608 32
Width: 256
Flags: W
HStem: -266 21G<146 162.5> 55 55<77.1641 188>
VStem: 0 29<152.853 181.521> 123.5 135.5<112.394 187.826> 126 56<-265.648 -236.049>
LayerCount: 2
Fore
SplineSet
184 210 m 256,0,1
 215 210 215 210 237 188.5 c 256,2,3
 259 167 259 167 259 136 c 256,4,5
 259 101 259 101 232.5 78 c 256,6,7
 206 55 206 55 170 55 c 256,8,9
 126 55 126 55 62 78 c 257,10,-1
 182 -256 l 257,11,12
 171 -266 171 -266 154 -266 c 256,13,14
 138 -266 138 -266 126 -256 c 261,15,-1
 0 174 l 257,16,17
 4 183.5 4 183.5 14 183.5 c 256,18,19
 24.01 183.5 24.01 183.5 29 174 c 256,20,21
 37 159 37 159 58 135 c 256,22,23
 80 110 80 110 91 110 c 256,24,25
 106 110 106 110 113.5 125.5 c 256,26,27
 121 141 121 141 123.5 159.5 c 256,28,29
 126 178 126 178 140.5 194 c 256,30,31
 155 210 155 210 184 210 c 256,0,1
EndSplineSet
Validated: 16385
EndChar

StartChar: rests.3
Encoding: 57609 57609 33
Width: 256
Flags: W
HStem: -266 21G<93.5 110.5> 55 55<68 178.836>
VStem: -3 135.5<112.394 187.826> 74 56<-265.705 -236.049> 227 29<152.853 181.521>
LayerCount: 2
Fore
SplineSet
72 210 m 256,0,1
 101 210 101 210 115.5 194 c 256,2,3
 130 178 130 178 132.5 159.5 c 256,4,5
 135 141 135 141 142.5 125.5 c 256,6,7
 150 110 150 110 165 110 c 256,8,9
 176 110 176 110 198 135 c 256,10,11
 220 160 220 160 227 174 c 256,12,13
 231.762 183.524 231.762 183.524 241.059 183.524 c 0,14,15
 241.524 183.524 241.524 183.524 242 183.5 c 256,16,17
 252 183 252 183 256 174 c 257,18,-1
 130 -256 l 257,19,20
 119 -266 119 -266 102 -266 c 256,21,22
 85 -266 85 -266 74 -256 c 257,23,-1
 194 78 l 257,24,25
 131 55 131 55 86 55 c 256,26,27
 50 55 50 55 23.5 78 c 256,28,29
 -3 101 -3 101 -3 136 c 256,30,31
 -3 167 -3 167 19 188.5 c 256,32,33
 41 210 41 210 72 210 c 256,0,1
EndSplineSet
Validated: 1
EndChar

StartChar: rests.4
Encoding: 57610 57610 34
Width: 307
Flags: W
HStem: -201 55<44 153.396> 55 55<124 233.68>
VStem: -27 135<-143.606 -68.1742> 53 134.5<112.394 187.826> 68 56<-512 -456>
DStem2: 68 -512 124 -512 0.25775 0.966212<-1.85975 350.229> 249 78 307 174 0.25775 0.966212<-191.283 0 54.9834 112.675>
LayerCount: 2
Fore
SplineSet
128 210 m 256,0,1
 157 210 157 210 171 194 c 256,2,3
 185 178 185 178 187.5 159.5 c 256,4,5
 190 141 190 141 197.5 125.5 c 256,6,7
 205 110 205 110 220 110 c 256,8,9
 230 110 230 110 250.5 134.5 c 256,10,11
 271 159 271 159 279 174 c 256,12,13
 283.762 183.524 283.762 183.524 292.605 183.524 c 0,14,15
 293.048 183.524 293.048 183.524 293.5 183.5 c 256,16,17
 303 183 303 183 307 174 c 257,18,-1
 124 -512 l 257,19,20
 113 -522 113 -522 96 -522 c 256,21,22
 79 -522 79 -522 68 -512 c 257,23,-1
 171 -177 l 257,24,25
 104 -201 104 -201 62 -201 c 256,26,27
 26 -201 26 -201 -0.5 -178 c 256,28,29
 -27 -155 -27 -155 -27 -120 c 256,30,31
 -27 -89 -27 -89 -5.5 -67.5 c 256,32,33
 16 -46 16 -46 47 -46 c 256,34,35
 76 -46 76 -46 90.5 -62 c 256,36,37
 105 -78 105 -78 108 -96.5 c 256,38,39
 111 -115 111 -115 118 -130.5 c 256,40,41
 125 -146 125 -146 140 -146 c 256,42,43
 151 -146 151 -146 174.5 -118.5 c 256,44,45
 198 -91 198 -91 202 -77 c 258,46,-1
 249 78 l 257,47,48
 186 55 186 55 142 55 c 256,49,50
 106 55 106 55 79.5 78 c 256,51,52
 53 101 53 101 53 136 c 256,53,54
 53 167 53 167 75 188.5 c 256,55,56
 97 210 97 210 128 210 c 256,0,1
EndSplineSet
Validated: 1
EndChar

StartChar: rests.5
Encoding: 57611 57611 35
Width: 332
Flags: W
HStem: -201 55<15 125.005> 55 55<84 193.33> 311 55<155 264.11>
VStem: -56 134.5<-143.606 -68.1742> 13 135<112.394 187.826> 55 57<-512 -455> 84 134.5<368.394 443.826>
DStem2: 55 -512 112 -512 0.228406 0.973566<-2.34362 346.244 373.033 577.529> 211 79 333 430 0.228406 0.973566<-116.326 0 53.4497 263.791 300.355 370.743>
CounterMasks: 1 e0
LayerCount: 2
Fore
SplineSet
158 466 m 256,0,1
 187 466 187 466 201.5 450 c 256,2,3
 216 434 216 434 218.5 415.5 c 256,4,5
 221 397 221 397 228.5 381.5 c 256,6,7
 236 366 236 366 251 366 c 256,8,9
 261 366 261 366 279.5 390.5 c 256,10,11
 298 415 298 415 304 430 c 256,12,13
 308.762 439.524 308.762 439.524 318.059 439.524 c 0,14,15
 318.524 439.524 318.524 439.524 319 439.5 c 256,16,17
 329 439 329 439 333 430 c 257,18,-1
 112 -512 l 257,19,20
 101 -522 101 -522 83 -522 c 256,21,22
 67 -522 67 -522 55 -512 c 257,23,-1
 143 -177 l 257,24,25
 80 -201 80 -201 33 -201 c 256,26,27
 -3 -201 -3 -201 -29.5 -178 c 256,28,29
 -56 -155 -56 -155 -56 -120 c 256,30,31
 -56 -89 -56 -89 -34.5 -67.5 c 256,32,33
 -13 -46 -13 -46 17 -46 c 256,34,35
 46 -46 46 -46 61 -62 c 256,36,37
 76 -78 76 -78 78.5 -96.5 c 256,38,39
 81 -115 81 -115 88 -130.5 c 256,40,41
 95 -146 95 -146 111 -146 c 256,42,43
 123 -146 123 -146 145 -117.5 c 256,44,45
 167 -89 167 -89 171 -74 c 258,46,-1
 211 79 l 257,47,48
 144 55 144 55 102 55 c 256,49,50
 66 55 66 55 39.5 78 c 256,51,52
 13 101 13 101 13 136 c 256,53,54
 13 167 13 167 35 188.5 c 256,55,56
 57 210 57 210 88 210 c 256,57,58
 117 210 117 210 131 194 c 256,59,60
 145 178 145 178 148 159.5 c 256,61,62
 151 141 151 141 158 125.5 c 256,63,64
 165 110 165 110 180 110 c 256,65,66
 191 110 191 110 212.5 137.5 c 256,67,68
 234 165 234 165 238 179 c 258,69,-1
 279 334 l 257,70,71
 218 311 218 311 173 311 c 256,72,73
 137 311 137 311 110.5 334 c 256,74,75
 84 357 84 357 84 392 c 256,76,77
 84 423 84 423 105.5 444.5 c 256,78,79
 127 466 127 466 158 466 c 256,0,1
EndSplineSet
Validated: 1
EndChar

StartChar: rests.6
Encoding: 57612 57612 36
Width: 358
Flags: W
HStem: -457 55<2 112.559> -201 55<64 186.543> 55 55<124 232.674> 311 55<186 294.003>
VStem: -69 135<-399.606 -324.174> -7 134.5<-143.606 -68.1742> 53 134.5<112.394 187.826> 61 57<-768 -711> 115 134.5<368.394 443.826>
DStem2: 61 -768 118 -768 0.196431 0.980518<-3.28945 344.186 376.291 594.737> 194 -177 358 430 0.196431 0.980518<-446.733 -261.425 -202.532 0 44.5582 262.209>
LayerCount: 2
Fore
SplineSet
188 466 m 256,0,1
 217 466 217 466 232 450 c 256,2,3
 247 434 247 434 249.5 415.5 c 256,4,5
 252 397 252 397 259 381.5 c 256,6,7
 266 366 266 366 282 366 c 256,8,9
 291 366 291 366 307 390 c 256,10,11
 323 414 323 414 330 430 c 256,12,13
 334.762 439.524 334.762 439.524 343.605 439.524 c 0,14,15
 344.048 439.524 344.048 439.524 344.5 439.5 c 256,16,17
 354 439 354 439 358 430 c 257,18,-1
 118 -768 l 257,19,20
 107 -778 107 -778 89 -778 c 256,21,22
 73 -778 73 -778 61 -768 c 257,23,-1
 136 -432 l 257,24,25
 68 -457 68 -457 20 -457 c 256,26,27
 -16 -457 -16 -457 -42.5 -434 c 256,28,29
 -69 -411 -69 -411 -69 -376 c 256,30,31
 -69 -345 -69 -345 -47 -323.5 c 256,32,33
 -25 -302 -25 -302 6 -302 c 256,34,35
 35 -302 35 -302 49 -318 c 256,36,37
 63 -334 63 -334 66 -352.5 c 256,38,39
 69 -371 69 -371 76 -386.5 c 256,40,41
 83 -402 83 -402 98 -402 c 256,42,43
 110 -402 110 -402 133.5 -372.5 c 256,44,45
 157 -343 157 -343 160 -328 c 258,46,-1
 194 -177 l 257,47,48
 131 -201 131 -201 82 -201 c 256,49,50
 46 -201 46 -201 19.5 -178 c 256,51,52
 -7 -155 -7 -155 -7 -120 c 256,53,54
 -7 -89 -7 -89 14.5 -67.5 c 256,55,56
 36 -46 36 -46 67 -46 c 256,57,58
 96 -46 96 -46 110.5 -62 c 256,59,60
 125 -78 125 -78 127.5 -96.5 c 256,61,62
 130 -115 130 -115 137 -130.5 c 256,63,64
 144 -146 144 -146 160 -146 c 256,65,66
 171 -146 171 -146 192 -117.5 c 256,67,68
 213 -89 213 -89 216 -74 c 258,69,-1
 251 79 l 257,70,71
 184 55 184 55 142 55 c 256,72,73
 106 55 106 55 79.5 78 c 256,74,75
 53 101 53 101 53 136 c 256,76,77
 53 167 53 167 75 188.5 c 256,78,79
 97 210 97 210 128 210 c 256,80,81
 157 210 157 210 171 194 c 256,82,83
 185 178 185 178 187.5 159.5 c 256,84,85
 190 141 190 141 197.5 125.5 c 256,86,87
 205 110 205 110 220 110 c 256,88,89
 230 110 230 110 249.5 137.5 c 256,90,91
 269 165 269 165 273 179 c 258,92,-1
 308 334 l 257,93,94
 246 311 246 311 204 311 c 256,95,96
 168 311 168 311 141.5 334 c 256,97,98
 115 357 115 357 115 392 c 256,99,100
 115 423 115 423 136 444.5 c 256,101,102
 157 466 157 466 188 466 c 256,0,1
EndSplineSet
Validated: 1
EndChar

StartChar: rests.7
Encoding: 57613 57613 37
Width: 384
Flags: W
HStem: -457 55<10 134.579> -201 55<61 170.636> 55 55<113 221.688> 311 55<164 271.881> 567 55<216 322.357>
VStem: -61 134.5<-399.606 -324.174> -10 134.5<-143.606 -68.1742> 42 134.5<112.394 187.826> 85 56<-768 -712> 93 134.5<368.394 443.826> 145 135.5<624.394 699.826>
DStem2: 85 -768 141 -768 0.164839 0.98632<-4.52856 342.61 379.396 602.034 630.731 841.923> 242 79 384 686 0.164839 0.98632<-202.407 0 44.4098 259.424 293.818 519.669>
LayerCount: 2
Fore
SplineSet
219 722 m 256,0,1
 248 722 248 722 263 706 c 256,2,3
 278 690 278 690 280.5 671.5 c 256,4,5
 283 653 283 653 290 637.5 c 256,6,7
 297 622 297 622 312 622 c 256,8,9
 325 622 325 622 355 686 c 256,10,11
 359.762 695.524 359.762 695.524 369.059 695.524 c 0,12,13
 369.524 695.524 369.524 695.524 370 695.5 c 256,14,15
 380 695 380 695 384 686 c 257,16,-1
 141 -768 l 257,17,18
 130 -778 130 -778 113 -778 c 256,19,20
 97 -778 97 -778 85 -768 c 257,21,-1
 147 -431 l 257,22,23
 77 -457 77 -457 28 -457 c 256,24,25
 -8 -457 -8 -457 -34.5 -434 c 256,26,27
 -61 -411 -61 -411 -61 -376 c 256,28,29
 -61 -345 -61 -345 -39.5 -323.5 c 256,30,31
 -18 -302 -18 -302 12 -302 c 256,32,33
 41 -302 41 -302 56 -318 c 256,34,35
 71 -334 71 -334 73.5 -352.5 c 256,36,37
 76 -371 76 -371 83 -386.5 c 256,38,39
 90 -402 90 -402 105 -402 c 256,40,41
 118 -402 118 -402 141.5 -371.5 c 256,42,43
 165 -341 165 -341 167 -325 c 258,44,-1
 195 -176 l 257,45,46
 125 -201 125 -201 79 -201 c 256,47,48
 43 -201 43 -201 16.5 -178 c 256,49,50
 -10 -155 -10 -155 -10 -120 c 256,51,52
 -10 -89 -10 -89 11.5 -67.5 c 256,53,54
 33 -46 33 -46 63 -46 c 256,55,56
 92 -46 92 -46 107 -62 c 256,57,58
 122 -78 122 -78 124.5 -96.5 c 256,59,60
 127 -115 127 -115 134 -130.5 c 256,61,62
 141 -146 141 -146 157 -146 c 256,63,64
 169 -146 169 -146 190 -116.5 c 256,65,66
 211 -87 211 -87 214 -72 c 258,67,-1
 242 79 l 257,68,69
 179 55 179 55 131 55 c 256,70,71
 95 55 95 55 68.5 78 c 256,72,73
 42 101 42 101 42 136 c 256,74,75
 42 167 42 167 63.5 188.5 c 256,76,77
 85 210 85 210 116 210 c 256,78,79
 145 210 145 210 159.5 194 c 256,80,81
 174 178 174 178 176.5 159.5 c 256,82,83
 179 141 179 141 186.5 125.5 c 256,84,85
 194 110 194 110 209 110 c 256,86,87
 220 110 220 110 239 138.5 c 256,88,89
 258 167 258 167 261 182 c 258,90,-1
 290 334 l 257,91,92
 227 311 227 311 182 311 c 256,93,94
 146 311 146 311 119.5 334 c 256,95,96
 93 357 93 357 93 392 c 256,97,98
 93 423 93 423 114.5 444.5 c 256,99,100
 136 466 136 466 167 466 c 256,101,102
 196 466 196 466 210.5 450 c 256,103,104
 225 434 225 434 227.5 415.5 c 256,105,106
 230 397 230 397 237.5 381.5 c 256,107,108
 245 366 245 366 260 366 c 256,109,110
 270 366 270 366 287.5 393.5 c 256,111,112
 305 421 305 421 308 435 c 258,113,-1
 337 590 l 257,114,115
 277 567 277 567 234 567 c 256,116,117
 198 567 198 567 171.5 590 c 256,118,119
 145 613 145 613 145 648 c 256,120,121
 145 679 145 679 166.5 700.5 c 256,122,123
 188 722 188 722 219 722 c 256,0,1
EndSplineSet
Validated: 1
EndChar

StartChar: accidentals.sharp
Encoding: 57614 57614 38
Width: 281
Flags: W
VStem: 0 98<-215.839 -203 52.0645 67> 60 38<-383.995 -216 -97 52 171 337.995> 183 38<-337.995 -171 -52 97 216 383.995>
LayerCount: 2
Fore
SplineSet
221 -319 m 258,0,1
 221 -338 221 -338 202 -338 c 256,2,3
 183 -338 183 -338 183 -319 c 258,4,-1
 183 -171 l 257,5,-1
 98 -203 l 257,6,-1
 98 -365 l 258,7,8
 98 -384 98 -384 79 -384 c 256,9,10
 60 -384 60 -384 60 -365 c 258,11,-1
 60 -216 l 257,12,-1
 28 -228 l 258,13,14
 26 -229 26 -229 20 -229 c 256,15,16
 12 -229 12 -229 6 -223 c 256,17,18
 0 -217 0 -217 0 -209 c 258,19,-1
 0 -147 l 258,20,21
 0 -133 0 -133 13 -128 c 258,22,-1
 60 -112 l 257,23,-1
 60 52 l 257,24,-1
 28 41 l 258,25,26
 26 40 26 40 20 40 c 256,27,28
 12 40 12 40 6 46 c 256,29,30
 0 52 0 52 0 60 c 258,31,-1
 0 122 l 258,32,33
 0 135 0 135 13 140 c 258,34,-1
 60 158 l 257,35,-1
 60 319 l 258,36,37
 60 338 60 338 79 338 c 256,38,39
 98 338 98 338 98 319 c 258,40,-1
 98 171 l 257,41,-1
 183 203 l 257,42,-1
 183 365 l 257,43,44
 183 384 183 384 202 384 c 256,45,46
 221 384 221 384 221 365 c 258,47,-1
 221 216 l 257,48,-1
 254 228 l 258,49,50
 256 229 256 229 261 229 c 256,51,52
 269 229 269 229 275.5 223 c 256,53,54
 282 217 282 217 282 209 c 258,55,-1
 282 147 l 258,56,57
 282 133 282 133 268 128 c 258,58,-1
 221 112 l 257,59,-1
 221 -52 l 257,60,-1
 254 -41 l 258,61,62
 256 -40 256 -40 261 -40 c 256,63,64
 269 -40 269 -40 275.5 -46 c 256,65,66
 282 -52 282 -52 282 -60 c 258,67,-1
 282 -122 l 258,68,69
 282 -135 282 -135 268 -140 c 258,70,-1
 221 -158 l 257,71,-1
 221 -319 l 258,0,1
183 97 m 257,72,-1
 98 67 l 257,73,-1
 98 -97 l 257,74,-1
 183 -67 l 257,75,-1
 183 97 l 257,72,-1
EndSplineSet
Validated: 16385
EndChar

StartChar: accidentals.sharp.slashslash.stem
Encoding: 57615 57615 39
Width: 178
Flags: W
VStem: 71 38<-344.995 -200 -69 69 200 344.995>
LayerCount: 2
Fore
SplineSet
109 -326 m 258,0,1
 109 -345 109 -345 90 -345 c 256,2,3
 71 -345 71 -345 71 -326 c 258,4,-1
 71 -200 l 257,5,-1
 31 -222 l 258,6,7
 27 -225 27 -225 20 -225 c 256,8,9
 12 -225 12 -225 6 -219.5 c 256,10,11
 0 -214 0 -214 0 -205 c 258,12,-1
 0 -143 l 258,13,14
 0 -132 0 -132 10 -125 c 257,15,-1
 71 -91 l 257,16,-1
 71 69 l 257,17,-1
 31 46 l 258,18,19
 28 44 28 44 20 44 c 256,20,21
 12 44 12 44 6 49.5 c 256,22,23
 0 55 0 55 0 65 c 258,24,-1
 0 126 l 258,25,26
 0 136 0 136 10 143 c 257,27,-1
 71 178 l 257,28,-1
 71 326 l 258,29,30
 71 345 71 345 90 345 c 256,31,32
 109 345 109 345 109 326 c 258,33,-1
 109 200 l 257,34,-1
 148 222 l 258,35,36
 153 225 153 225 159 225 c 256,37,38
 167 225 167 225 173 219.5 c 256,39,40
 179 214 179 214 179 205 c 258,41,-1
 179 143 l 258,42,43
 179 132 179 132 169 125 c 257,44,-1
 109 91 l 257,45,-1
 109 -69 l 257,46,-1
 148 -46 l 258,47,48
 151 -44 151 -44 159 -44 c 256,49,50
 167 -44 167 -44 173 -49.5 c 256,51,52
 179 -55 179 -55 179 -65 c 258,53,-1
 179 -126 l 258,54,55
 179 -136 179 -136 169 -143 c 257,56,-1
 109 -178 l 257,57,-1
 109 -326 l 258,0,1
EndSplineSet
Validated: 16897
EndChar

StartChar: accidentals.sharp.slashslashslash.stemstem
Encoding: 57616 57616 40
Width: 281
Flags: W
VStem: 60 38<-383.995 -222 -126 -75 34 85 181 342.995> 183 38<-342.995 -181 -85 -34 75 126 222 383.995>
DStem2: 14 6 27 -85 0.950249 0.311492<-22.0593 18.4806 88.5427 148.132 218.194 259.512> 31 160 60 85 0.951405 0.307943<-19.0869 4.49504 70.2109 134.143 199.859 224.393> 31 -147 60 -222 0.951405 0.307943<-19.0869 4.49504 70.2109 134.143 199.859 224.393>
LayerCount: 2
Fore
SplineSet
221 -324 m 258,0,1
 221 -343 221 -343 202 -343 c 256,2,3
 183 -343 183 -343 183 -324 c 258,4,-1
 183 -181 l 257,5,-1
 98 -210 l 257,6,-1
 98 -365 l 258,7,8
 98 -384 98 -384 79 -384 c 256,9,10
 60 -384 60 -384 60 -365 c 258,11,-1
 60 -222 l 257,12,-1
 44 -227 l 258,13,14
 42 -228 42 -228 37 -228 c 256,15,16
 29 -228 29 -228 22.5 -222 c 256,17,18
 16 -216 16 -216 16 -208 c 258,19,-1
 16 -167 l 258,20,21
 16 -153 16 -153 31 -147 c 257,22,-1
 60 -138 l 257,23,-1
 60 -75 l 257,24,-1
 27 -85 l 258,25,26
 25 -86 25 -86 20 -86 c 256,27,28
 12 -86 12 -86 6 -80 c 256,29,30
 0 -74 0 -74 0 -66 c 258,31,-1
 0 -13 l 258,32,33
 0 1 0 1 14 6 c 258,34,-1
 60 20 l 257,35,-1
 60 85 l 257,36,-1
 44 80 l 258,37,38
 42 79 42 79 37 79 c 256,39,40
 29 79 29 79 22.5 85 c 256,41,42
 16 91 16 91 16 99 c 258,43,-1
 16 140 l 258,44,45
 16 154 16 154 31 160 c 257,46,-1
 60 169 l 257,47,-1
 60 324 l 258,48,49
 60 343 60 343 79 343 c 256,50,51
 98 343 98 343 98 324 c 258,52,-1
 98 181 l 257,53,-1
 183 210 l 257,54,-1
 183 365 l 258,55,56
 183 384 183 384 202 384 c 256,57,58
 221 384 221 384 221 365 c 258,59,-1
 221 222 l 257,60,-1
 238 227 l 258,61,62
 240 228 240 228 245 228 c 256,63,64
 253 228 253 228 259 222 c 256,65,66
 265 216 265 216 265 208 c 258,67,-1
 265 167 l 258,68,69
 265 153 265 153 251 147 c 257,70,-1
 221 138 l 257,71,-1
 221 75 l 257,72,-1
 255 85 l 258,73,74
 257 86 257 86 261 86 c 256,75,76
 269 86 269 86 275.5 80 c 256,77,78
 282 74 282 74 282 66 c 258,79,-1
 282 13 l 258,80,81
 282 -1 282 -1 267 -6 c 258,82,-1
 221 -20 l 257,83,-1
 221 -85 l 257,84,-1
 238 -80 l 258,85,86
 240 -79 240 -79 245 -79 c 256,87,88
 253 -79 253 -79 259 -85 c 256,89,90
 265 -91 265 -91 265 -99 c 258,91,-1
 265 -140 l 258,92,93
 265 -154 265 -154 251 -160 c 257,94,-1
 221 -169 l 257,95,-1
 221 -324 l 258,0,1
183 -34 m 257,96,-1
 98 -61 l 257,97,-1
 98 -126 l 257,98,-1
 183 -97 l 257,99,-1
 183 -34 l 257,96,-1
183 61 m 257,100,-1
 183 126 l 257,101,-1
 98 97 l 257,102,-1
 98 34 l 257,103,-1
 183 61 l 257,100,-1
EndSplineSet
Validated: 16897
EndChar

StartChar: accidentals.sharp.slashslashslash.stem
Encoding: 57617 57617 41
Width: 242
Flags: W
VStem: 102 39<-330.995 -205 -102 -61 61 102 205 330.995>
DStem2: 37 161 53 82 0.923431 0.383764<-22.1983 37.381 112.922 173.425> 37 -146 53 -225 0.923431 0.383764<-22.1983 37.381 112.922 173.425> 102 45 102 -61 0.922403 0.386228<-119.842 -40.9402 42.1534 122.351>
LayerCount: 2
Fore
SplineSet
141 -311 m 258,0,1
 140 -331 140 -331 121 -331 c 256,2,3
 102 -331 102 -331 102 -311 c 258,4,-1
 102 -205 l 257,5,-1
 53 -225 l 258,6,7
 47 -227 47 -227 45 -227 c 256,8,9
 37 -227 37 -227 31 -221.5 c 256,10,11
 25 -216 25 -216 25 -207 c 258,12,-1
 25 -166 l 258,13,14
 25 -152 25 -152 37 -146 c 258,15,-1
 102 -119 l 257,16,-1
 102 -61 l 257,17,-1
 29 -92 l 258,18,19
 23 -94 23 -94 20 -94 c 256,20,21
 12 -94 12 -94 6 -88.5 c 256,22,23
 0 -83 0 -83 0 -74 c 258,24,-1
 0 -12 l 258,25,26
 0 2 0 2 12 7 c 258,27,-1
 102 45 l 257,28,-1
 102 102 l 257,29,-1
 53 82 l 258,30,31
 47 80 47 80 45 80 c 256,32,33
 37 80 37 80 31 85.5 c 256,34,35
 25 91 25 91 25 100 c 258,36,-1
 25 141 l 258,37,38
 25 155 25 155 37 161 c 258,39,-1
 102 188 l 257,40,-1
 102 311 l 258,41,42
 102 331 102 331 121.5 331 c 256,43,44
 141 331 141 331 141 311 c 258,45,-1
 141 205 l 257,46,-1
 190 225 l 258,47,48
 196 227 196 227 199 227 c 256,49,50
 207 227 207 227 213 221.5 c 256,51,52
 219 216 219 216 219 207 c 258,53,-1
 219 166 l 258,54,55
 219 152 219 152 207 146 c 257,56,-1
 141 119 l 257,57,-1
 141 61 l 257,58,-1
 215 92 l 258,59,60
 221 94 221 94 223 94 c 256,61,62
 231 94 231 94 237.5 88.5 c 256,63,64
 244 83 244 83 244 74 c 258,65,-1
 244 12 l 258,66,67
 244 -1 244 -1 230 -7 c 258,68,-1
 141 -45 l 257,69,-1
 141 -102 l 257,70,-1
 190 -82 l 258,71,72
 196 -80 196 -80 199 -80 c 256,73,74
 207 -80 207 -80 213 -85.5 c 256,75,76
 219 -91 219 -91 219 -100 c 258,77,-1
 219 -141 l 258,78,79
 219 -155 219 -155 207 -161 c 257,80,-1
 141 -188 l 257,81,-1
 141 -311 l 258,0,1
EndSplineSet
Validated: 16897
EndChar

StartChar: accidentals.sharp.slashslash.stemstemstem
Encoding: 57618 57618 42
Width: 409
Flags: W
VStem: 71 38<-383.995 -220 -106 49 162 326.995> 186 38<-354.995 -191 -78 78 191 354.995> 301 38<-325.995 -162 -49 106 220 383.995>
DStem2: 15 139 26 38 0.97045 0.241301<-19.7605 32.6281 96.7723 151.228 215.372 269.586 333.971 386.119> 15 -130 26 -231 0.970598 0.240708<-19.4585 32.6897 97.0132 151.289 215.372 269.888 333.971 388.404>
CounterMasks: 1 e0
LayerCount: 2
Fore
SplineSet
339 -307 m 257,0,1
 339 -326 339 -326 320 -326 c 256,2,3
 301 -326 301 -326 301 -307 c 258,4,-1
 301 -162 l 257,5,-1
 224 -181 l 257,6,-1
 224 -336 l 258,7,8
 224 -355 224 -355 205 -355 c 256,9,10
 186 -355 186 -355 186 -336 c 258,11,-1
 186 -191 l 257,12,-1
 109 -210 l 257,13,-1
 109 -365 l 258,14,15
 109 -384 109 -384 90 -384 c 256,16,17
 71 -384 71 -384 71 -365 c 258,18,-1
 71 -220 l 257,19,-1
 26 -231 l 257,20,-1
 20 -231 l 258,21,22
 12 -231 12 -231 6 -225 c 256,23,24
 0 -219 0 -219 0 -211 c 258,25,-1
 0 -150 l 258,26,27
 0 -134 0 -134 15 -130 c 258,28,-1
 71 -116 l 257,29,-1
 71 49 l 257,30,-1
 26 38 l 257,31,-1
 20 37 l 257,32,33
 12 37 12 37 6 43 c 256,34,35
 0 49 0 49 0 57 c 258,36,-1
 0 119 l 258,37,38
 0 135 0 135 15 139 c 258,39,-1
 71 153 l 257,40,-1
 71 307 l 258,41,42
 71 327 71 327 90 327 c 256,43,44
 109 327 109 327 109 307 c 258,45,-1
 109 162 l 257,46,-1
 186 181 l 257,47,-1
 186 336 l 258,48,49
 186 355 186 355 205 355 c 256,50,51
 224 355 224 355 224 336 c 258,52,-1
 224 191 l 257,53,-1
 301 210 l 257,54,-1
 301 365 l 258,55,56
 301 384 301 384 320 384 c 256,57,58
 339 384 339 384 339 365 c 258,59,-1
 339 220 l 257,60,-1
 385 231 l 257,61,-1
 390 231 l 258,62,63
 398 231 398 231 404.5 225 c 256,64,65
 411 219 411 219 411 211 c 258,66,-1
 411 150 l 258,67,68
 411 134 411 134 395 130 c 258,69,-1
 339 116 l 257,70,-1
 339 -49 l 257,71,-1
 385 -38 l 257,72,-1
 390 -37 l 257,73,74
 398 -37 398 -37 404.5 -43 c 256,75,76
 411 -49 411 -49 411 -57 c 258,77,-1
 411 -119 l 258,78,79
 411 -136 411 -136 395 -139 c 258,80,-1
 339 -153 l 257,81,-1
 339 -307 l 257,0,1
301 106 m 257,82,-1
 224 87 l 257,83,-1
 224 -78 l 257,84,-1
 301 -58 l 257,85,-1
 301 106 l 257,82,-1
186 78 m 257,86,-1
 109 58 l 257,87,-1
 109 -106 l 257,88,-1
 186 -87 l 257,89,-1
 186 78 l 257,86,-1
EndSplineSet
Validated: 16897
EndChar

StartChar: accidentals.natural
Encoding: 57619 57619 43
Width: 171
Flags: W
VStem: -8 49<-115 97 197 390.829> 0 37<-115 97 197 323.264> 127 52<-390.829 -197 -97 115>
LayerCount: 2
Fore
SplineSet
-8 384 m 257,0,1
 6 391 6 391 18 391 c 256,2,3
 30 391 30 391 44 384 c 257,4,-1
 41 197 l 257,5,-1
 150 217 l 257,6,-1
 154 217 l 258,7,8
 172 217 172 217 172 200 c 258,9,-1
 179 -384 l 257,10,11
 165 -391 165 -391 153 -391 c 256,12,13
 141 -391 141 -391 127 -384 c 257,14,-1
 130 -197 l 257,15,-1
 22 -217 l 257,16,-1
 18 -217 l 258,17,18
 0 -217 0 -217 0 -200 c 258,19,-1
 -8 384 l 257,0,1
131 -97 m 257,20,-1
 134 115 l 257,21,-1
 40 97 l 257,22,-1
 37 -115 l 257,23,-1
 131 -97 l 257,20,-1
EndSplineSet
Validated: 16385
EndChar

StartChar: accidentals.flat
Encoding: 57620 57620 44
Width: 203
Flags: W
HStem: 106 44<61.4322 154.049>
VStem: -8 56<151.712 475.67> 5 42<-103.092 86.9198 115 174.304> 146 79<-18.7497 97.9873>
DStem2: 51 -104 45 -161 0.762377 0.647134<0.0621281 128.491>
LayerCount: 2
Fore
SplineSet
47 42 m 258,0,-1
 47 -37 l 258,1,2
 47 -75 47 -75 51 -104 c 257,3,4
 81 -78 81 -78 98 -62 c 256,5,6
 114 -46 114 -46 130 -18 c 256,7,8
 146 10 146 10 146 38 c 256,9,10
 146 66 146 66 134 86 c 256,11,12
 122 106 122 106 102 106 c 256,13,14
 78 106 78 106 62 88 c 256,15,16
 47 69 47 69 47 42 c 258,0,-1
5 -141 m 258,17,-1
 -8 468 l 257,18,19
 6 476 6 476 20 476 c 256,20,21
 34 476 34 476 48 468 c 257,22,-1
 40 115 l 257,23,24
 81 150 81 150 134 150 c 256,25,26
 173 150 173 150 199 118 c 256,27,28
 225 87 225 87 225 45 c 256,29,30
 225 18 225 18 208 -10 c 256,31,32
 191 -38 191 -38 174 -52 c 256,33,34
 156 -67 156 -67 123 -92 c 256,35,36
 90 -116 90 -116 74 -128 c 256,37,38
 69 -131 69 -131 61 -144 c 256,39,40
 53 -155 53 -155 45 -161 c 256,41,42
 37 -167 37 -167 28 -167 c 256,43,44
 18 -167 18 -167 12 -160 c 256,45,46
 5 -152 5 -152 5 -141 c 258,17,-1
EndSplineSet
Validated: 16385
EndChar

StartChar: accidentals.flat.slash
Encoding: 57621 57621 45
Width: 203
Flags: W
HStem: 106 44<62.6027 154.049>
VStem: -3 43<115.608 211> 5 42<-103.092 86.9198> 146 79<-18.7497 97.9873>
DStem2: -4 253 -3 211 0.893554 0.448956<-113.684 -17.9626 53.2166 147.621> 51 -104 45 -161 0.762377 0.647134<0.0621281 128.491>
LayerCount: 2
Fore
SplineSet
48 42 m 258,0,-1
 47 -37 l 258,1,2
 47 -75 47 -75 51 -104 c 257,3,4
 81 -78 81 -78 98 -62 c 256,5,6
 114 -46 114 -46 130 -18 c 256,7,8
 146 10 146 10 146 38 c 256,9,10
 146 66 146 66 134 86 c 256,11,12
 122 106 122 106 102 106 c 256,13,14
 78 106 78 106 64 88 c 256,15,16
 49 69 49 69 48 42 c 258,0,-1
-4 253 m 257,17,-1
 -8 468 l 257,18,19
 6 476 6 476 20 476 c 256,20,21
 34 476 34 476 48 468 c 257,22,-1
 44 276 l 257,23,-1
 114 311 l 258,24,25
 119 313 119 313 123 313 c 0,26,27
 128 313 128 313 133 310 c 256,28,29
 142 305 142 305 142 294 c 256,30,31
 141 284 141 284 131 278 c 258,32,-1
 43 233 l 257,33,-1
 40 115 l 257,34,35
 81 150 81 150 134 150 c 256,36,37
 173 150 173 150 199 118 c 256,38,39
 225 87 225 87 225 45 c 256,40,41
 225 18 225 18 208 -10 c 256,42,43
 191 -38 191 -38 174 -52 c 256,44,45
 156 -67 156 -67 123 -92 c 256,46,47
 90 -116 90 -116 74 -128 c 256,48,49
 69 -131 69 -131 61 -144 c 256,50,51
 53 -155 53 -155 45 -161 c 256,52,53
 37 -167 37 -167 28 -167 c 256,54,55
 18 -167 18 -167 12 -160 c 256,56,57
 5 -153 5 -153 5 -141 c 258,58,-1
 -3 211 l 257,59,-1
 -74 175 l 258,60,61
 -78 173 -78 173 -82 173 c 0,62,-1
 -92 176 l 256,63,64
 -102 181 -102 181 -102 191 c 256,65,66
 -102 203 -102 203 -91 209 c 258,67,-1
 -4 253 l 257,17,-1
EndSplineSet
Validated: 1
EndChar

StartChar: accidentals.flat.slashslash
Encoding: 57622 57622 46
Width: 203
Flags: W
HStem: 106 44<63 154>
VStem: 5 42<-103 87 275 291 358 437> 146 79<-19 98>
DStem2: -5 333 -5 291 0.895299 0.445466<-112.011 -18.7096 56.7969 149.003> -3 213 -2 170 0.893554 0.448956<-114.809 -18.4116 51.4295 146.728> 51 -104 45 -161 0.762377 0.647134<0.0621281 128.491>
LayerCount: 2
Fore
SplineSet
48 42 m 258,0,-1
 47 -37 l 258,1,2
 47 -75 47 -75 51 -104 c 257,3,4
 82 -78 82 -78 98 -62 c 256,5,6
 114 -46 114 -46 130 -18 c 256,7,8
 146 10 146 10 146 38 c 256,9,10
 146 66 146 66 134 86 c 256,11,12
 122 106 122 106 102 106 c 256,13,14
 78 106 78 106 64 88 c 256,15,16
 50 70 50 70 48 42 c 258,0,-1
-5 333 m 257,17,-1
 -8 468 l 257,18,19
 6 476 6 476 20 476 c 256,20,21
 34 476 34 476 48 468 c 257,22,-1
 46 358 l 257,23,-1
 114 392 l 258,24,25
 118 394 118 394 122 394 c 0,26,27
 128 394 128 394 133 390 c 256,28,29
 142 383 142 383 142 374 c 256,30,31
 142 364 142 364 131 358 c 257,32,-1
 45 315 l 257,33,-1
 43 236 l 257,34,-1
 114 271 l 258,35,36
 121 274 121 274 123 274 c 0,37,38
 128 274 128 274 133 270 c 256,39,40
 142 263 142 263 142 253 c 256,41,42
 142 243 142 243 131 237 c 258,43,-1
 43 193 l 257,44,-1
 40 115 l 257,45,46
 81 150 81 150 134 150 c 256,47,48
 173 150 173 150 199 118 c 256,49,50
 225 86 225 86 225 45 c 256,51,52
 224 16 224 16 208 -10 c 256,53,54
 192 -36 192 -36 174 -52 c 256,55,56
 156 -68 156 -68 123 -92 c 256,57,58
 90 -116 90 -116 74 -128 c 256,59,60
 69 -132 69 -132 61 -144 c 256,61,62
 53 -156 53 -156 45 -161 c 256,63,64
 37 -167 37 -167 28 -167 c 256,65,66
 18 -167 18 -167 12 -160 c 256,67,68
 6 -153 6 -153 5 -141 c 258,69,-1
 -2 170 l 257,70,-1
 -74 134 l 258,71,72
 -78 132 -78 132 -82 132 c 0,73,74
 -87 132 -87 132 -92 135 c 256,75,76
 -102 141 -102 141 -102 152 c 256,77,78
 -102 164 -102 164 -91 169 c 258,79,-1
 -3 213 l 257,80,-1
 -5 291 l 257,81,-1
 -74 256 l 258,82,83
 -78 254 -78 254 -82 254 c 4,84,85
 -87 254 -87 254 -92 257 c 256,86,87
 -102 263 -102 263 -102 273 c 256,88,89
 -102 284 -102 284 -91 290 c 258,90,-1
 -5 333 l 257,17,-1
EndSplineSet
Validated: 1
EndChar

StartChar: accidentals.mirroredflat.flat
Encoding: 57623 57623 47
Width: 409
Flags: W
HStem: 106 44<70.9507 161.858 247.142 319.657>
VStem: 0 79<-18.7498 97.9873> 177 55<-103.061 86.9198 116 475.719> 331 79<-18.7497 97.9873>
DStem2: 236 -104 230 -161 0.762377 0.647134<0.0621281 120.544>
LayerCount: 2
Fore
SplineSet
213 -167 m 258,0,-1
 197 -167 l 258,1,2
 188 -167 188 -167 180 -161 c 256,3,4
 172 -155 172 -155 164 -143.5 c 256,5,6
 156 -132 156 -132 151 -128 c 256,7,8
 136 -116 136 -116 102.5 -91.5 c 256,9,10
 69 -67 69 -67 51 -51.5 c 256,11,12
 33 -36 33 -36 16.5 -10 c 256,13,14
 0 16 0 16 0 45 c 256,15,16
 0 87 0 87 26 118.5 c 256,17,18
 52 150 52 150 91 150 c 256,19,20
 144 150 144 150 184 116 c 257,21,-1
 177 468 l 257,22,23
 190 476 190 476 204.5 476 c 256,24,25
 219 476 219 476 232 468 c 257,26,-1
 225 116 l 257,27,28
 265 150 265 150 318 150 c 256,29,30
 357 150 357 150 383.5 118.5 c 256,31,32
 410 87 410 87 410 45 c 256,33,34
 410 16 410 16 393.5 -10 c 256,35,36
 377 -36 377 -36 359 -51.5 c 256,37,38
 341 -67 341 -67 307.5 -91.5 c 256,39,40
 274 -116 274 -116 259 -128 c 256,41,42
 254 -132 254 -132 246 -143.5 c 256,43,44
 238 -155 238 -155 230 -161 c 256,45,46
 222 -167 222 -167 213 -167 c 258,0,-1
177 42 m 258,47,48
 176 69 176 69 161 87.5 c 256,49,50
 146 106 146 106 123 106 c 256,51,52
 103 106 103 106 91 86 c 256,53,54
 79 66 79 66 79 38 c 256,55,56
 79 10 79 10 95 -18 c 256,57,58
 111 -46 111 -46 127.5 -62.5 c 256,59,60
 144 -79 144 -79 174 -104 c 257,61,62
 178 -74 178 -74 178 -37 c 258,63,-1
 177 42 l 258,47,48
232 42 m 258,64,-1
 231 -37 l 258,65,66
 231 -75 231 -75 236 -104 c 257,67,68
 266 -78 266 -78 282.5 -62 c 256,69,70
 299 -46 299 -46 315 -18 c 256,71,72
 331 10 331 10 331 38 c 256,73,74
 331 66 331 66 319 86 c 256,75,76
 307 106 307 106 287 106 c 256,77,78
 263 106 263 106 248 87.5 c 256,79,80
 233 69 233 69 232 42 c 258,64,-1
EndSplineSet
Validated: 16385
EndChar

StartChar: accidentals.mirroredflat
Encoding: 57624 57624 48
Width: 203
Flags: W
HStem: 106 44<40.4507 131.21>
VStem: -31 79<-18.7498 97.9873> 146 56<151.712 475.617>
LayerCount: 2
Fore
SplineSet
146 42 m 258,0,1
 145 69 145 69 130.5 87.5 c 256,2,3
 116 106 116 106 92 106 c 256,4,5
 72 106 72 106 60 86 c 256,6,7
 48 66 48 66 48 38 c 256,8,9
 48 10 48 10 64 -18 c 256,10,11
 80 -46 80 -46 97 -62.5 c 256,12,13
 114 -79 114 -79 143 -104 c 257,14,15
 147 -74 147 -74 147 -37 c 258,16,-1
 146 42 l 258,0,1
189 -141 m 258,17,18
 189 -152 189 -152 182.5 -159.5 c 256,19,20
 176 -167 176 -167 166 -167 c 256,21,22
 157 -167 157 -167 149 -161 c 256,23,24
 141 -155 141 -155 133 -143.5 c 256,25,26
 125 -132 125 -132 120 -128 c 256,27,28
 105 -116 105 -116 71.5 -91.5 c 256,29,30
 38 -67 38 -67 20 -51.5 c 256,31,32
 2 -36 2 -36 -14.5 -10 c 256,33,34
 -31 16 -31 16 -31 45 c 256,35,36
 -31 87 -31 87 -4.5 118.5 c 256,37,38
 22 150 22 150 60 150 c 256,39,40
 112 150 112 150 154 115 c 257,41,-1
 146 468 l 257,42,43
 159 476 159 476 173.5 476 c 256,44,45
 188 476 188 476 202 468 c 257,46,-1
 189 -141 l 258,17,18
EndSplineSet
Validated: 16385
EndChar

StartChar: accidentals.mirroredflat.backslash
Encoding: 57625 57625 49
Width: 203
Flags: W
HStem: 106 44<-12.6571 59.6708>
VStem: -102 78<-19.5598 97.9873> 75 43<-103.061 86.9198 115 211>
DStem2: 8 311 -8 278 0.893554 -0.448956<-15.6735 79.1558 149.441 245.624> 25 -62.5 77.5 -161 0.76361 -0.645678<-71.1592 62.5194>
LayerCount: 2
Fore
SplineSet
75 42 m 258,0,1
 74 69 74 69 59 88 c 256,2,3
 44 106 44 106 20 106 c 256,4,5
 0 106 0 106 -12 86 c 256,6,7
 -24 66 -24 66 -24 38 c 256,8,9
 -24 10 -24 10 -8 -18 c 256,10,11
 8 -46 8 -46 25 -62 c 256,12,13
 42 -79 42 -79 72 -104 c 257,14,15
 76 -74 76 -74 76 -37 c 258,16,-1
 75 42 l 258,0,1
126 253 m 257,17,-1
 213 209 l 258,18,19
 224 204 224 204 224 191 c 256,20,21
 224 181 224 181 215 176 c 256,22,23
 210.091 172.727 210.091 172.727 205.182 172.727 c 0,24,-1
 197 175 l 258,25,-1
 125 211 l 257,26,-1
 118 -141 l 258,27,28
 118 -152 118 -152 111 -160 c 256,29,30
 104 -167 104 -167 94 -167 c 256,31,32
 86 -167 86 -167 78 -161 c 256,33,34
 70 -155 70 -155 62 -144 c 256,35,36
 53 -132 53 -132 48 -128 c 256,37,38
 37 -119 37 -119 -0 -92 c 256,39,40
 -34 -67 -34 -67 -52 -52 c 256,41,42
 -70 -36 -70 -36 -86 -10 c 256,43,44
 -102 16 -102 16 -102 45 c 256,45,46
 -102 87 -102 87 -76 118 c 256,47,48
 -50 150 -50 150 -11 150 c 256,49,50
 41 150 41 150 82 115 c 257,51,-1
 80 233 l 257,52,-1
 -8 278 l 258,53,54
 -17 283 -17 283 -18 294 c 256,55,56
 -18.1 294.9 -18.1 294.9 -18.1 295.78 c 0,57,58
 -18.1 303.7 -18.1 303.7 -10 310 c 256,59,60
 -5.63636 313.273 -5.63636 313.273 -0.677686 313.273 c 0,61,62
 3.45455 313.273 3.45455 313.273 8 311 c 258,63,-1
 79 276 l 257,64,-1
 75 468 l 257,65,66
 88 476 88 476 102 476 c 256,67,68
 117 476 117 476 130 468 c 257,69,-1
 126 253 l 257,17,-1
EndSplineSet
Validated: 513
EndChar

StartChar: accidentals.flatflat
Encoding: 57626 57626 50
Width: 370
Flags: W
HStem: 106 44<53.1572 127 228.486 316>
VStem: -8 56<151.712 475.67> 5 32<-105.03 93.75 115 194.793> 114 101<-32.749 86.9198> 158 56<156.957 475.67> 168 45<-103.092 -33 128 269.712> 306 85<-18.0137 92.7563>
LayerCount: 2
Fore
SplineSet
215 42 m 258,0,-1
 213 -37 l 258,1,2
 213 -75 213 -75 217 -104 c 257,3,4
 306 -29 306 -29 306 38 c 256,5,6
 306 67 306 67 296 86 c 256,7,8
 285 106 285 106 265 106 c 256,9,10
 242 106 242 106 229 88 c 256,11,12
 216 69 216 69 215 42 c 258,0,-1
171 -141 m 258,13,-1
 168 -33 l 257,14,15
 152 -53 152 -53 112 -88 c 256,16,17
 73 -123 73 -123 68 -128 c 256,18,19
 64 -132 64 -132 58 -144 c 256,20,21
 51 -155 51 -155 44 -161 c 256,22,23
 37 -167 37 -167 28 -167 c 256,24,25
 18 -167 18 -167 12 -160 c 256,26,27
 5 -153 5 -153 5 -141 c 258,28,-1
 -8 468 l 257,29,30
 6 476 6 476 20 476 c 256,31,32
 34 476 34 476 48 468 c 257,33,-1
 40 115 l 257,34,35
 69 150 69 150 112 150 c 256,36,37
 142 150 142 150 165 128 c 257,38,-1
 158 468 l 257,39,40
 172 476 172 476 186 476 c 256,41,42
 200 476 200 476 214 468 c 257,43,-1
 207 115 l 257,44,45
 247 150 247 150 296 150 c 256,46,47
 336 150 336 150 364 119 c 256,48,49
 391 88 391 88 391 46 c 256,50,51
 391 17 391 17 374 -10 c 256,52,53
 358 -36 358 -36 340 -51 c 256,54,55
 322 -66 322 -66 288 -91 c 256,56,57
 266 -107 266 -107 240 -128 c 256,58,59
 237 -130 237 -130 228 -143 c 256,60,61
 220 -154 220 -154 212 -160 c 256,62,63
 204 -167 204 -167 195 -167 c 256,64,65
 185 -167 185 -167 178 -159 c 256,66,67
 171 -151 171 -151 171 -141 c 258,13,-1
37 -37 m 258,68,69
 37 -75 37 -75 42 -106 c 257,70,71
 114 -36 114 -36 114 38 c 256,72,73
 114 106 114 106 80 106 c 257,74,75
 41 106 41 106 39 42 c 258,76,-1
 37 -37 l 258,68,69
EndSplineSet
Validated: 16385
EndChar

StartChar: accidentals.flatflat.slash
Encoding: 57627 57627 51
Width: 370
Flags: W
HStem: 106 44<53.1572 127 228.486 316>
VStem: -2 45<137.187 170 255 475.992> 5 32<-105.03 93.75 115 170> 114 101<-32.2495 86.9198> 168 45<-39.048 -33 128 264 351 426.936> 306 85<-18.0137 92.7563>
DStem2: -3 228 -2 170 0.867977 0.496604<-143.645 -27.935 54.2032 161.962 246.829 345.892>
LayerCount: 2
Fore
SplineSet
215 42 m 258,0,-1
 213 -37 l 258,1,2
 213 -75 213 -75 217 -104 c 257,3,4
 306 -29 306 -29 306 38 c 256,5,6
 306 67 306 67 296 86 c 256,7,8
 285 106 285 106 265 106 c 256,9,10
 242 106 242 106 229 88 c 256,11,12
 216 69 216 69 215 42 c 258,0,-1
-104 115 m 256,13,14
 -114 115 -114 115 -122 122 c 256,15,16
 -130 130 -130 130 -130 140 c 256,17,18
 -130 154 -130 154 -116 163 c 258,19,-1
 -3 228 l 257,20,-1
 -8 468 l 257,21,22
 6 476 6 476 20 476 c 256,23,24
 34 476 34 476 48 468 c 257,25,-1
 44 255 l 257,26,-1
 161 323 l 257,27,-1
 158 468 l 257,28,29
 172 476 172 476 186 476 c 256,30,31
 200 476 200 476 214 468 c 257,32,-1
 211 351 l 257,33,-1
 285 393 l 258,34,35
 293 397 293 397 299 397 c 256,36,37
 309 397 309 397 316 390 c 256,38,39
 324 382 324 382 324 372 c 256,40,41
 324 358 324 358 311 349 c 257,42,-1
 210 291 l 257,43,-1
 207 115 l 257,44,45
 247 150 247 150 296 150 c 256,46,47
 336 150 336 150 364 119 c 256,48,49
 391 88 391 88 391 46 c 256,50,51
 391 17 391 17 374 -10 c 256,52,53
 358 -36 358 -36 340 -51 c 256,54,55
 322 -66 322 -66 288 -91 c 256,56,57
 266 -107 266 -107 240 -128 c 256,58,59
 237 -130 237 -130 228 -143 c 256,60,61
 220 -154 220 -154 212 -160 c 256,62,63
 204 -167 204 -167 195 -167 c 256,64,65
 185 -167 185 -167 178 -160 c 256,66,67
 171 -152 171 -152 171 -141 c 258,68,-1
 168 -33 l 257,69,70
 152 -53 152 -53 112 -88 c 256,71,72
 73 -123 73 -123 68 -128 c 256,73,74
 64 -132 64 -132 58 -144 c 256,75,76
 51 -155 51 -155 44 -161 c 256,77,78
 37 -167 37 -167 28 -167 c 256,79,80
 18 -167 18 -167 12 -160 c 256,81,82
 5 -153 5 -153 5 -141 c 258,83,-1
 -2 170 l 257,84,-1
 -91 119 l 258,85,86
 -99 115 -99 115 -104 115 c 256,13,14
163 264 m 257,87,-1
 43 195 l 257,88,-1
 40 115 l 257,89,90
 69 150 69 150 112 150 c 256,91,92
 142 150 142 150 165 128 c 257,93,-1
 163 264 l 257,87,-1
37 -37 m 258,94,95
 37 -75 37 -75 42 -106 c 257,96,97
 114 -35 114 -35 114 38 c 256,98,99
 114 106 114 106 80 106 c 257,100,101
 41 106 41 106 39 42 c 258,102,-1
 37 -37 l 258,94,95
EndSplineSet
Validated: 16385
EndChar

StartChar: accidentals.doublesharp
Encoding: 57628 57628 52
Width: 256
Flags: MW
HStem: -138 109<-2.22559 71.4764 185.32 258.226> 29 109<-2.22559 71.4764 185.32 258.226>
VStem: -10 109<-128.936 -57.1164 57.1164 128.936> 157 109<-130.125 -57.1164 57.1164 130.125>
LayerCount: 2
Fore
SplineSet
156 0 m 257,0,1
 185 -29 185 -29 247 -29 c 256,2,3
 257 -29 257 -29 257 -39 c 258,4,-1
 266 -128 l 258,5,6
 267 -132 267 -132 264 -135 c 256,7,8
 261 -138 261 -138 257 -138 c 258,9,-1
 167 -129 l 258,10,11
 157 -127 157 -127 157 -119 c 256,12,13
 157 -57 157 -57 128 -28 c 257,14,15
 99 -57 99 -57 99 -119 c 256,16,17
 99 -127 99 -127 90 -129 c 258,18,-1
 -1 -138 l 258,19,20
 -5 -138 -5 -138 -8 -135 c 256,21,22
 -11 -132 -11 -132 -10 -128 c 258,23,-1
 -1 -39 l 258,24,25
 -1 -29 -1 -29 9 -29 c 256,26,27
 71 -29 71 -29 100 0 c 257,28,29
 71 29 71 29 9 29 c 256,30,31
 -1 29 -1 29 -1 39 c 258,32,-1
 -10 128 l 258,33,34
 -11 132 -11 132 -8 135 c 256,35,36
 -5 138 -5 138 -1 138 c 258,37,-1
 90 129 l 258,38,39
 99 127 99 127 99 119 c 256,40,41
 99 57 99 57 128 28 c 257,42,43
 157 57 157 57 157 119 c 256,44,45
 157 127 157 127 167 129 c 258,46,-1
 257 138 l 258,47,48
 261 138 261 138 264 135 c 256,49,50
 267 132 267 132 266 128 c 258,51,-1
 257 39 l 258,52,53
 257 29 257 29 247 29 c 256,54,55
 185 29 185 29 156 0 c 257,0,1
EndSplineSet
Validated: 16385
EndChar

StartChar: accidentals.rightparen
Encoding: 57629 57629 53
Width: 152
Flags: W
VStem: 102 52<-126.341 127.301>
LayerCount: 2
Fore
SplineSet
38 -256 m 256,0,1
 38 -255 38 -255 54 -230 c 256,2,3
 70 -205 70 -205 86 -145.5 c 256,4,5
 102 -86 102 -86 102 0 c 256,6,7
 102 86 102 86 86 146 c 256,8,9
 70 206 70 206 54 230.5 c 256,10,11
 38 255 38 255 38 256 c 256,12,13
 38 269 38 269 51 269 c 256,14,15
 60 269 60 269 84.5 232 c 256,16,17
 109 195 109 195 131.5 128 c 256,18,19
 154 61 154 61 154 0 c 256,20,21
 154 -62 154 -62 131 -128.5 c 256,22,23
 108 -195 108 -195 84 -232 c 256,24,25
 60 -269 60 -269 51 -269 c 256,26,27
 38 -269 38 -269 38 -256 c 256,0,1
EndSplineSet
Validated: 1
EndChar

StartChar: accidentals.leftparen
Encoding: 57630 57630 54
Width: 0
Flags: W
VStem: -154 52<-126.341 127.301>
LayerCount: 2
Fore
SplineSet
-38 -256 m 256,0,1
 -38 -269 -38 -269 -51 -269 c 256,2,3
 -60 -269 -60 -269 -84 -232 c 256,4,5
 -108 -195 -108 -195 -131 -128.5 c 256,6,7
 -154 -62 -154 -62 -154 0 c 256,8,9
 -154 61 -154 61 -131.5 128 c 256,10,11
 -109 195 -109 195 -84.5 232 c 256,12,13
 -60 269 -60 269 -51 269 c 256,14,15
 -38 269 -38 269 -38 256 c 256,16,17
 -38 255 -38 255 -54 230.5 c 256,18,19
 -70 206 -70 206 -86 146 c 256,20,21
 -102 86 -102 86 -102 0 c 256,22,23
 -102 -86 -102 -86 -86 -145.5 c 256,24,25
 -70 -205 -70 -205 -54 -230 c 256,26,27
 -38 -255 -38 -255 -38 -256 c 256,0,1
EndSplineSet
Validated: 1
EndChar

StartChar: arrowheads.open.01
Encoding: 57631 57631 55
Width: 256
Flags: W
HStem: -20 40<-105.481 19.9951>
VStem: -256 276
LayerCount: 2
Fore
SplineSet
20 0 m 256,0,1
 20 -20 20 -20 0 -20 c 256,2,3
 -53 -20 -53 -20 -98 -37 c 256,4,5
 -144 -54 -144 -54 -168 -74 c 256,6,7
 -207 -106 -207 -106 -212 -111 c 256,8,9
 -231 -128 -231 -128 -236 -128 c 256,10,11
 -244 -128 -244 -128 -250 -122 c 256,12,13
 -256 -117 -256 -117 -256 -108 c 256,14,15
 -256 -91 -256 -91 -211 -54 c 256,16,17
 -166 -18 -166 -18 -115 0 c 257,18,19
 -169 19 -169 19 -212 56 c 256,20,21
 -256 93 -256 93 -256 108 c 256,22,23
 -256 117 -256 117 -250 122 c 256,24,25
 -244 128 -244 128 -236 128 c 256,26,27
 -229 128 -229 128 -211 111 c 256,28,29
 -193 94 -193 94 -168 74 c 256,30,31
 -144 54 -144 54 -98 37 c 256,32,33
 -52 20 -52 20 0 20 c 256,34,35
 20 20 20 20 20 0 c 256,0,1
EndSplineSet
Validated: 1
EndChar

StartChar: arrowheads.open.0M1
Encoding: 57632 57632 56
Width: 256
Flags: W
HStem: -20 40<-19.9951 105.481>
VStem: -20 276
LayerCount: 2
Fore
SplineSet
-20 0 m 256,0,1
 -20 20 -20 20 0 20 c 256,2,3
 53 20 53 20 98.5 37 c 256,4,5
 144 54 144 54 168.5 74 c 256,6,7
 193 94 193 94 211 111 c 256,8,9
 229 128 229 128 236 128 c 256,10,11
 244 128 244 128 250 122.5 c 256,12,13
 256 117 256 117 256 108 c 256,14,15
 256 93 256 93 212.5 56 c 256,16,17
 169 19 169 19 115 0 c 257,18,19
 166 -18 166 -18 211 -54.5 c 256,20,21
 256 -91 256 -91 256 -108 c 256,22,23
 256 -117 256 -117 250 -122.5 c 256,24,25
 244 -128 244 -128 236 -128 c 256,26,27
 230 -128 230 -128 211.5 -111 c 256,28,29
 193 -94 193 -94 168.5 -74 c 256,30,31
 144 -54 144 -54 98.5 -37 c 256,32,33
 53 -20 53 -20 0 -20 c 256,34,35
 -20 -20 -20 -20 -20 0 c 256,0,1
EndSplineSet
Validated: 16385
EndChar

StartChar: arrowheads.open.11
Encoding: 57633 57633 57
Width: 128
Flags: W
HStem: -256 276
VStem: -20 40<-105.481 19.9951>
LayerCount: 2
Fore
SplineSet
0 20 m 256,0,1
 20 20 20 20 20 0 c 256,2,3
 20 -53 20 -53 37 -98 c 256,4,5
 54 -144 54 -144 74 -168 c 256,6,7
 106 -207 106 -207 111 -212 c 256,8,9
 128 -231 128 -231 128 -236 c 256,10,11
 128 -244 128 -244 122 -250 c 256,12,13
 117 -256 117 -256 108 -256 c 256,14,15
 91 -256 91 -256 54 -211 c 256,16,17
 18 -166 18 -166 0 -115 c 257,18,19
 -19 -169 -19 -169 -56 -212 c 256,20,21
 -93 -256 -93 -256 -108 -256 c 256,22,23
 -117 -256 -117 -256 -122 -250 c 256,24,25
 -128 -244 -128 -244 -128 -236 c 256,26,27
 -128 -229 -128 -229 -111 -211 c 256,28,29
 -94 -193 -94 -193 -74 -168 c 256,30,31
 -54 -144 -54 -144 -37 -98 c 256,32,33
 -20 -52 -20 -52 -20 0 c 256,34,35
 -20 20 -20 20 0 20 c 256,0,1
EndSplineSet
Validated: 1
EndChar

StartChar: arrowheads.open.1M1
Encoding: 57634 57634 58
Width: 128
Flags: W
HStem: -20 276
VStem: -20 40<-19.9951 105.481>
LayerCount: 2
Fore
SplineSet
0 -20 m 256,0,1
 -20 -20 -20 -20 -20 0 c 256,2,3
 -20 53 -20 53 -37 98.5 c 256,4,5
 -54 144 -54 144 -74 168.5 c 256,6,7
 -94 193 -94 193 -111 211 c 256,8,9
 -128 229 -128 229 -128 236 c 256,10,11
 -128 244 -128 244 -122.5 250 c 256,12,13
 -117 256 -117 256 -108 256 c 256,14,15
 -93 256 -93 256 -56 212.5 c 256,16,17
 -19 169 -19 169 0 115 c 257,18,19
 18 166 18 166 54.5 211 c 256,20,21
 91 256 91 256 108 256 c 256,22,23
 117 256 117 256 122.5 250 c 256,24,25
 128 244 128 244 128 236 c 256,26,27
 128 230 128 230 111 211.5 c 256,28,29
 94 193 94 193 74 168.5 c 256,30,31
 54 144 54 144 37 98.5 c 256,32,33
 20 53 20 53 20 0 c 256,34,35
 20 -20 20 -20 0 -20 c 256,0,1
EndSplineSet
Validated: 16385
EndChar

StartChar: arrowheads.close.01
Encoding: 57635 57635 59
Width: 0
Flags: W
HStem: -10 20<-54.875 9.99756>
VStem: -256 266
LayerCount: 2
Fore
SplineSet
10 0 m 256,0,1
 10 -10 10 -10 0 -10 c 256,2,3
 -46 -10 -46 -10 -127.5 -49 c 256,4,5
 -209 -88 -209 -88 -238 -124 c 256,6,7
 -242 -128 -242 -128 -246 -128 c 256,8,9
 -256 -128 -256 -128 -256 -118 c 256,10,11
 -256 -117 -256 -117 -254.5 -110.5 c 256,12,13
 -253 -104 -253 -104 -251.5 -93 c 256,14,15
 -250 -82 -250 -82 -248 -68 c 256,16,17
 -246 -54 -246 -54 -244.5 -35.5 c 256,18,19
 -243 -17 -243 -17 -243 0 c 256,20,21
 -243 17 -243 17 -244.5 35.5 c 256,22,23
 -246 54 -246 54 -248 68 c 256,24,25
 -250 82 -250 82 -251.5 93 c 256,26,27
 -253 104 -253 104 -254.5 110.5 c 256,28,29
 -256 117 -256 117 -256 118 c 256,30,31
 -256 128 -256 128 -246 128 c 256,32,33
 -242 128 -242 128 -238 124 c 256,34,35
 -209 88 -209 88 -127.5 49 c 256,36,37
 -46 10 -46 10 0 10 c 256,38,39
 10 10 10 10 10 0 c 256,0,1
EndSplineSet
Validated: 16385
EndChar

StartChar: arrowheads.close.0M1
Encoding: 57636 57636 60
Width: 256
Flags: W
HStem: -10 20<-9.99756 54.875>
VStem: -10 266
LayerCount: 2
Fore
SplineSet
-10 0 m 256,0,1
 -10 10 -10 10 0 10 c 256,2,3
 46 10 46 10 127.5 49 c 256,4,5
 209 88 209 88 238 124 c 256,6,7
 242 128 242 128 246 128 c 256,8,9
 256 128 256 128 256 118 c 256,10,11
 256 117 256 117 254.5 110.5 c 256,12,13
 253 104 253 104 251.5 93 c 256,14,15
 250 82 250 82 248 68 c 256,16,17
 246 54 246 54 244.5 35.5 c 256,18,19
 243 17 243 17 243 0 c 256,20,21
 243 -17 243 -17 244.5 -35.5 c 256,22,23
 246 -54 246 -54 248 -68 c 256,24,25
 250 -82 250 -82 251.5 -93 c 256,26,27
 253 -104 253 -104 254.5 -110.5 c 256,28,29
 256 -117 256 -117 256 -118 c 256,30,31
 256 -128 256 -128 246 -128 c 256,32,33
 242 -128 242 -128 238 -124 c 256,34,35
 209 -88 209 -88 127.5 -49 c 256,36,37
 46 -10 46 -10 0 -10 c 256,38,39
 -10 -10 -10 -10 -10 0 c 256,0,1
EndSplineSet
Validated: 16385
EndChar

StartChar: arrowheads.close.11
Encoding: 57637 57637 61
Width: 256
VWidth: 1280
Flags: W
HStem: 512 266
VStem: 246 20<713.125 777.998>
LayerCount: 2
Fore
SplineSet
128 266 m 256,0,1
 138 266 138 266 138 256 c 256,2,3
 138 210 138 210 177 128 c 256,4,5
 216 47 216 47 252 18 c 256,6,7
 256 15 256 15 256 10 c 256,8,9
 256 0 256 0 246 0 c 256,10,11
 245 0 245 0 238 2 c 256,12,13
 234 3 234 3 196 8 c 256,14,15
 158 13 158 13 128 13 c 256,16,17
 98 13 98 13 60 8 c 256,18,19
 22 3 22 3 18 2 c 256,20,21
 13 0 13 0 10 0 c 256,22,23
 0 0 0 0 0 10 c 256,24,25
 0 15 0 15 4 18 c 256,26,27
 40 47 40 47 79 128 c 256,28,29
 118 210 118 210 118 256 c 256,30,31
 118 266 118 266 128 266 c 256,0,1
EndSplineSet
Validated: 1
EndChar

StartChar: arrowheads.close.1M1
Encoding: 57638 57638 62
Width: 256
VWidth: 1034
Flags: W
HStem: 50 266
VStem: 622 20<50.0024 114.875>
LayerCount: 2
Fore
SplineSet
128 0 m 256,0,1
 118 0 118 0 118 10 c 256,2,3
 118 56 118 56 79 138 c 256,4,5
 40 219 40 219 4 248 c 256,6,7
 0 251 0 251 0 256 c 256,8,9
 0 266 0 266 10 266 c 256,10,11
 11 266 11 266 18 264 c 256,12,13
 22 263 22 263 60 258 c 256,14,15
 98 253 98 253 128 253 c 256,16,17
 158 253 158 253 196 258 c 256,18,19
 234 263 234 263 238 264 c 256,20,21
 243 266 243 266 246 266 c 256,22,23
 256 266 256 266 256 256 c 256,24,25
 256 251 256 251 252 248 c 256,26,27
 216 219 216 219 177 138 c 256,28,29
 138 56 138 56 138 10 c 256,30,31
 138 0 138 0 128 0 c 256,0,1
EndSplineSet
Validated: 1
EndChar

StartChar: dots.dot
Encoding: 57639 57639 63
Width: 116
Flags: W
HStem: -58 116<17.533 98.467>
VStem: 0 116<-40.467 40.467>
LayerCount: 2
Fore
SplineSet
0 0 m 256,0,1
 0 24 0 24 17 41 c 256,2,3
 34 58 34 58 58 58 c 256,4,5
 82 58 82 58 99 41 c 256,6,7
 116 24 116 24 116 0 c 256,8,9
 116 -24 116 -24 99 -41 c 256,10,11
 82 -58 82 -58 58 -58 c 256,12,13
 34 -58 34 -58 17 -41 c 256,14,15
 0 -24 0 -24 0 0 c 256,0,1
EndSplineSet
EndChar

StartChar: noteheads.uM2
Encoding: 57640 57640 64
Width: 587
Flags: W
HStem: -141 26<271.293 367.07> 115 26<220.885 316.707>
VStem: 0 50<-140.898 -40 40 140.898> 397 190<-39.7773 39.3484> 537 50<-140.898 -40 40 908.898>
LayerCount: 2
Fore
SplineSet
294 141 m 256,0,1
 394 141 394 141 456 109 c 256,2,3
 518 77 518 77 537 40 c 257,4,-1
 537 883 l 258,5,6
 537 909 537 909 562 909 c 256,7,8
 587 909 587 909 587 883 c 258,9,-1
 587 -115 l 258,10,11
 587 -141 587 -141 562 -141 c 256,12,13
 537 -141 537 -141 537 -115 c 258,14,-1
 537 -40 l 257,15,16
 518 -77 518 -77 456 -109 c 256,17,18
 394 -141 394 -141 294 -141 c 256,19,20
 194 -141 194 -141 132 -109 c 256,21,22
 70 -77 70 -77 50 -40 c 257,23,-1
 50 -115 l 258,24,25
 50 -141 50 -141 25 -141 c 256,26,27
 0 -141 0 -141 0 -115 c 258,28,-1
 0 115 l 258,29,30
 0 141 0 141 25 141 c 256,31,32
 50 141 50 141 50 115 c 258,33,-1
 50 40 l 257,34,35
 70 77 70 77 132 109 c 256,36,37
 194 141 194 141 294 141 c 256,0,1
260 115 m 256,38,39
 226 115 226 115 208 90 c 256,40,41
 190 65 190 65 190 25 c 256,42,43
 190 -22 190 -22 215 -56 c 256,44,45
 239 -89 239 -89 270 -102 c 256,46,47
 300 -115 300 -115 327 -115 c 256,48,49
 363 -115 363 -115 380 -90 c 256,50,51
 397 -65 397 -65 397 -25 c 256,52,53
 397 22 397 22 372 56 c 256,54,55
 347 90 347 90 318 102 c 256,56,57
 288 115 288 115 260 115 c 256,38,39
EndSplineSet
Validated: 16385
EndChar

StartChar: noteheads.dM2
Encoding: 57641 57641 65
Width: 587
Flags: W
HStem: -141 26<271.293 367.07> 115 26<220.885 316.707>
VStem: 0 50<-908.902 -40 40 140.898> 397 190<-39.7773 39.3484> 537 50<-140.902 -40 40 140.898>
LayerCount: 2
Fore
SplineSet
294 141 m 260,0,1
 394 141 394 141 456 109 c 256,2,3
 518 77 518 77 537 40 c 257,4,-1
 537 115 l 258,5,6
 537 141 537 141 562 141 c 256,7,8
 587 141 587 141 587 115 c 258,9,-1
 587 -116 l 258,10,11
 587 -141 587 -141 562 -141 c 256,12,13
 537 -141 537 -141 537 -116 c 258,14,-1
 537 -40 l 257,15,16
 518 -77 518 -77 456 -109 c 256,17,18
 394 -141 394 -141 294 -141 c 256,19,20
 194 -141 194 -141 132 -109 c 256,21,22
 70 -77 70 -77 50 -40 c 257,23,-1
 50 -884 l 258,24,25
 50 -909 50 -909 25 -909 c 256,26,27
 0 -909 0 -909 0 -884 c 258,28,-1
 0 115 l 258,29,30
 0 141 0 141 25 141 c 256,31,32
 50 141 50 141 50 115 c 258,33,-1
 50 40 l 257,34,35
 70 77 70 77 132 109 c 256,36,37
 194 141 194 141 294 141 c 260,0,1
260 115 m 256,38,39
 226 115 226 115 208 90 c 256,40,41
 190 65 190 65 190 25 c 256,42,43
 190 -22 190 -22 215 -56 c 256,44,45
 239 -89 239 -89 270 -102 c 256,46,47
 300 -115 300 -115 327 -115 c 256,48,49
 363 -115 363 -115 380 -90 c 256,50,51
 397 -65 397 -65 397 -25 c 256,52,53
 397 22 397 22 372 56 c 256,54,55
 349 89 349 89 318 102 c 256,56,57
 288 115 288 115 260 115 c 256,38,39
EndSplineSet
Validated: 16385
EndChar

StartChar: noteheads.sM1
Encoding: 57642 57642 66
Width: 587
Flags: MW
HStem: -141 26<271.293 367.07> 115 26<220.885 316.707>
VStem: 0 50<-140.898 -40 40 140.898> 537 50<-140.898 -40 40 140.898>
LayerCount: 2
Fore
SplineSet
294 141 m 256,0,1
 394 141 394 141 456 109 c 256,2,3
 518 77 518 77 537 40 c 257,4,-1
 537 115 l 258,5,6
 537 141 537 141 562 141 c 256,7,8
 587 141 587 141 587 115 c 258,9,-1
 587 -115 l 258,10,11
 587 -141 587 -141 562 -141 c 256,12,13
 537 -141 537 -141 537 -115 c 258,14,-1
 537 -40 l 257,15,16
 518 -77 518 -77 456 -109 c 256,17,18
 394 -141 394 -141 294 -141 c 256,19,20
 194 -141 194 -141 132 -109 c 256,21,22
 70 -77 70 -77 50 -40 c 257,23,-1
 50 -115 l 258,24,25
 50 -141 50 -141 25 -141 c 256,26,27
 0 -141 0 -141 0 -115 c 258,28,-1
 0 115 l 258,29,30
 0 141 0 141 25 141 c 256,31,32
 50 141 50 141 50 115 c 258,33,-1
 50 40 l 257,34,35
 70 77 70 77 132 109 c 256,36,37
 194 141 194 141 294 141 c 256,0,1
260 115 m 256,38,39
 226 115 226 115 208 90 c 256,40,41
 190 65 190 65 190 25 c 256,42,43
 190 -22 190 -22 215 -56 c 256,44,45
 239 -89 239 -89 270 -102 c 256,46,47
 300 -115 300 -115 327 -115 c 256,48,49
 363 -115 363 -115 380 -90 c 256,50,51
 397 -65 397 -65 397 -25 c 256,52,53
 397 22 397 22 372 56 c 256,54,55
 349 89 349 89 318 102 c 256,56,57
 288 115 288 115 260 115 c 256,38,39
EndSplineSet
Validated: 16385
EndChar

StartChar: noteheads.s0
Encoding: 57643 57643 67
Width: 506
Flags: W
HStem: -141 26<230.351 327.523> 115 26<179.942 277.347>
VStem: 0 150<-51.4796 58.5075> 357 150<-58.5075 51.4796>
LayerCount: 2
Fore
SplineSet
220 115 m 256,0,1
 185 115 185 115 167.5 90.5 c 256,2,3
 150 66 150 66 150 25 c 256,4,5
 150 -22 150 -22 175 -55.5 c 256,6,7
 200 -89 200 -89 229.5 -102 c 256,8,9
 259 -115 259 -115 287 -115 c 256,10,11
 322 -115 322 -115 339.5 -90.5 c 256,12,13
 357 -66 357 -66 357 -25 c 256,14,15
 357 22 357 22 332 55.5 c 256,16,17
 307 89 307 89 277.5 102 c 256,18,19
 248 115 248 115 220 115 c 256,0,1
254 141 m 256,20,21
 362 141 362 141 434.5 99 c 256,22,23
 507 57 507 57 507 0 c 256,24,25
 507 -60 507 -60 431.5 -100.5 c 256,26,27
 356 -141 356 -141 254 -141 c 256,28,29
 148 -141 148 -141 74 -99 c 256,30,31
 0 -57 0 -57 0 0 c 256,32,33
 0 60 0 60 76 100.5 c 256,34,35
 152 141 152 141 254 141 c 256,20,21
EndSplineSet
Validated: 16385
EndChar

StartChar: noteheads.s1
Encoding: 57644 57644 68
Width: 355
Flags: W
HStem: -141 32<44.2045 121.912> 109 32<234.155 312.31>
VStem: 0 33<-97.7416 -32.8776> 323 33<32.2793 99.4023>
LayerCount: 2
Fore
SplineSet
323 67 m 256,0,1
 323 84 323 84 310 96.5 c 256,2,3
 297 109 297 109 280 109 c 256,4,5
 251 109 251 109 159 49 c 256,6,7
 67 -11 67 -11 44 -38 c 256,8,9
 33 -51 33 -51 33 -67 c 256,10,11
 33 -84 33 -84 45.5 -96.5 c 256,12,13
 58 -109 58 -109 76 -109 c 256,14,15
 105 -109 105 -109 197.5 -49 c 256,16,17
 290 11 290 11 312 38 c 257,18,19
 323 50 323 50 323 67 c 256,0,1
270 141 m 256,20,21
 356 141 356 141 356 67 c 256,22,23
 356 31 356 31 335 -17 c 256,24,25
 314 -65 314 -65 279 -89 c 256,26,27
 201 -141 201 -141 86 -141 c 256,28,29
 0 -141 0 -141 0 -67 c 256,30,31
 0 -33 0 -33 21 16 c 256,32,33
 42 65 42 65 77 89 c 256,34,35
 155 141 155 141 270 141 c 256,20,21
EndSplineSet
Validated: 16385
EndChar

StartChar: noteheads.s2
Encoding: 57645 57645 69
Width: 336
Flags: W
HStem: -141 282<128.962 208.038>
VStem: 0 337<-24.7771 24.7771>
LayerCount: 2
Fore
SplineSet
225 141 m 256,0,1
 275 141 275 141 306 115.5 c 256,2,3
 337 90 337 90 337 48 c 256,4,5
 337 -21 337 -21 265.5 -81 c 256,6,7
 194 -141 194 -141 112 -141 c 256,8,9
 62 -141 62 -141 31 -115.5 c 256,10,11
 0 -90 0 -90 0 -48 c 256,12,13
 0 21 0 21 71.5 81 c 256,14,15
 143 141 143 141 225 141 c 256,0,1
EndSplineSet
Validated: 1
EndChar

StartChar: noteheads.s0diamond
Encoding: 57646 57646 70
Width: 506
Flags: W
HStem: -141 64<216.784 312.392> -54.5 108.5<21.1443 137.15 368.241 485.856> 77 64<195.577 289.955>
VStem: 0 188<-37.78 37.3434> 318 189<-37.3434 37.78>
LayerCount: 2
Fore
SplineSet
215 77 m 256,0,1
 201 77 201 77 194.5 63 c 256,2,3
 188 49 188 49 188 1 c 256,4,5
 188 -33 188 -33 201 -44.5 c 256,6,7
 214 -56 214 -56 251 -68 c 256,8,9
 281 -77 281 -77 292 -77 c 256,10,11
 306 -77 306 -77 312 -63 c 256,12,13
 318 -49 318 -49 318 -1 c 256,14,15
 318 33 318 33 305.5 44.5 c 256,16,17
 293 56 293 56 256 68 c 256,18,19
 226 77 226 77 215 77 c 256,0,1
507 0 m 256,20,21
 507 -27 507 -27 486.5 -37.5 c 256,22,23
 466 -48 466 -48 430.5 -54 c 256,24,25
 395 -60 395 -60 379 -70 c 257,26,27
 364 -78 364 -78 340.5 -97.5 c 256,28,29
 317 -117 317 -117 296.5 -129 c 256,30,31
 276 -141 276 -141 253.5 -141 c 256,32,33
 231 -141 231 -141 210 -129 c 256,34,35
 189 -117 189 -117 165.5 -97.5 c 256,36,37
 142 -78 142 -78 128 -70 c 256,38,39
 112 -61 112 -61 76.5 -54.5 c 256,40,41
 41 -48 41 -48 20.5 -37.5 c 256,42,43
 0 -27 0 -27 0 0 c 256,44,45
 0 27 0 27 20.5 37.5 c 256,46,47
 41 48 41 48 76.5 54 c 256,48,49
 112 60 112 60 128 70 c 256,50,51
 132 72 132 72 178 106.5 c 256,52,53
 224 141 224 141 254 141 c 256,54,55
 277 141 277 141 297 129 c 256,56,57
 317 117 317 117 340.5 97.5 c 256,58,59
 364 78 364 78 379 70 c 256,60,61
 395 61 395 61 430.5 54.5 c 256,62,63
 466 48 466 48 486.5 37.5 c 256,64,65
 507 27 507 27 507 0 c 256,20,21
EndSplineSet
Validated: 16385
EndChar

StartChar: noteheads.s1diamond
Encoding: 57647 57647 71
Width: 372
Flags: W
HStem: -108 25<108.781 141.011> 83 25<230.989 263.027>
VStem: 0 74<-107 -49.1146> 299 74<49.1146 117.586>
LayerCount: 2
Fore
SplineSet
299 56 m 256,0,1
 299 83 299 83 269 83 c 256,2,3
 244 83 244 83 173 37 c 256,4,5
 102 -9 102 -9 83 -32 c 256,6,7
 74 -43 74 -43 74 -56 c 256,8,9
 74 -83 74 -83 103 -83 c 256,10,11
 128 -83 128 -83 199 -37 c 256,12,13
 270 9 270 9 290 32 c 256,14,15
 299 43 299 43 299 56 c 256,0,1
331 141 m 256,16,17
 349 141 349 141 361 128 c 256,18,19
 373 115 373 115 373 99 c 256,20,21
 373 83 373 83 353.5 53.5 c 256,22,23
 334 24 334 24 330 11.5 c 256,24,25
 326 -1 326 -1 324 -27.5 c 256,26,27
 322 -54 322 -54 318.5 -70 c 256,28,29
 315 -86 315 -86 297 -100 c 256,30,31
 279 -114 279 -114 245 -114 c 256,32,33
 233 -114 233 -114 205.5 -111 c 256,34,35
 178 -108 178 -108 165 -108 c 256,36,37
 139 -108 139 -108 99 -124 c 256,38,39
 59 -140 59 -140 42 -140 c 256,40,41
 24 -140 24 -140 12 -127.5 c 256,42,43
 0 -115 0 -115 0 -99 c 256,44,45
 0 -83 0 -83 19.5 -53.5 c 256,46,47
 39 -24 39 -24 43 -11.5 c 256,48,49
 47 1 47 1 49 27.5 c 256,50,51
 51 54 51 54 54 70 c 256,52,53
 57 86 57 86 75.5 100 c 256,54,55
 94 114 94 114 128 114 c 256,56,57
 140 114 140 114 167.5 111 c 256,58,59
 195 108 195 108 208 108 c 256,60,61
 234 108 234 108 274 124.5 c 256,62,63
 314 141 314 141 331 141 c 256,16,17
EndSplineSet
Validated: 16385
EndChar

StartChar: noteheads.s2diamond
Encoding: 57648 57648 72
Width: 377
Flags: W
HStem: -128 268<104 216.182>
LayerCount: 2
Fore
SplineSet
339 141 m 256,0,1
 359 141 359 141 368.5 127.5 c 256,2,3
 378 114 378 114 378 101 c 256,4,5
 378 79 378 79 338.5 45.5 c 256,6,7
 299 12 299 12 290 -3 c 256,8,9
 284 -13 284 -13 266.5 -54.5 c 256,10,11
 249 -96 249 -96 230 -118 c 256,12,13
 211 -140 211 -140 184 -140 c 256,14,15
 173 -140 173 -140 148 -134 c 256,16,17
 123 -128 123 -128 110 -128 c 256,18,19
 98 -128 98 -128 73 -134.5 c 256,20,21
 48 -141 48 -141 38 -141 c 256,22,23
 18 -141 18 -141 9 -127.5 c 256,24,25
 0 -114 0 -114 0 -101 c 256,26,27
 0 -79 0 -79 39.5 -45.5 c 256,28,29
 79 -12 79 -12 88 3 c 256,30,31
 94 14 94 14 111.5 55 c 256,32,33
 129 96 129 96 147.5 118 c 256,34,35
 166 140 166 140 193 140 c 256,36,37
 204 140 204 140 229 134 c 256,38,39
 254 128 254 128 267 128 c 256,40,41
 279 128 279 128 304 134.5 c 256,42,43
 329 141 329 141 339 141 c 256,0,1
EndSplineSet
Validated: 16385
EndChar

StartChar: noteheads.s0triangle
Encoding: 57649 57649 73
Width: 592
Flags: W
HStem: 17 45<502.654 592.91>
VStem: 105 75<-112.862 22.0241>
LayerCount: 2
Fore
SplineSet
134 85 m 257,0,1
 180 3.76596 180 3.76596 180 -113 c 257,2,3
 282 -27 282 -27 406 19 c 257,4,5
 262 38 262 38 134 85 c 257,0,1
0 164 m 256,6,7
 0 176 0 176 15 181.5 c 256,8,9
 30 187 30 187 44 187 c 256,10,11
 47 187 47 187 73 174.5 c 256,12,13
 99 162 99 162 143.5 143.5 c 256,14,15
 188 125 188 125 245.5 106.5 c 256,16,17
 303 88 303 88 384.5 75 c 256,18,19
 466 62 466 62 551 62 c 258,20,-1
 556 62 l 258,21,22
 570 62 570 62 581.5 55.5 c 256,23,24
 593 49 593 49 593 38 c 256,25,26
 593 26 593 26 570 17 c 256,27,28
 547 8 547 8 504 -5 c 256,29,30
 461 -18 461 -18 409 -38.5 c 256,31,32
 357 -59 357 -59 288 -106.5 c 256,33,34
 219 -154 219 -154 157 -219 c 256,35,36
 152 -224 152 -224 141 -224 c 256,37,38
 95 -224 95 -224 95 -201 c 257,39,-1
 96 -196 l 258,40,41
 97 -191 97 -191 98.5 -182 c 256,42,43
 100 -173 100 -173 101.5 -162.5 c 256,44,45
 103 -152 103 -152 104 -137.5 c 256,46,47
 105 -123 105 -123 105 -110 c 256,48,49
 105 31 105 31 16 140 c 256,50,51
 14 142 14 142 9 147 c 256,52,53
 4 152 4 152 2 155.5 c 256,54,55
 0 159 0 159 0 164 c 256,6,7
EndSplineSet
Validated: 16385
EndChar

StartChar: noteheads.d1triangle
Encoding: 57650 57650 74
Width: 428
Flags: W
HStem: 7 51<345.588 427.173>
VStem: 76 60<-89 34.0162>
LayerCount: 2
Fore
SplineSet
104 71 m 257,0,1
 136 -4 136 -4 136 -89 c 257,2,3
 198 -27 198 -27 285 16 c 257,4,5
 187 33 187 33 104 71 c 257,0,1
0 145 m 256,6,7
 0 155 0 155 9.5 162 c 256,8,9
 19 169 19 169 33 169 c 256,10,11
 38 169 38 169 68 151.5 c 256,12,13
 98 134 98 134 138 113.5 c 256,14,15
 178 93 178 93 249.5 75.5 c 256,16,17
 321 58 321 58 398 58 c 256,18,19
 410 58 410 58 419 51 c 256,20,21
 428 44 428 44 428 34 c 256,22,23
 428 20 428 20 400 7 c 256,24,25
 372 -6 372 -6 330.5 -20.5 c 256,26,27
 289 -35 289 -35 230 -80 c 256,28,29
 171 -125 171 -125 122 -193 c 256,30,31
 116 -202 116 -202 100 -202 c 256,32,33
 87 -202 87 -202 77.5 -195 c 256,34,35
 68 -188 68 -188 68 -177 c 256,36,37
 68 -175 68 -175 70 -165 c 256,38,39
 72 -155 72 -155 74 -136.5 c 256,40,41
 76 -118 76 -118 76 -96 c 256,42,43
 76 -30 76 -30 57 25.5 c 256,44,45
 38 81 38 81 19 111 c 256,46,47
 0 141 0 141 0 145 c 256,6,7
EndSplineSet
Validated: 16385
EndChar

StartChar: noteheads.u1triangle
Encoding: 57651 57651 75
Width: 428
Flags: W
HStem: 7 51<345.588 427.173>
VStem: 76 60<-89 34.0162>
LayerCount: 2
Fore
SplineSet
104 71 m 257,0,1
 136 -4 136 -4 136 -89 c 257,2,3
 198 -27 198 -27 285 16 c 257,4,5
 187 33 187 33 104 71 c 257,0,1
0 145 m 256,6,7
 0 155 0 155 9.5 162 c 256,8,9
 19 169 19 169 33 169 c 256,10,11
 38 169 38 169 68 151.5 c 256,12,13
 98 134 98 134 138 113.5 c 256,14,15
 178 93 178 93 249.5 75.5 c 256,16,17
 321 58 321 58 398 58 c 256,18,19
 410 58 410 58 419 51 c 256,20,21
 428 44 428 44 428 34 c 256,22,23
 428 20 428 20 400 7 c 256,24,25
 372 -6 372 -6 330.5 -20.5 c 256,26,27
 289 -35 289 -35 230 -80 c 256,28,29
 171 -125 171 -125 122 -193 c 256,30,31
 116 -202 116 -202 100 -202 c 256,32,33
 87 -202 87 -202 77.5 -195 c 256,34,35
 68 -188 68 -188 68 -177 c 256,36,37
 68 -175 68 -175 70 -165 c 256,38,39
 72 -155 72 -155 74 -136.5 c 256,40,41
 76 -118 76 -118 76 -96 c 256,42,43
 76 -30 76 -30 57 25.5 c 256,44,45
 38 81 38 81 19 111 c 256,46,47
 0 141 0 141 0 145 c 256,6,7
EndSplineSet
Validated: 16385
EndChar

StartChar: noteheads.u2triangle
Encoding: 57652 57652 76
Width: 356
Flags: W
VStem: 56 300<-55.1777 57.9359>
LayerCount: 2
Fore
SplineSet
56 -177 m 256,0,1
 56 -175 56 -175 57.5 -164.5 c 256,2,3
 59 -154 59 -154 61 -135.5 c 256,4,5
 63 -117 63 -117 63 -95 c 256,6,7
 63 -32 63 -32 47.5 23 c 256,8,9
 32 78 32 78 16 108.5 c 256,10,11
 0 139 0 139 0 143 c 256,12,13
 0 153 0 153 7 161 c 256,14,15
 14 169 14 169 26 169 c 256,16,17
 31 169 31 169 56.5 151.5 c 256,18,19
 82 134 82 134 115 113.5 c 256,20,21
 148 93 148 93 207.5 75.5 c 256,22,23
 267 58 267 58 332 58 c 256,24,25
 342 58 342 58 349 50.5 c 256,26,27
 356 43 356 43 356 33 c 256,28,29
 356 18 356 18 341.5 10.5 c 256,30,31
 327 3 327 3 286.5 -16.5 c 256,32,33
 246 -36 246 -36 205 -71 c 256,34,35
 173 -98 173 -98 150 -125 c 256,36,37
 127 -152 127 -152 119 -167 c 256,38,39
 111 -182 111 -182 101.5 -192 c 256,40,41
 92 -202 92 -202 82 -202 c 256,42,43
 71 -202 71 -202 63.5 -194.5 c 256,44,45
 56 -187 56 -187 56 -177 c 256,0,1
EndSplineSet
Validated: 1
EndChar

StartChar: noteheads.d2triangle
Encoding: 57653 57653 77
Width: 356
Flags: W
VStem: 56 300<-55.1777 57.9359>
LayerCount: 2
Fore
SplineSet
56 -177 m 256,0,1
 56 -175 56 -175 57.5 -164.5 c 256,2,3
 59 -154 59 -154 61 -135.5 c 256,4,5
 63 -117 63 -117 63 -95 c 256,6,7
 63 -32 63 -32 47.5 23 c 256,8,9
 32 78 32 78 16 108.5 c 256,10,11
 0 139 0 139 0 143 c 256,12,13
 0 153 0 153 7 161 c 256,14,15
 14 169 14 169 26 169 c 256,16,17
 31 169 31 169 56.5 151.5 c 256,18,19
 82 134 82 134 115 113.5 c 256,20,21
 148 93 148 93 207.5 75.5 c 256,22,23
 267 58 267 58 332 58 c 256,24,25
 342 58 342 58 349 50.5 c 256,26,27
 356 43 356 43 356 33 c 256,28,29
 356 18 356 18 341.5 10.5 c 256,30,31
 327 3 327 3 286.5 -16.5 c 256,32,33
 246 -36 246 -36 205 -71 c 256,34,35
 173 -98 173 -98 150 -125 c 256,36,37
 127 -152 127 -152 119 -167 c 256,38,39
 111 -182 111 -182 101.5 -192 c 256,40,41
 92 -202 92 -202 82 -202 c 256,42,43
 71 -202 71 -202 63.5 -194.5 c 256,44,45
 56 -187 56 -187 56 -177 c 256,0,1
EndSplineSet
Validated: 1
EndChar

StartChar: noteheads.s0slash
Encoding: 57654 57654 78
Width: 773
Flags: W
HStem: -269 71<120 411> 198 71<360 652>
DStem2: 1 -253 120 -198 0.521517 0.853241<108.989 572.036> 411 -198 455 -264 0.520314 0.853975<0 463.57>
LayerCount: 2
Fore
SplineSet
120 -198 m 257,0,-1
 411 -198 l 257,1,-1
 652 198 l 257,2,-1
 360 198 l 257,3,-1
 120 -198 l 257,0,-1
10 -269 m 258,4,5
 0 -269 0 -269 0 -258 c 256,6,7
 0 -255 0 -255 1 -253 c 258,8,-1
 317 264 l 258,9,10
 320 269 320 269 327 269 c 258,11,-1
 762 269 l 258,12,13
 772 269 772 269 772 258 c 256,14,15
 772 257 772 257 770 253 c 258,16,-1
 455 -264 l 258,17,18
 452 -269 452 -269 445 -269 c 258,19,-1
 10 -269 l 258,4,5
EndSplineSet
Validated: 16385
EndChar

StartChar: noteheads.s1slash
Encoding: 57655 57655 79
Width: 601
Flags: W
HStem: -269 71<120 240> 198 71<360 480>
DStem2: 1 -253 120 -198 0.521517 0.853241<108.989 572.036> 240 -198 283 -264 0.521517 0.853241<0 463.047>
LayerCount: 2
Fore
SplineSet
120 -198 m 257,0,-1
 240 -198 l 257,1,-1
 480 198 l 257,2,-1
 360 198 l 257,3,-1
 120 -198 l 257,0,-1
10 -269 m 258,4,5
 0 -269 0 -269 0 -258 c 256,6,7
 0 -255 0 -255 1 -253 c 258,8,-1
 317 264 l 258,9,10
 320 269 320 269 327 269 c 258,11,-1
 590 269 l 258,12,13
 600 269 600 269 600 258 c 256,14,15
 600 255 600 255 599 253 c 258,16,-1
 283 -264 l 258,17,18
 280 -269 280 -269 273 -269 c 258,19,-1
 10 -269 l 258,4,5
EndSplineSet
Validated: 16385
EndChar

StartChar: noteheads.s2slash
Encoding: 57656 57656 80
Width: 439
Flags: W
DStem2: 1 -253 122 -264 0.521517 0.853241<34.6862 625.38>
LayerCount: 2
Fore
SplineSet
10 -269 m 258,0,1
 0 -269 0 -269 0 -258 c 256,2,3
 0 -255 0 -255 1 -253 c 258,4,-1
 317 264 l 258,5,6
 320 269 320 269 327 269 c 258,7,-1
 429 269 l 258,8,9
 439 269 439 269 439 258 c 256,10,11
 439 257 439 257 437 253 c 258,12,-1
 122 -264 l 258,13,14
 119 -269 119 -269 113 -269 c 258,15,-1
 10 -269 l 258,0,1
EndSplineSet
Validated: 16385
EndChar

StartChar: noteheads.s0cross
Encoding: 57657 57657 81
Width: 439
Flags: W
HStem: -77 34<203 237> 43 34<203 237>
VStem: 106 44<-22 22> 290 43<-21.5 21.5>
DStem2: 7 93 43 80 0.826022 0.563638<22.4095 92.8643> 43 80 7 68 0.827688 -0.561188<0 97.0394 234.607 356.406> 7 -68 43 -80 0.827688 0.561188<23.0625 120.102 257.67 379.468> 43 -80 7 -93 0.826022 -0.563638<0 70.4548> 110 151 101 120 0.826879 -0.56238<9.99188 132.573 269.313 366.397> 101 -120 110 -151 0.826879 0.56238<0 122.581 259.322 356.405> 347 151 338 120 0.826022 -0.563638<10.0386 80.4934> 338 -120 347 -151 0.826022 0.563638<0 70.4548>
LayerCount: 2
Fore
SplineSet
228 45 m 258,0,1
 225 43 225 43 220 43 c 256,2,3
 215 43 215 43 212 45 c 258,4,-1
 101 120 l 257,5,-1
 43 80 l 257,6,-1
 142 12 l 258,7,8
 150 6 150 6 150 0 c 256,9,10
 150 -6 150 -6 142 -12 c 258,11,-1
 43 -80 l 257,12,-1
 101 -120 l 257,13,-1
 212 -45 l 258,14,15
 215 -43 215 -43 220 -43 c 256,16,17
 225 -43 225 -43 228 -45 c 258,18,-1
 338 -120 l 257,19,-1
 396 -80 l 257,20,-1
 298 -12 l 258,21,22
 290 -6 290 -6 290 0 c 256,23,24
 290 6 290 6 298 12 c 258,25,-1
 396 80 l 257,26,-1
 338 120 l 257,27,-1
 228 45 l 258,0,1
220 77 m 257,28,-1
 330 151 l 258,29,30
 333 154 333 154 338 154 c 256,31,32
 344 154 344 154 347 151 c 258,33,-1
 432 93 l 258,34,35
 439 88 439 88 439 80 c 256,36,37
 439 73 439 73 432 68 c 258,38,-1
 333 0 l 257,39,-1
 432 -68 l 258,40,41
 439 -73 439 -73 439 -80 c 256,42,43
 439 -88 439 -88 432 -93 c 258,44,-1
 347 -151 l 258,45,46
 344 -154 344 -154 338 -154 c 256,47,48
 333 -154 333 -154 330 -151 c 258,49,-1
 220 -77 l 257,50,-1
 110 -151 l 258,51,52
 107 -154 107 -154 101 -154 c 256,53,54
 95 -154 95 -154 92 -151 c 258,55,-1
 7 -93 l 258,56,57
 0 -88 0 -88 0 -80 c 256,58,59
 0 -73 0 -73 7 -68 c 258,60,-1
 106 0 l 257,61,-1
 7 68 l 258,62,63
 0 73 0 73 0 80 c 256,64,65
 0 88 0 88 7 93 c 258,66,-1
 92 151 l 258,67,68
 95 154 95 154 101 154 c 256,69,70
 106 154 106 154 110 151 c 258,71,-1
 220 77 l 257,28,-1
EndSplineSet
Validated: 16385
EndChar

StartChar: noteheads.s1cross
Encoding: 57658 57658 82
Width: 388
Flags: W
HStem: -67 34<177 211> 33 34<177 211>
VStem: 103 41<-20.5 20.5> 244 41<-20.5 20.5>
DStem2: 6 96 41 84 0.804433 0.594043<21.0266 69.6268> 41 84 6 72 0.804918 -0.593386<0 99.7494 212.754 331.81> 6 -72 41 -84 0.804918 0.593386<21.0515 120.801 233.805 352.862> 41 -84 6 -96 0.804433 -0.594043<0 48.6001> 89 144 80 113 0.804918 -0.593386<11.1507 130.207 243.212 342.961> 80 -113 89 -144 0.804918 0.593386<0 119.056 232.061 331.81> 317 144 308 113 0.804433 -0.594043<11.1754 59.7756> 308 -113 317 -144 0.804433 0.594043<0 48.6001>
LayerCount: 2
Fore
SplineSet
203 36 m 258,0,1
 199 33 199 33 194 33 c 256,2,3
 189 33 189 33 185 36 c 258,4,-1
 80 113 l 257,5,-1
 41 84 l 257,6,-1
 138 12 l 258,7,8
 144 6 144 6 144 0 c 256,9,10
 144 -6 144 -6 138 -12 c 258,11,-1
 41 -84 l 257,12,-1
 80 -113 l 257,13,-1
 185 -36 l 258,14,15
 189 -33 189 -33 194 -33 c 256,16,17
 199 -33 199 -33 203 -36 c 258,18,-1
 308 -113 l 257,19,-1
 347 -84 l 257,20,-1
 250 -12 l 258,21,22
 244 -6 244 -6 244 0 c 256,23,24
 244 6 244 6 250 12 c 258,25,-1
 347 84 l 257,26,-1
 308 113 l 257,27,-1
 203 36 l 258,0,1
194 67 m 257,28,-1
 299 144 l 258,29,30
 303.091 147 303.091 147 308 147 c 256,31,32
 312.938 147 312.938 147 317 144 c 258,33,-1
 382 96 l 258,34,35
 388 91.5692 388 91.5692 388 84 c 256,36,37
 388 76.4536 388 76.4536 382 72 c 258,38,-1
 285 0 l 257,39,-1
 382 -72 l 258,40,41
 388 -76.4536 388 -76.4536 388 -84 c 256,42,43
 388 -91.5692 388 -91.5692 382 -96 c 258,44,-1
 317 -144 l 258,45,46
 312.938 -147 312.938 -147 308 -147 c 256,47,48
 303.091 -147 303.091 -147 299 -144 c 258,49,-1
 194 -67 l 257,50,-1
 89 -144 l 258,51,52
 84.9091 -147 84.9091 -147 80 -147 c 256,53,54
 75.0625 -147 75.0625 -147 71 -144 c 258,55,-1
 6 -96 l 258,56,57
 0 -91.5692 0 -91.5692 0 -84 c 256,58,59
 0 -76.4536 0 -76.4536 6 -72 c 258,60,-1
 103 0 l 257,61,-1
 6 72 l 258,62,63
 0 76.4536 0 76.4536 0 84 c 256,64,65
 0 91.5692 0 91.5692 6 96 c 258,66,-1
 71 144 l 258,67,68
 75.0625 147 75.0625 147 80 147 c 256,69,70
 84.9091 147 84.9091 147 89 144 c 258,71,-1
 194 67 l 257,28,-1
EndSplineSet
Validated: 16385
EndChar

StartChar: noteheads.s2cross
Encoding: 57659 57659 83
Width: 336
Flags: W
HStem: -141 282<32 39 298 305>
VStem: 124 89<-44.5 44.5>
DStem2: 169 37 5 97 0.775039 -0.631913<-168.725 -11.496 57.4825 214.712> 5 -97 45 -137 0.775039 0.631913<-3.70413 153.525 222.504 379.733>
LayerCount: 2
Fore
SplineSet
169 37 m 257,0,-1
 292 137 l 258,1,2
 298 141 298 141 301 141 c 256,3,4
 305 141 305 141 311 137 c 258,5,-1
 332 121 l 258,6,7
 337 116 337 116 337 109 c 256,8,9
 337 103 337 103 332 97 c 258,10,-1
 213 0 l 257,11,-1
 332 -97 l 258,12,13
 337 -102 337 -102 337 -109 c 256,14,15
 337 -116 337 -116 332 -121 c 258,16,-1
 311 -137 l 258,17,18
 305 -141 305 -141 301 -141 c 256,19,20
 298 -141 298 -141 292 -137 c 258,21,-1
 169 -37 l 257,22,-1
 45 -137 l 258,23,24
 39 -141 39 -141 36 -141 c 256,25,26
 32 -141 32 -141 26 -137 c 258,27,-1
 5 -121 l 258,28,29
 0 -116 0 -116 0 -109 c 256,30,31
 0 -103 0 -103 5 -97 c 258,32,-1
 124 0 l 257,33,-1
 5 97 l 258,34,35
 0 102 0 102 0 109 c 256,36,37
 0 116 0 116 5 121 c 258,38,-1
 26 137 l 258,39,40
 32 141 32 141 36 141 c 256,41,42
 39 141 39 141 45 137 c 258,43,-1
 169 37 l 257,0,-1
EndSplineSet
Validated: 16385
EndChar

StartChar: noteheads.s2xcircle
Encoding: 57660 57660 84
Width: 400
Flags: W
HStem: -177 38<119.059 281.821> 139 38<119.059 281.668>
VStem: 0 37<-62.7466 62.7466> 172 56<-28 28> 364 36<-63.9496 63.9496>
DStem2: 101 111 73 87 0.755033 -0.655687<0 126.389 168.67 295.059> 73 -87 101 -111 0.755033 0.655687<5.40445 131.793 174.075 300.463>
LayerCount: 2
Fore
SplineSet
201 177 m 256,0,1
 283 177 283 177 341.5 125.5 c 256,2,3
 400 74 400 74 400 0 c 256,4,5
 400 -74 400 -74 341.5 -125.5 c 256,6,7
 283 -177 283 -177 201 -177 c 256,8,9
 118 -177 118 -177 59 -125.5 c 256,10,11
 0 -74 0 -74 0 0 c 256,12,13
 0 74 0 74 59 125.5 c 256,14,15
 118 177 118 177 201 177 c 256,0,1
201 25 m 257,16,-1
 299 111 l 257,17,18
 254 139 254 139 201 139 c 256,19,20
 147 139 147 139 101 111 c 257,21,-1
 201 25 l 257,16,-1
172 0 m 257,22,-1
 73 87 l 257,23,24
 37 48 37 48 37 0 c 256,25,26
 37 -48 37 -48 73 -87 c 257,27,-1
 172 0 l 257,22,-1
228 0 m 257,28,-1
 329 -87 l 257,29,30
 364 -49 364 -49 364 0 c 256,31,32
 364 49 364 49 329 87 c 257,33,-1
 228 0 l 257,28,-1
201 -25 m 257,34,-1
 101 -111 l 257,35,36
 147 -139 147 -139 201 -139 c 256,37,38
 255 -139 255 -139 299 -111 c 257,39,-1
 201 -25 l 257,34,-1
EndSplineSet
Validated: 16385
EndChar

StartChar: noteheads.s0do
Encoding: 57661 57661 85
Width: 506
Flags: W
HStem: -115 44<86 421>
DStem2: 8 -76 86 -71 0.778572 0.627556<63.8664 280.014> 267 111 254 65 0.778572 -0.627556<18.7461 234.115>
LayerCount: 2
Fore
SplineSet
86 -71 m 257,0,-1
 421 -71 l 257,1,-1
 254 65 l 257,2,-1
 86 -71 l 257,0,-1
23 -115 m 258,3,4
 14 -115 14 -115 7 -108.5 c 256,5,6
 0 -102 0 -102 0 -93 c 256,7,8
 0 -82 0 -82 8 -76 c 258,9,-1
 240 111 l 258,10,11
 245 115 245 115 254 115 c 256,12,13
 262 115 262 115 267 111 c 258,14,-1
 499 -76 l 258,15,16
 507 -82 507 -82 507 -93 c 256,17,18
 507 -102 507 -102 500.5 -108.5 c 256,19,20
 494 -115 494 -115 484 -115 c 258,21,-1
 23 -115 l 258,3,4
EndSplineSet
Validated: 16385
EndChar

StartChar: noteheads.d1do
Encoding: 57662 57662 86
Width: 355
Flags: W
HStem: -115 44<71 286>
DStem2: 5 -79 71 -71 0.640588 0.767885<48.4219 216.022> 196 108 178 58 0.635707 -0.77193<27.1538 195.389>
LayerCount: 2
Fore
SplineSet
71 -71 m 257,0,-1
 286 -71 l 257,1,-1
 178 58 l 257,2,-1
 71 -71 l 257,0,-1
23 -115 m 258,3,4
 14 -115 14 -115 7 -108.5 c 256,5,6
 0 -102 0 -102 0 -93 c 256,7,8
 0 -86 0 -86 5 -79 c 258,9,-1
 161 108 l 258,10,11
 167 116 167 116 178 116 c 256,12,13
 189 116 189 116 196 108 c 258,14,-1
 350 -79 l 258,15,16
 355 -86 355 -86 355 -93 c 256,17,18
 355 -102 355 -102 349 -108.5 c 256,19,20
 343 -115 343 -115 334 -115 c 258,21,-1
 23 -115 l 258,3,4
EndSplineSet
Validated: 16385
EndChar

StartChar: noteheads.u1do
Encoding: 57663 57663 87
Width: 355
Flags: W
HStem: -115 44<71 286>
DStem2: 5 -79 71 -71 0.640588 0.767885<48.4219 216.022> 196 108 178 58 0.635707 -0.77193<27.1538 195.389>
LayerCount: 2
Fore
SplineSet
71 -71 m 257,0,-1
 286 -71 l 257,1,-1
 178 58 l 257,2,-1
 71 -71 l 257,0,-1
23 -115 m 258,3,4
 14 -115 14 -115 7 -108.5 c 256,5,6
 0 -102 0 -102 0 -93 c 256,7,8
 0 -86 0 -86 5 -79 c 258,9,-1
 161 108 l 258,10,11
 167 116 167 116 178 116 c 256,12,13
 189 116 189 116 196 108 c 258,14,-1
 350 -79 l 258,15,16
 355 -86 355 -86 355 -93 c 256,17,18
 355 -102 355 -102 349 -108.5 c 256,19,20
 343 -115 343 -115 334 -115 c 258,21,-1
 23 -115 l 258,3,4
EndSplineSet
Validated: 16385
EndChar

StartChar: noteheads.d2do
Encoding: 57664 57664 88
Width: 336
Flags: W
HStem: -115 231<141.875 196.062>
VStem: 0 337<-108.296 -58.7656>
LayerCount: 2
Fore
SplineSet
23 -115 m 258,0,1
 14 -115 14 -115 7 -108.5 c 256,2,3
 0 -102 0 -102 0 -93 c 256,4,5
 0 -85.3356 0 -85.3356 5 -79 c 258,6,-1
 151 106 l 258,7,8
 159 116 159 116 169 116 c 256,9,10
 179 116 179 116 187 106 c 258,11,-1
 332 -79 l 258,12,13
 337 -85.3793 337 -85.3793 337 -93 c 256,14,15
 337 -102 337 -102 330.5 -108.5 c 256,16,17
 324 -115 324 -115 314 -115 c 258,18,-1
 23 -115 l 258,0,1
EndSplineSet
Validated: 1
EndChar

StartChar: noteheads.u2do
Encoding: 57665 57665 89
Width: 336
Flags: W
HStem: -115 231<141.875 196.062>
VStem: 0 337<-108.296 -58.7656>
LayerCount: 2
Fore
SplineSet
23 -115 m 258,0,1
 14 -115 14 -115 7 -108.5 c 256,2,3
 0 -102 0 -102 0 -93 c 256,4,5
 0 -85.3356 0 -85.3356 5 -79 c 258,6,-1
 151 106 l 258,7,8
 159 116 159 116 169 116 c 256,9,10
 179 116 179 116 187 106 c 258,11,-1
 332 -79 l 258,12,13
 337 -85.3793 337 -85.3793 337 -93 c 256,14,15
 337 -102 337 -102 330.5 -108.5 c 256,16,17
 324 -115 324 -115 314 -115 c 258,18,-1
 23 -115 l 258,0,1
EndSplineSet
Validated: 1
EndChar

StartChar: noteheads.s0re
Encoding: 57666 57666 90
Width: 506
Flags: W
HStem: -115 44<114.583 392.943> 71 44<45 462>
VStem: 0 45<-19.9531 71> 462 45<-22.2266 71>
LayerCount: 2
Fore
SplineSet
45 71 m 257,0,-1
 45 37 l 258,1,2
 45 -71 45 -71 254 -71 c 256,3,4
 462 -71 462 -71 462 37 c 258,5,-1
 462 71 l 257,6,-1
 45 71 l 257,0,-1
0 93 m 258,7,8
 0 102 0 102 6.5 108.5 c 256,9,10
 13 115 13 115 23 115 c 258,11,-1
 484 115 l 258,12,13
 493 115 493 115 500 108.5 c 256,14,15
 507 102 507 102 507 93 c 258,16,-1
 507 37 l 258,17,18
 507 -39 507 -39 432.5 -77 c 256,19,20
 358 -115 358 -115 254 -115 c 256,21,22
 150 -115 150 -115 75 -77 c 256,23,24
 0 -39 0 -39 0 37 c 258,25,-1
 0 93 l 258,7,8
EndSplineSet
Validated: 16385
EndChar

StartChar: noteheads.u1re
Encoding: 57667 57667 91
Width: 355
Flags: W
HStem: -115 44<97.8687 258.986> 71 44<45 311>
VStem: 0 45<-23.25 71> 311 44<-23.1327 71>
LayerCount: 2
Fore
SplineSet
45 71 m 257,0,-1
 45 37 l 258,1,2
 45 -10 45 -10 84.5 -40.5 c 256,3,4
 124 -71 124 -71 178 -71 c 256,5,6
 232 -71 232 -71 271.5 -40.5 c 256,7,8
 311 -10 311 -10 311 37 c 258,9,-1
 311 71 l 257,10,-1
 45 71 l 257,0,-1
0 93 m 258,11,12
 0 102 0 102 6.5 108.5 c 256,13,14
 13 115 13 115 23 115 c 258,15,-1
 334 115 l 258,16,17
 343 115 343 115 349 108.5 c 256,18,19
 355 102 355 102 355 93 c 258,20,-1
 355 37 l 258,21,22
 355 -29 355 -29 303 -72 c 256,23,24
 251 -115 251 -115 178 -115 c 256,25,26
 105 -115 105 -115 52.5 -72 c 256,27,28
 0 -29 0 -29 0 37 c 258,29,-1
 0 93 l 258,11,12
EndSplineSet
Validated: 16385
EndChar

StartChar: noteheads.d1re
Encoding: 57668 57668 92
Width: 355
Flags: W
HStem: -115 44<97.8687 258.986> 71 44<45 311>
VStem: 0 45<-23.25 71> 311 44<-23.1327 71>
LayerCount: 2
Fore
SplineSet
45 71 m 257,0,-1
 45 37 l 258,1,2
 45 -10 45 -10 84.5 -40.5 c 256,3,4
 124 -71 124 -71 178 -71 c 256,5,6
 232 -71 232 -71 271.5 -40.5 c 256,7,8
 311 -10 311 -10 311 37 c 258,9,-1
 311 71 l 257,10,-1
 45 71 l 257,0,-1
0 93 m 258,11,12
 0 102 0 102 6.5 108.5 c 256,13,14
 13 115 13 115 23 115 c 258,15,-1
 334 115 l 258,16,17
 343 115 343 115 349 108.5 c 256,18,19
 355 102 355 102 355 93 c 258,20,-1
 355 37 l 258,21,22
 355 -29 355 -29 303 -72 c 256,23,24
 251 -115 251 -115 178 -115 c 256,25,26
 105 -115 105 -115 52.5 -72 c 256,27,28
 0 -29 0 -29 0 37 c 258,29,-1
 0 93 l 258,11,12
EndSplineSet
Validated: 16385
EndChar

StartChar: noteheads.u2re
Encoding: 57669 57669 93
Width: 336
Flags: W
HStem: -115 230<79.6279 258.114>
VStem: 0 337<-39.0532 108.296>
LayerCount: 2
Fore
SplineSet
0 93 m 258,0,1
 0 102 0 102 6.5 108.5 c 256,2,3
 13 115 13 115 23 115 c 258,4,-1
 314 115 l 258,5,6
 323 115 323 115 330 108.5 c 256,7,8
 337 102 337 102 337 93 c 258,9,-1
 337 37 l 258,10,11
 337 -28 337 -28 287.5 -71.5 c 256,12,13
 238 -115 238 -115 169 -115 c 256,14,15
 100 -115 100 -115 50 -71.5 c 256,16,17
 0 -28 0 -28 0 37 c 258,18,-1
 0 93 l 258,0,1
EndSplineSet
Validated: 1
EndChar

StartChar: noteheads.d2re
Encoding: 57670 57670 94
Width: 336
Flags: W
HStem: -115 230<79.6279 258.114>
VStem: 0 337<-39.0532 108.296>
LayerCount: 2
Fore
SplineSet
0 93 m 258,0,1
 0 102 0 102 6.5 108.5 c 256,2,3
 13 115 13 115 23 115 c 258,4,-1
 314 115 l 258,5,6
 323 115 323 115 330 108.5 c 256,7,8
 337 102 337 102 337 93 c 258,9,-1
 337 37 l 258,10,11
 337 -28 337 -28 287.5 -71.5 c 256,12,13
 238 -115 238 -115 169 -115 c 256,14,15
 100 -115 100 -115 50 -71.5 c 256,16,17
 0 -28 0 -28 0 37 c 258,18,-1
 0 93 l 258,0,1
EndSplineSet
Validated: 1
EndChar

StartChar: noteheads.s0mi
Encoding: 57671 57671 95
Width: 506
Flags: MW
DStem2: 14 20 97 6 0.926248 0.376915<71.6018 224.236> 97 6 14 -20 0.926248 -0.376915<0 184.019> 493 20 239 62 0.926248 -0.376915<-251.097 -67.0788> 268 -62 262 -114 0.926248 0.376915<0 152.634>
LayerCount: 2
Fore
SplineSet
97 6 m 257,0,-1
 268 -62 l 257,1,-1
 410 -6 l 257,2,-1
 239 62 l 257,3,-1
 97 6 l 257,0,-1
14 -20 m 258,4,5
 0 -15 0 -15 0 0 c 256,6,7
 0 15 0 15 14 20 c 258,8,-1
 245 114 l 258,9,10
 248 115 248 115 254 115 c 256,11,12
 259 115 259 115 262 114 c 258,13,-1
 493 20 l 258,14,15
 507 15 507 15 507 0 c 256,16,17
 507 -15 507 -15 493 -20 c 258,18,-1
 262 -114 l 258,19,20
 259 -115 259 -115 254 -115 c 256,21,22
 248 -115 248 -115 245 -114 c 258,23,-1
 14 -20 l 258,4,5
EndSplineSet
Validated: 16385
EndChar

StartChar: noteheads.s1mi
Encoding: 57672 57672 96
Width: 336
Flags: MW
DStem2: 10 18 75 6 0.84248 0.538728<48.2964 146.775> 75 6 10 -18 0.84248 -0.538728<0 122.635> 180 112 158 59 0.84248 -0.538728<10.0181 132.653> 179 -59 180 -112 0.84248 0.538728<0 98.4784>
LayerCount: 2
Fore
SplineSet
75 6 m 257,0,-1
 179 -59 l 257,1,-1
 262 -6 l 257,2,-1
 158 59 l 257,3,-1
 75 6 l 257,0,-1
10 -18 m 258,4,5
 0 -11 0 -11 0 0 c 256,6,7
 0 11 0 11 10 18 c 258,8,-1
 157 112 l 258,9,10
 163 115 163 115 169 115 c 256,11,12
 174 115 174 115 180 112 c 258,13,-1
 327 18 l 258,14,15
 337 11 337 11 337 0 c 256,16,17
 337 -11 337 -11 327 -18 c 258,18,-1
 180 -112 l 258,19,20
 174 -115 174 -115 169 -115 c 256,21,22
 163 -115 163 -115 157 -112 c 258,23,-1
 10 -18 l 258,4,5
EndSplineSet
Validated: 16385
EndChar

StartChar: noteheads.s2mi
Encoding: 57673 57673 97
Width: 336
Flags: W
HStem: -115 230<127.141 209.859>
VStem: 0 337<-25.3438 25.3438>
LayerCount: 2
Fore
SplineSet
10 -18 m 258,0,1
 0 -11 0 -11 0 0 c 256,2,3
 0 11 0 11 10 18 c 258,4,-1
 157 112 l 258,5,6
 163 115 163 115 169 115 c 256,7,8
 174 115 174 115 180 112 c 258,9,-1
 327 18 l 258,10,11
 337 11 337 11 337 0 c 256,12,13
 337 -11 337 -11 327 -18 c 258,14,-1
 180 -112 l 258,15,16
 174 -115 174 -115 169 -115 c 256,17,18
 163 -115 163 -115 157 -112 c 258,19,-1
 10 -18 l 258,0,1
EndSplineSet
Validated: 1
EndChar

StartChar: noteheads.u0fa
Encoding: 57674 57674 98
Width: 506
Flags: W
HStem: 71 44<6.70398 14 138 462>
VStem: 462 45<-59 71>
DStem2: 138 71 14 72 0.927644 -0.373467<0 349.107>
LayerCount: 2
Fore
SplineSet
138 71 m 257,0,-1
 462 -59 l 257,1,-1
 462 71 l 257,2,-1
 138 71 l 257,0,-1
0 93 m 256,3,4
 0 102 0 102 6.5 108.5 c 256,5,6
 13 115 13 115 23 115 c 258,7,-1
 484 115 l 258,8,9
 493 115 493 115 500 108.5 c 256,10,11
 507 102 507 102 507 93 c 258,12,-1
 507 -93 l 258,13,14
 507 -102 507 -102 500.5 -108.5 c 256,15,16
 494 -115 494 -115 484 -115 c 256,17,18
 479 -115 479 -115 476 -114 c 258,19,-1
 14 72 l 258,20,21
 0 77 0 77 0 93 c 256,3,4
EndSplineSet
Validated: 16385
EndChar

StartChar: noteheads.d0fa
Encoding: 57675 57675 99
Width: 506
Flags: W
HStem: -115 44<45 369 493 500.296>
VStem: 0 45<-71 59>
DStem2: 31 114 45 59 0.927644 -0.373467<33.5277 382.635>
LayerCount: 2
Fore
SplineSet
369 -71 m 257,0,-1
 45 59 l 257,1,-1
 45 -71 l 257,2,-1
 369 -71 l 257,0,-1
507 -93 m 256,3,4
 507 -102 507 -102 500.5 -108.5 c 256,5,6
 494 -115 494 -115 484 -115 c 258,7,-1
 23 -115 l 258,8,9
 14 -115 14 -115 7 -108.5 c 256,10,11
 0 -102 0 -102 0 -93 c 258,12,-1
 0 93 l 258,13,14
 0 102 0 102 6.5 108.5 c 256,15,16
 13 115 13 115 23 115 c 256,17,18
 28 115 28 115 31 114 c 258,19,-1
 493 -72 l 258,20,21
 507 -77 507 -77 507 -93 c 256,3,4
EndSplineSet
Validated: 16385
EndChar

StartChar: noteheads.u1fa
Encoding: 57676 57676 100
Width: 355
Flags: W
HStem: 71 44<103 311>
VStem: 311 44<-53 71>
DStem2: 103 71 11 74 0.858223 -0.513278<0 242.157>
LayerCount: 2
Fore
SplineSet
103 71 m 257,0,-1
 311 -53 l 257,1,-1
 311 71 l 257,2,-1
 103 71 l 257,0,-1
0 93 m 256,3,4
 0 102 0 102 6.5 108.5 c 256,5,6
 13 115 13 115 23 115 c 258,7,-1
 334 115 l 258,8,9
 343 115 343 115 349 108.5 c 256,10,11
 355 102 355 102 355 93 c 258,12,-1
 355 -93 l 258,13,14
 355 -102 355 -102 349 -108.5 c 256,15,16
 343 -115 343 -115 334 -115 c 256,17,18
 326 -115 326 -115 322 -112 c 258,19,-1
 11 74 l 258,20,21
 0 80 0 80 0 93 c 256,3,4
EndSplineSet
Validated: 16385
EndChar

StartChar: noteheads.d1fa
Encoding: 57677 57677 101
Width: 355
Flags: W
HStem: -115 44<45 252>
VStem: 0 45<-71 53>
DStem2: 40 108 45 53 0.858753 -0.512389<32.4752 273.773>
LayerCount: 2
Fore
SplineSet
252 -71 m 257,0,-1
 45 53 l 257,1,-1
 45 -71 l 257,2,-1
 252 -71 l 257,0,-1
355 -91 m 256,3,4
 355 -102 355 -102 349 -108.5 c 256,5,6
 343 -115 343 -115 334 -115 c 258,7,-1
 23 -115 l 258,8,9
 14 -115 14 -115 7 -108.5 c 256,10,11
 0 -102 0 -102 0 -93 c 258,12,-1
 0 93 l 258,13,14
 0 102 0 102 6.5 108.5 c 256,15,16
 13 115 13 115 23 115 c 256,17,18
 28 115 28 115 40 108 c 258,19,-1
 340 -71 l 258,20,21
 355 -80 355 -80 355 -91 c 256,3,4
EndSplineSet
Validated: 16385
EndChar

StartChar: noteheads.u2fa
Encoding: 57678 57678 102
Width: 336
Flags: W
HStem: -115 230<274.625 330.296>
VStem: 0 337<68.1875 108.296>
LayerCount: 2
Fore
SplineSet
0 93 m 256,0,1
 0 102 0 102 6.5 108.5 c 256,2,3
 13 115 13 115 23 115 c 258,4,-1
 314 115 l 258,5,6
 323 115 323 115 330 108.5 c 256,7,8
 337 102 337 102 337 93 c 258,9,-1
 337 -93 l 258,10,11
 337 -102 337 -102 330.5 -108.5 c 256,12,13
 324 -115 324 -115 314 -115 c 256,14,15
 308 -115 308 -115 302 -112 c 258,16,-1
 10 74 l 258,17,18
 0 81 0 81 0 93 c 256,0,1
EndSplineSet
Validated: 1
EndChar

StartChar: noteheads.d2fa
Encoding: 57679 57679 103
Width: 336
Flags: W
HStem: -115 230<6.70398 62.375>
VStem: 0 337<-108.296 -68.1875>
LayerCount: 2
Fore
SplineSet
337 -93 m 256,0,1
 337 -102 337 -102 330.5 -108.5 c 256,2,3
 324 -115 324 -115 314 -115 c 258,4,-1
 23 -115 l 258,5,6
 14 -115 14 -115 7 -108.5 c 256,7,8
 0 -102 0 -102 0 -93 c 258,9,-1
 0 93 l 258,10,11
 0 102 0 102 6.5 108.5 c 256,12,13
 13 115 13 115 23 115 c 256,14,15
 29 115 29 115 35 112 c 258,16,-1
 327 -74 l 258,17,18
 337 -81 337 -81 337 -93 c 256,0,1
EndSplineSet
Validated: 1
EndChar

StartChar: noteheads.s0la
Encoding: 57680 57680 104
Width: 506
Flags: W
HStem: -115 44<45 462> 71 44<45 462>
VStem: 0 45<-71 71> 462 45<-71 71>
LayerCount: 2
Fore
SplineSet
45 71 m 257,0,-1
 45 -71 l 257,1,-1
 462 -71 l 257,2,-1
 462 71 l 257,3,-1
 45 71 l 257,0,-1
23 115 m 258,4,-1
 484 115 l 258,5,6
 493 115 493 115 500 108.5 c 256,7,8
 507 102 507 102 507 93 c 258,9,-1
 507 -93 l 258,10,11
 507 -102 507 -102 500.5 -108.5 c 256,12,13
 494 -115 494 -115 484 -115 c 258,14,-1
 23 -115 l 258,15,16
 14 -115 14 -115 7 -108.5 c 256,17,18
 0 -102 0 -102 0 -93 c 258,19,-1
 0 93 l 258,20,21
 0 102 0 102 7 108.5 c 256,22,23
 14 115 14 115 23 115 c 258,4,-1
EndSplineSet
Validated: 1
EndChar

StartChar: noteheads.s1la
Encoding: 57681 57681 105
Width: 355
Flags: W
HStem: -115 44<45 311> 71 44<45 311>
VStem: 0 45<-71 71> 311 44<-71 71>
LayerCount: 2
Fore
SplineSet
45 71 m 257,0,-1
 45 -71 l 257,1,-1
 311 -71 l 257,2,-1
 311 71 l 257,3,-1
 45 71 l 257,0,-1
23 115 m 258,4,-1
 334 115 l 258,5,6
 343 115 343 115 349 108.5 c 256,7,8
 355 102 355 102 355 93 c 258,9,-1
 355 -93 l 258,10,11
 355 -102 355 -102 349 -108.5 c 256,12,13
 343 -115 343 -115 334 -115 c 258,14,-1
 23 -115 l 258,15,16
 14 -115 14 -115 7 -108.5 c 256,17,18
 0 -102 0 -102 0 -93 c 258,19,-1
 0 93 l 258,20,21
 0 102 0 102 7 108.5 c 256,22,23
 14 115 14 115 23 115 c 258,4,-1
EndSplineSet
Validated: 1
EndChar

StartChar: noteheads.s2la
Encoding: 57682 57682 106
Width: 336
Flags: W
HStem: -115 230<7e-08 330.296>
VStem: 0 337<-108.296 114.994>
LayerCount: 2
Fore
SplineSet
23 115 m 258,0,-1
 314 115 l 258,1,2
 323 115 323 115 330 108.5 c 256,3,4
 337 102 337 102 337 93 c 258,5,-1
 337 -93 l 258,6,7
 337 -102 337 -102 330.5 -108.5 c 256,8,9
 324 -115 324 -115 314 -115 c 258,10,-1
 23 -115 l 258,11,12
 14 -115 14 -115 7 -108.5 c 256,13,14
 0 -102 0 -102 0 -93 c 258,15,-1
 0 93 l 258,16,17
 0 102 0 102 7 108.5 c 256,18,19
 14 115 14 115 23 115 c 258,0,-1
EndSplineSet
Validated: 1
EndChar

StartChar: noteheads.s0ti
Encoding: 57683 57683 107
Width: 506
Flags: W
HStem: 71 45<122.894 384.95>
DStem2: 70 27 12 6 0.889778 -0.456395<0 207.077> 254 -68 264 -113 0.888975 0.457957<0 206.188>
LayerCount: 2
Fore
SplineSet
254 -68 m 257,0,-1
 437 27 l 257,1,2
 349 71 349 71 254 71 c 256,3,4
 158 71 158 71 70 27 c 257,5,-1
 254 -68 l 257,0,-1
0 26 m 256,6,7
 0 51 0 51 83.5 83.5 c 256,8,9
 167 116 167 116 254 116 c 256,10,11
 382 116 382 116 495 46 c 256,12,13
 507 38 507 38 507 26 c 256,14,15
 507 12 507 12 495 6 c 258,16,-1
 264 -113 l 258,17,18
 261 -115 261 -115 254 -115 c 256,19,20
 247 -115 247 -115 244 -113 c 258,21,-1
 12 6 l 258,22,23
 0 12 0 12 0 26 c 256,6,7
EndSplineSet
Validated: 16385
EndChar

StartChar: noteheads.u1ti
Encoding: 57684 57684 108
Width: 355
Flags: W
HStem: -115 50<153 203> 71 44<89.3475 266.905>
DStem2: 57 28 9 8 0.793194 -0.608969<0 152.611> 178 -65 191 -111 0.795081 0.606504<0 152.61>
LayerCount: 2
Fore
SplineSet
178 -65 m 257,0,-1
 299 28 l 257,1,2
 247 71 247 71 178.5 71 c 256,3,4
 110 71 110 71 57 28 c 257,5,-1
 178 -65 l 257,0,-1
178 115 m 256,6,7
 225 115 225 115 268.5 96.5 c 256,8,9
 312 78 312 78 334 57 c 256,10,11
 356 36 356 36 356 25 c 256,12,13
 356 16 356 16 347 8 c 258,14,-1
 191 -111 l 258,15,16
 186 -115 186 -115 178 -115 c 256,17,18
 169 -115 169 -115 164 -111 c 258,19,-1
 9 8 l 258,20,21
 0 15 0 15 0 25 c 256,22,23
 0 37 0 37 22 57.5 c 256,24,25
 44 78 44 78 87.5 96.5 c 256,26,27
 131 115 131 115 178 115 c 256,6,7
EndSplineSet
Validated: 16385
EndChar

StartChar: noteheads.d1ti
Encoding: 57685 57685 109
Width: 355
Flags: W
HStem: -115 50<153 203> 71 44<89.3475 266.905>
DStem2: 57 28 9 8 0.793194 -0.608969<0 152.611> 178 -65 191 -111 0.795081 0.606504<0 152.61>
LayerCount: 2
Fore
SplineSet
178 -65 m 257,0,-1
 299 28 l 257,1,2
 247 71 247 71 178.5 71 c 256,3,4
 110 71 110 71 57 28 c 257,5,-1
 178 -65 l 257,0,-1
178 115 m 256,6,7
 225 115 225 115 268.5 96.5 c 256,8,9
 312 78 312 78 334 57 c 256,10,11
 356 36 356 36 356 25 c 256,12,13
 356 16 356 16 347 8 c 258,14,-1
 191 -111 l 258,15,16
 186 -115 186 -115 178 -115 c 256,17,18
 169 -115 169 -115 164 -111 c 258,19,-1
 9 8 l 258,20,21
 0 15 0 15 0 25 c 256,22,23
 0 37 0 37 22 57.5 c 256,24,25
 44 78 44 78 87.5 96.5 c 256,26,27
 131 115 131 115 178 115 c 256,6,7
EndSplineSet
Validated: 16385
EndChar

StartChar: noteheads.u2ti
Encoding: 57686 57686 110
Width: 336
Flags: W
HStem: -115 230<134.328 202.672>
VStem: 0 337<-3.15625 55.6973>
LayerCount: 2
Fore
SplineSet
169 115 m 256,0,1
 205 115 205 115 238 103.5 c 256,2,3
 271 92 271 92 291.5 76 c 256,4,5
 312 60 312 60 324.5 46 c 256,6,7
 337 32 337 32 337 25 c 256,8,9
 337 15 337 15 329 8 c 258,10,-1
 182 -111 l 258,11,12
 177 -115 177 -115 169 -115 c 256,13,14
 160 -115 160 -115 155 -111 c 258,15,-1
 8 8 l 258,16,17
 0 14 0 14 0 25 c 256,18,19
 0 36 0 36 20.5 57 c 256,20,21
 41 78 41 78 82.5 96.5 c 256,22,23
 124 115 124 115 169 115 c 256,0,1
EndSplineSet
Validated: 1
EndChar

StartChar: noteheads.d2ti
Encoding: 57687 57687 111
Width: 336
Flags: W
HStem: -115 230<134.328 202.672>
VStem: 0 337<-3.15625 55.6973>
LayerCount: 2
Fore
SplineSet
169 115 m 256,0,1
 205 115 205 115 238 103.5 c 256,2,3
 271 92 271 92 291.5 76 c 256,4,5
 312 60 312 60 324.5 46 c 256,6,7
 337 32 337 32 337 25 c 256,8,9
 337 15 337 15 329 8 c 258,10,-1
 182 -111 l 258,11,12
 177 -115 177 -115 169 -115 c 256,13,14
 160 -115 160 -115 155 -111 c 258,15,-1
 8 8 l 258,16,17
 0 14 0 14 0 25 c 256,18,19
 0 36 0 36 20.5 57 c 256,20,21
 41 78 41 78 82.5 96.5 c 256,22,23
 124 115 124 115 169 115 c 256,0,1
EndSplineSet
Validated: 1
EndChar

StartChar: scripts.ufermata
Encoding: 57688 57688 112
Width: 678
Flags: W
HStem: -18 138<291.627 388.373> 268 104<230.76 449.24>
VStem: 0 39<-13.2144 68.1152> 271 138<2.6272 99.3728> 641 39<-17.9824 68.1152>
CounterMasks: 1 38
LayerCount: 2
Fore
SplineSet
271 51 m 256,0,1
 271 80 271 80 291 100 c 256,2,3
 311 120 311 120 340 120 c 256,4,5
 369 120 369 120 389 100 c 256,6,7
 409 80 409 80 409 51 c 256,8,9
 409 22 409 22 389 2 c 256,10,11
 369 -18 369 -18 340 -18 c 256,12,13
 311 -18 311 -18 291 2 c 256,14,15
 271 22 271 22 271 51 c 256,0,1
340 372 m 256,16,17
 402 372 402 372 456.5 346.5 c 256,18,19
 511 321 511 321 546.5 281 c 256,20,21
 582 241 582 241 609 196 c 256,22,23
 636 151 636 151 651 107 c 256,24,25
 666 63 666 63 673 35 c 256,26,27
 680 7 680 7 680 -3 c 256,28,29
 680 -9 680 -9 674 -13.5 c 256,30,31
 668 -18 668 -18 661 -18 c 256,32,33
 645 -18 645 -18 641 0 c 256,34,35
 621 115 621 115 537 191.5 c 256,36,37
 453 268 453 268 340 268 c 256,38,39
 227 268 227 268 143 191.5 c 256,40,41
 59 115 59 115 39 0 c 256,42,43
 36 -18 36 -18 19 -18 c 256,44,45
 12 -18 12 -18 6 -13.5 c 256,46,47
 0 -9 0 -9 0 -3 c 256,48,49
 0 7 0 7 7 35 c 256,50,51
 14 63 14 63 29 107 c 256,52,53
 44 151 44 151 71 196 c 256,54,55
 98 241 98 241 133.5 281 c 256,56,57
 169 321 169 321 223.5 346.5 c 256,58,59
 278 372 278 372 340 372 c 256,16,17
EndSplineSet
Validated: 16385
EndChar

StartChar: scripts.dfermata
Encoding: 57689 57689 113
Width: 678
VWidth: 1396
Flags: W
HStem: 0 104<230.76 449.24> 252 138<291.627 388.373>
VStem: 0 39<303.885 385.214> 271 138<272.627 369.373> 641 39<303.885 389.996>
CounterMasks: 1 38
LayerCount: 2
Fore
SplineSet
271 321 m 256,0,1
 271 350 271 350 291 370 c 256,2,3
 311 390 311 390 340 390 c 256,4,5
 369 390 369 390 389 370 c 256,6,7
 409 350 409 350 409 321 c 256,8,9
 409 292 409 292 389 272 c 256,10,11
 369 252 369 252 340 252 c 256,12,13
 311 252 311 252 291 272 c 256,14,15
 271 292 271 292 271 321 c 256,0,1
340 0 m 256,16,17
 278 0 278 0 223.5 25.5 c 256,18,19
 169 51 169 51 133.5 91 c 256,20,21
 98 131 98 131 71 176 c 256,22,23
 44 221 44 221 29 265 c 256,24,25
 14 309 14 309 7 337 c 256,26,27
 0 365 0 365 0 375 c 256,28,29
 0 381 0 381 6 385.5 c 256,30,31
 12 390 12 390 19 390 c 256,32,33
 35 390 35 390 39 372 c 256,34,35
 59 257 59 257 143 180.5 c 256,36,37
 227 104 227 104 340 104 c 256,38,39
 453 104 453 104 537 180.5 c 256,40,41
 621 257 621 257 641 372 c 256,42,43
 644 390 644 390 661 390 c 256,44,45
 668 390 668 390 674 385.5 c 256,46,47
 680 381 680 381 680 375 c 256,48,49
 680 365 680 365 673 337 c 256,50,51
 666 309 666 309 651 265 c 256,52,53
 636 221 636 221 609 176 c 256,54,55
 582 131 582 131 546.5 91 c 256,56,57
 511 51 511 51 456.5 25.5 c 256,58,59
 402 0 402 0 340 0 c 256,16,17
EndSplineSet
Validated: 16385
EndChar

StartChar: scripts.ushortfermata
Encoding: 57690 57690 114
Width: 512
Flags: MW
HStem: 0 136<183.627 278.373>
VStem: 163 136<20.627 115.373>
DStem2: 5 35 37 11 0.412342 0.911029<-16.494 460.833> 273 552 230 439 0.411681 -0.911328<85.2778 576.892>
LayerCount: 2
Fore
SplineSet
163 68 m 128,-1,1
 163 96 163 96 183 116 c 128,-1,2
 203 136 203 136 231 136 c 128,-1,3
 259 136 259 136 279 116 c 128,-1,4
 299 96 299 96 299 68 c 128,-1,5
 299 40 299 40 279 20 c 128,-1,6
 259 0 259 0 231 0 c 128,-1,7
 203 0 203 0 183 20 c 128,-1,0
 163 40 163 40 163 68 c 128,-1,1
19 0 m 256,8,9
 12 0 12 0 6 6 c 256,10,11
 0 12 0 12 0 19 c 256,12,13
 0 24 0 24 5 35 c 258,14,-1
 239 552 l 258,15,16
 244 563 244 563 256 563 c 256,17,18
 268 563 268 563 273 552 c 258,19,-1
 507 34 l 258,20,21
 511 27 511 27 511 18 c 256,22,23
 511 8 511 8 506 4 c 256,24,25
 501 0 501 0 493 0 c 258,26,-1
 442 0 l 258,27,28
 430 0 430 0 425 11 c 258,29,-1
 230 439 l 257,30,-1
 37 11 l 258,31,32
 32 0 32 0 19 0 c 256,8,9
EndSplineSet
Validated: 1
EndChar

StartChar: scripts.dshortfermata
Encoding: 57691 57691 115
Width: 512
VWidth: 1587
Flags: MW
HStem: 427 136<233.627 328.888>
VStem: 213 136<447.112 542.373>
DStem2: 87 552 2 536 0.411447 -0.911434<-21.9385 470.326> 282 124 273 11 0.411447 0.911434<0 477.405>
LayerCount: 2
Fore
SplineSet
349 494.5 m 256,0,1
 349 466 349 466 329.5 446.5 c 256,2,3
 310 427 310 427 281.5 427 c 256,4,5
 253 427 253 427 233 446.5 c 256,6,7
 213 466 213 466 213 494.5 c 256,8,9
 213 523 213 523 233 543 c 256,10,11
 253 563 253 563 281.5 563 c 256,12,13
 310 563 310 563 329.5 543 c 256,14,15
 349 523 349 523 349 494.5 c 256,0,1
493 563 m 256,16,17
 501 563 501 563 506.5 557.5 c 256,18,19
 512 552 512 552 512 544 c 256,20,21
 512 543 512 543 510 536 c 258,22,-1
 273 11 l 258,23,24
 268 0 268 0 256 0 c 256,25,26
 244 0 244 0 239 11 c 258,27,-1
 2 536 l 258,28,29
 0 542 0 542 0 544 c 256,30,31
 0 552 0 552 5.5 557.5 c 256,32,33
 11 563 11 563 19 563 c 258,34,-1
 70 563 l 258,35,36
 82 563 82 563 87 552 c 258,37,-1
 282 124 l 257,38,-1
 475 552 l 258,39,40
 481 563 481 563 493 563 c 256,16,17
EndSplineSet
Validated: 16385
EndChar

StartChar: scripts.ulongfermata
Encoding: 57692 57692 116
Width: 638
Flags: W
HStem: 0 138<270.627 367.373> 282 102<37 601>
VStem: 0 37<0.0131836 282> 250 138<20.6272 117.373> 601 39<0.0131836 282>
LayerCount: 2
Fore
SplineSet
250 69 m 256,0,1
 250 98 250 98 270 118 c 256,2,3
 290 138 290 138 319 138 c 256,4,5
 348 138 348 138 368 118 c 256,6,7
 388 98 388 98 388 69 c 256,8,9
 388 40 388 40 368 20 c 256,10,11
 348 0 348 0 319 0 c 256,12,13
 290 0 290 0 270 20 c 256,14,15
 250 40 250 40 250 69 c 256,0,1
10 384 m 258,16,-1
 629 384 l 258,17,18
 640 384 640 384 640 374 c 258,19,-1
 640 19 l 258,20,21
 640 12 640 12 634 6 c 256,22,23
 628 0 628 0 620 0 c 256,24,25
 612 0 612 0 606.5 6 c 256,26,27
 601 12 601 12 601 19 c 258,28,-1
 601 282 l 257,29,-1
 37 282 l 257,30,-1
 37 19 l 258,31,32
 37 12 37 12 31.5 6 c 256,33,34
 26 0 26 0 18 0 c 256,35,36
 11 0 11 0 5.5 5.5 c 256,37,38
 0 11 0 11 0 19 c 258,39,-1
 0 374 l 258,40,41
 0 384 0 384 10 384 c 258,16,-1
EndSplineSet
Validated: 16385
EndChar

StartChar: scripts.dlongfermata
Encoding: 57693 57693 117
Width: 638
VWidth: 1408
Flags: W
HStem: 0 102<37 601> 246 138<270.627 367.373>
VStem: 0 37<102 383.987> 250 138<266.627 363.373> 601 39<102 383.987>
LayerCount: 2
Fore
SplineSet
250 315 m 256,0,1
 250 344 250 344 270 364 c 256,2,3
 290 384 290 384 319 384 c 256,4,5
 348 384 348 384 368 364 c 256,6,7
 388 344 388 344 388 315 c 256,8,9
 388 286 388 286 368 266 c 256,10,11
 348 246 348 246 319 246 c 256,12,13
 290 246 290 246 270 266 c 256,14,15
 250 286 250 286 250 315 c 256,0,1
10 0 m 258,16,17
 0 0 0 0 0 10 c 258,18,-1
 0 365 l 258,19,20
 0 373 0 373 5.5 378.5 c 256,21,22
 11 384 11 384 18 384 c 256,23,24
 26 384 26 384 31.5 378 c 256,25,26
 37 372 37 372 37 365 c 258,27,-1
 37 102 l 257,28,-1
 601 102 l 257,29,-1
 601 365 l 258,30,31
 601 372 601 372 606.5 378 c 256,32,33
 612 384 612 384 620 384 c 256,34,35
 628 384 628 384 634 378 c 256,36,37
 640 372 640 372 640 365 c 258,38,-1
 640 10 l 258,39,40
 640 0 640 0 629 0 c 258,41,-1
 10 0 l 258,16,17
EndSplineSet
Validated: 16385
EndChar

StartChar: scripts.uverylongfermata
Encoding: 57694 57694 118
Width: 784
Flags: W
HStem: 0 122<357.564 442.436> 154 76<183 617> 282 128<55 745>
VStem: 16 39<0.00146484 282> 144 39<0.00146484 154> 339 122<18.5642 103.436> 617 39<0.00146484 154> 745 39<0.00146484 282>
LayerCount: 2
Fore
SplineSet
339 61 m 256,0,1
 339 86 339 86 357 104 c 256,2,3
 375 122 375 122 400 122 c 256,4,5
 425 122 425 122 443 104 c 256,6,7
 461 86 461 86 461 61 c 256,8,9
 461 36 461 36 443 18 c 256,10,11
 425 0 425 0 400 0 c 256,12,13
 375 0 375 0 357 18 c 256,14,15
 339 36 339 36 339 61 c 256,0,1
154 230 m 258,16,-1
 646 230 l 258,17,18
 656 230 656 230 656 220 c 258,19,-1
 656 19 l 258,20,21
 656 12 656 12 650 6 c 256,22,23
 644 0 644 0 636.5 0 c 256,24,25
 629 0 629 0 623 6 c 256,26,27
 617 12 617 12 617 19 c 258,28,-1
 617 154 l 257,29,-1
 183 154 l 257,30,-1
 183 19 l 258,31,32
 183 12 183 12 177 6 c 256,33,34
 171 0 171 0 163.5 0 c 256,35,36
 156 0 156 0 150 6 c 256,37,38
 144 12 144 12 144 19 c 258,39,-1
 144 220 l 258,40,41
 144 230 144 230 154 230 c 258,16,-1
26 410 m 258,42,-1
 774 410 l 258,43,44
 784 410 784 410 784 399 c 258,45,-1
 784 19 l 258,46,47
 784 12 784 12 778.5 6 c 256,48,49
 773 0 773 0 764.5 0 c 256,50,51
 756 0 756 0 750.5 6 c 256,52,53
 745 12 745 12 745 19 c 258,54,-1
 745 282 l 257,55,-1
 55 282 l 257,56,-1
 55 19 l 258,57,58
 55 12 55 12 49.5 6 c 256,59,60
 44 0 44 0 35.5 0 c 256,61,62
 27 0 27 0 21.5 6 c 256,63,64
 16 12 16 12 16 19 c 258,65,-1
 16 399 l 258,66,67
 16 410 16 410 26 410 c 258,42,-1
EndSplineSet
Validated: 16385
EndChar

StartChar: scripts.dverylongfermata
Encoding: 57695 57695 119
Width: 784
VWidth: 1434
Flags: W
HStem: 0 128<55 745> 180 76<183 617> 288 122<357.564 442.436>
VStem: 16 39<128 409.999> 144 39<256 409.999> 339 122<306.564 391.436> 617 39<256 409.999> 745 39<128 409.999>
LayerCount: 2
Fore
SplineSet
339 349 m 256,0,1
 339 374 339 374 357 392 c 256,2,3
 375 410 375 410 400 410 c 256,4,5
 425 410 425 410 443 392 c 256,6,7
 461 374 461 374 461 349 c 256,8,9
 461 324 461 324 443 306 c 256,10,11
 425 288 425 288 400 288 c 256,12,13
 375 288 375 288 357 306 c 256,14,15
 339 324 339 324 339 349 c 256,0,1
154 180 m 258,16,17
 144 180 144 180 144 190 c 258,18,-1
 144 391 l 258,19,20
 144 398 144 398 150 404 c 256,21,22
 156 410 156 410 163.5 410 c 256,23,24
 171 410 171 410 177 404 c 256,25,26
 183 398 183 398 183 391 c 258,27,-1
 183 256 l 257,28,-1
 617 256 l 257,29,-1
 617 391 l 258,30,31
 617 398 617 398 623 404 c 256,32,33
 629 410 629 410 636.5 410 c 256,34,35
 644 410 644 410 650 404 c 256,36,37
 656 398 656 398 656 391 c 258,38,-1
 656 190 l 258,39,40
 656 180 656 180 646 180 c 258,41,-1
 154 180 l 258,16,17
26 0 m 258,42,43
 16 0 16 0 16 11 c 258,44,-1
 16 391 l 258,45,46
 16 398 16 398 21.5 404 c 256,47,48
 27 410 27 410 35.5 410 c 256,49,50
 44 410 44 410 49.5 404 c 256,51,52
 55 398 55 398 55 391 c 258,53,-1
 55 128 l 257,54,-1
 745 128 l 257,55,-1
 745 391 l 258,56,57
 745 398 745 398 750.5 404 c 256,58,59
 756 410 756 410 764.5 410 c 256,60,61
 773 410 773 410 778.5 404 c 256,62,63
 784 398 784 398 784 391 c 258,64,-1
 784 11 l 258,65,66
 784 0 784 0 774 0 c 258,67,-1
 26 0 l 258,42,43
EndSplineSet
Validated: 16385
EndChar

StartChar: scripts.thumb
Encoding: 57696 57696 120
Width: 203
VWidth: 1229
Flags: W
HStem: 0 21G<97 107> 302 31<71.7734 132.541>
VStem: 0 54<124.008 286.256> 80 44<7.25049 87.2617> 151 53<124.008 286.256>
LayerCount: 2
Fore
SplineSet
124 77 m 257,0,-1
 127 25 l 258,1,2
 128 15 128 15 120 7 c 256,3,4
 112 0 112 0 102 0 c 256,5,6
 92 0 92 0 84 7 c 256,7,8
 76 15 76 15 77 25 c 258,9,-1
 80 77 l 257,10,-1
 80 79 l 257,11,12
 43 88 43 88 22 124 c 256,13,14
 0 160 0 160 0 205 c 256,15,16
 0 257 0 257 28 295 c 256,17,18
 57 333 57 333 102 333 c 256,19,20
 147 333 147 333 176 295 c 256,21,22
 204 257 204 257 204 205 c 256,23,24
 204 160 204 160 182 124 c 256,25,26
 160 88 160 88 124 79 c 257,27,-1
 124 77 l 257,0,-1
151 205 m 256,28,29
 151 302 151 302 102 302 c 256,30,31
 54 302 54 302 54 205 c 256,32,33
 54 108 54 108 102 108 c 256,34,35
 151 108 151 108 151 205 c 256,28,29
EndSplineSet
Validated: 16417
EndChar

StartChar: scripts.sforzato
Encoding: 57697 57697 121
Width: 461
VWidth: 1156
Flags: MW
LayerCount: 2
Fore
SplineSet
462 132 m 256,0,1
 462 113 462 113 443 113 c 257,2,-1
 21 4 l 258,3,4
 17.7241 3.13793 17.7241 3.13793 15.0131 3.13793 c 0,5,6
 2 3.13793 2 3.13793 2 23 c 256,7,8
 2 39 2 39 16 42 c 258,9,-1
 273 108 l 257,10,-1
 416 132 l 257,11,-1
 273 156 l 257,12,-1
 16 222 l 258,13,14
 2 225 2 225 2 241 c 256,15,16
 2 260.862 2 260.862 15.0131 260.862 c 0,17,18
 17.7241 260.862 17.7241 260.862 21 260 c 258,19,-1
 443 151 l 257,20,21
 462 151 462 151 462 132 c 256,0,1
EndSplineSet
Validated: 1
EndChar

StartChar: scripts.espr
Encoding: 57698 57698 122
Width: 486
Flags: W
HStem: -128 38<-72.5859 -31.1675 31.1675 72.5859> -19 38<-485.995 -439.589 439.589 485.995> 90 37<31.0898 72.5859>
VStem: -486 42<-21 21> 444 42<-21 21>
DStem2: -467 19 -299 24 0.967468 0.252994<19.1068 443.606> 299 -24 467 -19 0.967494 0.252894<-279.691 140.716>
LayerCount: 2
Fore
SplineSet
-486 0 m 256,0,1
 -486 19 -486 19 -467 19 c 257,2,-1
 -54 127 l 258,3,4
 -49.8182 128.091 -49.8182 128.091 -46.3967 128.091 c 0,5,6
 -31 128.091 -31 128.091 -31 106 c 256,7,8
 -31 94 -31 94 -45 90 c 258,9,-1
 -299 24 l 257,10,-1
 -444 0 l 257,11,-1
 -299 -24 l 257,12,-1
 -45 -90 l 258,13,14
 -31 -95 -31 -95 -31 -105 c 256,15,16
 -31 -128.31 -31 -128.31 -46.2723 -128.31 c 0,17,18
 -48.0345 -128.31 -48.0345 -128.31 -50 -128 c 258,19,-1
 -467 -19 l 257,20,21
 -486 -19 -486 -19 -486 0 c 256,0,1
486 0 m 256,22,23
 486 -19 486 -19 467 -19 c 257,24,-1
 50 -128 l 258,25,26
 48.0345 -128.31 48.0345 -128.31 46.2723 -128.31 c 0,27,28
 31 -128.31 31 -128.31 31 -105 c 256,29,30
 31 -95 31 -95 45 -90 c 258,31,-1
 299 -24 l 257,32,-1
 444 0 l 257,33,-1
 299 24 l 257,34,-1
 45 90 l 258,35,36
 31 94 31 94 31 106 c 256,37,38
 31 128.091 31 128.091 46.3967 128.091 c 0,39,40
 49.8182 128.091 49.8182 128.091 54 127 c 258,41,-1
 467 19 l 257,42,43
 486 19 486 19 486 0 c 256,22,23
EndSplineSet
Validated: 1
EndChar

StartChar: scripts.staccato
Encoding: 57699 57699 123
Width: 100
VWidth: 1074
Flags: W
HStem: -1 102<14.4702 85.5298>
VStem: -1 102<14.4702 85.5298>
LayerCount: 2
Fore
SplineSet
-1 50 m 256,0,1
 -1 71 -1 71 14 86 c 256,2,3
 29 101 29 101 50 101 c 256,4,5
 71 101 71 101 86 86 c 256,6,7
 101 71 101 71 101 50 c 256,8,9
 101 29 101 29 86 14 c 256,10,11
 71 -1 71 -1 50 -1 c 256,12,13
 29 -1 29 -1 14 14 c 256,14,15
 -1 29 -1 29 -1 50 c 256,0,1
EndSplineSet
Validated: 1
EndChar

StartChar: scripts.ustaccatissimo
Encoding: 57700 57700 124
Width: 102
Flags: MW
VStem: 0 104<173.035 242.593> 39 26<-12.9968 38.9645>
LayerCount: 2
Fore
SplineSet
39 0 m 258,0,-1
 0 212 l 257,1,2
 0 230 0 230 15 243 c 256,3,4
 30 256 30 256 52 256 c 256,5,6
 74 256 74 256 89 243 c 256,7,8
 104 230 104 230 104 212 c 257,9,10
 65 0 l 258,11,12
 63 -13 63 -13 52 -13 c 256,13,14
 41 -13 41 -13 39 0 c 258,0,-1
EndSplineSet
Validated: 1
EndChar

StartChar: scripts.dstaccatissimo
Encoding: 57701 57701 125
Width: 102
VWidth: 1280
Flags: MW
VStem: 0 104<13.4075 82.9645> 39 26<217.035 268.997>
LayerCount: 2
Fore
SplineSet
39 256 m 258,0,1
 41 269 41 269 52 269 c 256,2,3
 63 269 63 269 65 256 c 258,4,-1
 104 44 l 257,5,6
 104 26 104 26 89 13 c 256,7,8
 74 0 74 0 52 0 c 256,9,10
 30 0 30 0 15 13 c 256,11,12
 0 26 0 26 0 44 c 257,13,-1
 39 256 l 258,0,1
EndSplineSet
Validated: 16385
EndChar

StartChar: scripts.tenuto
Encoding: 57702 57702 126
Width: 306
VWidth: 1044
Flags: W
HStem: 0 40<0.00158691 307.998>
VStem: 0 308<0 40>
LayerCount: 2
Fore
SplineSet
287 0 m 258,0,-1
 21 0 l 258,1,2
 13 0 13 0 6.5 6 c 256,3,4
 0 12 0 12 0 20 c 256,5,6
 0 28 0 28 6.5 34 c 256,7,8
 13 40 13 40 21 40 c 258,9,-1
 287 40 l 258,10,11
 295 40 295 40 301.5 34 c 256,12,13
 308 28 308 28 308 20 c 256,14,15
 308 12 308 12 301.5 6 c 256,16,17
 295 0 295 0 287 0 c 258,0,-1
EndSplineSet
Validated: 1
EndChar

StartChar: scripts.uportato
Encoding: 57703 57703 127
Width: 306
Flags: W
HStem: -18 36<0.00146484 307.999> 128 82<125.376 182.624>
VStem: 113 82<140.376 197.624>
LayerCount: 2
Fore
SplineSet
113 169 m 256,0,1
 113 186 113 186 125 198 c 256,2,3
 137 210 137 210 154 210 c 256,4,5
 171 210 171 210 183 198 c 256,6,7
 195 186 195 186 195 169 c 256,8,9
 195 152 195 152 183 140 c 256,10,11
 171 128 171 128 154 128 c 256,12,13
 137 128 137 128 125 140 c 256,14,15
 113 152 113 152 113 169 c 256,0,1
289 -18 m 258,16,-1
 19 -18 l 258,17,18
 11 -18 11 -18 6 -13 c 256,19,20
 0 -8 0 -8 0 0 c 256,21,22
 0 8 0 8 6 13 c 256,23,24
 11 18 11 18 19 18 c 258,25,-1
 289 18 l 258,26,27
 297 18 297 18 302 13 c 256,28,29
 308 8 308 8 308 0 c 256,30,31
 308 -8 308 -8 302 -13 c 256,32,33
 297 -18 297 -18 289 -18 c 258,16,-1
EndSplineSet
Validated: 1
EndChar

StartChar: scripts.dportato
Encoding: 57704 57704 128
Width: 152
Flags: W
HStem: -210 82<-28.6238 28.6238> -18 36<-148.328 148.328>
VStem: -41 82<-197.624 -140.376>
LayerCount: 2
Fore
SplineSet
-41 -169 m 256,0,1
 -41 -152 -41 -152 -29 -140 c 256,2,3
 -17 -128 -17 -128 0 -128 c 256,4,5
 17 -128 17 -128 29 -140 c 256,6,7
 41 -152 41 -152 41 -169 c 256,8,9
 41 -186 41 -186 29 -198 c 256,10,11
 17 -210 17 -210 0 -210 c 256,12,13
 -17 -210 -17 -210 -29 -198 c 256,14,15
 -41 -186 -41 -186 -41 -169 c 256,0,1
135 18 m 258,16,17
 143 18 143 18 148.5 13 c 256,18,19
 154 8 154 8 154 0 c 256,20,21
 154 -8 154 -8 148.5 -13 c 256,22,23
 143 -18 143 -18 135 -18 c 258,24,-1
 -135 -18 l 258,25,26
 -143 -18 -143 -18 -148.5 -13 c 256,27,28
 -154 -8 -154 -8 -154 0 c 256,29,30
 -154 8 -154 8 -148.5 13 c 256,31,32
 -143 18 -143 18 -135 18 c 258,33,-1
 135 18 l 258,16,17
EndSplineSet
Validated: 1
EndChar

StartChar: scripts.umarcato
Encoding: 57705 57705 129
Width: 256
Flags: MW
HStem: 0 281.5
DStem2: 1 18 25 7 0.41273 0.910853<-5.76434 168.223> 139 274 93 161 0.41273 -0.910853<83.9408 270.571>
LayerCount: 2
Fore
SplineSet
13 0 m 256,0,1
 0 0 0 0 0 12 c 256,2,3
 0 16 0 16 1 18 c 258,4,-1
 117 274 l 258,5,6
 120 282 120 282 128 282 c 256,7,8
 136 281 136 281 139 274 c 258,9,-1
 255 18 l 258,10,11
 256 16 256 16 256 12 c 256,12,13
 256 0 256 0 243 0 c 258,14,-1
 175 0 l 258,15,16
 167 0 167 0 163 7 c 258,17,-1
 93 161 l 257,18,-1
 25 7 l 258,19,20
 21 0 21 0 13 0 c 256,0,1
EndSplineSet
Validated: 16385
EndChar

StartChar: scripts.dmarcato
Encoding: 57706 57706 130
Width: 256
VWidth: 1305
Flags: MW
HStem: 280.5 281.5
DStem2: 93 274 1 263 0.41273 -0.910853<-17.4681 169.163> 163 120 139 7 0.41273 0.910853<0 173.988>
LayerCount: 2
Fore
SplineSet
243 281 m 256,0,1
 256 281 256 281 256 269 c 256,2,3
 256 265 256 265 255 263 c 258,4,-1
 139 7 l 258,5,6
 136.02 -0.5 136.02 -0.5 128 -0.5 c 256,7,8
 119.98 -0.5 119.98 -0.5 117 7 c 258,9,-1
 1 263 l 258,10,11
 0 265 0 265 0 269 c 256,12,13
 0 281 0 281 13 281 c 258,14,-1
 81 281 l 258,15,16
 89 281 89 281 93 274 c 258,17,-1
 163 120 l 257,18,-1
 231 274 l 258,19,20
 235 281 235 281 243 281 c 256,0,1
EndSplineSet
Validated: 16385
EndChar

StartChar: scripts.open
Encoding: 57707 57707 131
Width: 101
Flags: W
HStem: -128 31<-35.2328 35.2328> 97 31<-35.2328 35.2328>
VStem: -102 44<-73.9439 73.9439> 58 44<-73.9439 73.9439>
LayerCount: 2
Fore
SplineSet
102 0 m 256,0,1
 102 -52 102 -52 73.5 -90 c 256,2,3
 45 -128 45 -128 0 -128 c 256,4,5
 -45 -128 -45 -128 -73.5 -90 c 256,6,7
 -102 -52 -102 -52 -102 0 c 256,8,9
 -102 52 -102 52 -73.5 90 c 256,10,11
 -45 128 -45 128 0 128 c 256,12,13
 45 128 45 128 73.5 90 c 256,14,15
 102 52 102 52 102 0 c 256,0,1
58 0 m 256,16,17
 58 40 58 40 44 68.5 c 256,18,19
 30 97 30 97 0 97 c 256,20,21
 -30 97 -30 97 -44 68.5 c 256,22,23
 -58 40 -58 40 -58 0 c 256,24,25
 -58 -40 -58 -40 -44 -68.5 c 256,26,27
 -30 -97 -30 -97 0 -97 c 256,28,29
 30 -97 30 -97 44 -68.5 c 256,30,31
 58 -40 58 -40 58 0 c 256,16,17
EndSplineSet
Validated: 16385
EndChar

StartChar: scripts.stopped
Encoding: 57708 57708 132
Width: 140
Flags: W
HStem: -26 52<-140.736 -26 26 140.736>
VStem: -26 52<-140.736 -26 26 140.736>
LayerCount: 2
Fore
SplineSet
0 -141 m 256,0,1
 -10 -141 -10 -141 -18 -133.5 c 256,2,3
 -26 -126 -26 -126 -26 -115 c 258,4,-1
 -26 -26 l 257,5,-1
 -115 -26 l 258,6,7
 -126 -26 -126 -26 -133.5 -18 c 256,8,9
 -141 -10 -141 -10 -141 0 c 256,10,11
 -141 10 -141 10 -133.5 18 c 256,12,13
 -126 26 -126 26 -115 26 c 258,14,-1
 -26 26 l 257,15,-1
 -26 115 l 258,16,17
 -26 126 -26 126 -18 133.5 c 256,18,19
 -10 141 -10 141 0 141 c 256,20,21
 10 141 10 141 18 133.5 c 256,22,23
 26 126 26 126 26 115 c 258,24,-1
 26 26 l 257,25,-1
 115 26 l 258,26,27
 126 26 126 26 133.5 18 c 256,28,29
 141 10 141 10 141 0 c 256,30,31
 141 -10 141 -10 133.5 -18 c 256,32,33
 126 -26 126 -26 115 -26 c 258,34,-1
 26 -26 l 257,35,-1
 26 -115 l 258,36,37
 26 -126 26 -126 18 -133.5 c 256,38,39
 10 -141 10 -141 0 -141 c 256,0,1
EndSplineSet
Validated: 16385
EndChar

StartChar: scripts.upbow
Encoding: 57709 57709 133
Width: 332
Flags: MW
LayerCount: 2
Fore
SplineSet
167 0 m 256,0,1
 149 0 149 0 149 18 c 257,2,-1
 1 510 l 258,3,4
 0 513 0 513 0 517 c 256,5,6
 0 532 0 532 19 532 c 256,7,8
 33 532 33 532 36 520 c 258,9,-1
 167 83 l 257,10,-1
 298 520 l 258,11,12
 301 532 301 532 315 532 c 256,13,14
 334 532 334 532 334 517 c 256,15,16
 334 513 334 513 333 510 c 258,17,-1
 185 18 l 257,18,19
 185 0 185 0 167 0 c 256,0,1
EndSplineSet
Validated: 1
EndChar

StartChar: scripts.downbow
Encoding: 57710 57710 134
Width: 384
Flags: MW
HStem: 205 136<32 354>
VStem: 0 32<4.15649 205> 354 32<4.15649 205>
LayerCount: 2
Fore
SplineSet
11 341 m 258,0,-1
 375 341 l 258,1,2
 386 341 386 341 386 331 c 258,3,-1
 386 15 l 258,4,5
 386 9 386 9 381 4 c 256,6,7
 376 0 376 0 370 0 c 256,8,9
 364 0 364 0 359 4 c 256,10,11
 354 9 354 9 354 15 c 258,12,-1
 354 205 l 257,13,-1
 32 205 l 257,14,-1
 32 15 l 258,15,16
 32 9 32 9 28 4 c 256,17,18
 23 0 23 0 17 0 c 256,19,20
 11 0 11 0 6 4 c 256,21,22
 0 9 0 9 0 15 c 258,23,-1
 0 331 l 258,24,25
 0 341 0 341 11 341 c 258,0,-1
EndSplineSet
Validated: 1
EndChar

StartChar: scripts.reverseturn
Encoding: 57711 57711 135
Width: 559
VWidth: 1159
Flags: MW
HStem: 0 108<389.502 472.59> 0 80<61.7656 163.999> 162 108<87.4102 170.498> 190 80<396.001 498.234>
VStem: 0 31<99.7346 174.319> 529 31<95.6813 170.265>
DStem2: 222 147 279 67 0.781679 0.62368<-134.34 216.739>
LayerCount: 2
Fore
SplineSet
422 270 m 256,0,1
 479 270 479 270 520 230 c 256,2,3
 560 191 560 191 560 135 c 256,4,5
 560 80 560 80 526 40 c 256,6,7
 493 0 493 0 443 0 c 256,8,9
 415 0 415 0 394 16 c 256,10,11
 373 31 373 31 373 54 c 256,12,13
 373 79 373 79 389 94 c 256,14,15
 405 108 405 108 428 108 c 256,16,17
 464 108 464 108 478 77 c 257,18,19
 500 80 500 80 514 96 c 256,20,21
 529 111 529 111 529 135 c 256,22,23
 529 159 529 159 510 174 c 256,24,25
 492 190 492 190 466 190 c 256,26,27
 433 190 433 190 400 170 c 256,28,29
 367 151 367 151 338 123 c 256,30,31
 309 95 309 95 279 67 c 256,32,33
 249 39 249 39 212 20 c 256,34,35
 176 0 176 0 138 0 c 256,36,37
 81 0 81 0 40 40 c 256,38,39
 0 79 0 79 0 135 c 256,40,41
 0 190 0 190 34 230 c 256,42,43
 67 270 67 270 117 270 c 256,44,45
 145 270 145 270 166 254 c 256,46,47
 187 239 187 239 187 216 c 256,48,49
 187 191 187 191 171 176 c 256,50,51
 155 162 155 162 132 162 c 256,52,53
 96 162 96 162 82 193 c 257,54,55
 60 190 60 190 46 174 c 256,56,57
 31 159 31 159 31 135 c 256,58,59
 31 111 31 111 50 96 c 256,60,61
 68 80 68 80 94 80 c 256,62,63
 127 80 127 80 160 100 c 256,64,65
 193 119 193 119 222 147 c 256,66,67
 251 175 251 175 281 203 c 256,68,69
 311 231 311 231 348 250 c 256,70,71
 384 270 384 270 422 270 c 256,0,1
EndSplineSet
Validated: 16385
EndChar

StartChar: scripts.turn
Encoding: 57712 57712 136
Width: 559
VWidth: 1159
Flags: MW
HStem: 0 108<87.4102 165.342> 0 80<396.001 498.234> 162 108<394.658 472.59> 190 80<61.2588 163.999>
VStem: 0 31<95.6813 170.265> 529 31<99.7346 174.319>
DStem2: 279 203 222 123 0.781679 -0.62368<-129.19 222.102>
LayerCount: 2
Fore
SplineSet
422 0 m 256,0,1
 384 0 384 0 348 20 c 256,2,3
 311 39 311 39 281 67 c 256,4,5
 251 95 251 95 222 123 c 256,6,7
 193 151 193 151 160 170 c 256,8,9
 126 190 126 190 94 190 c 256,10,11
 68 190 68 190 50 174 c 256,12,13
 31 159 31 159 31 135 c 256,14,15
 31 111 31 111 46 96 c 256,16,17
 61 80 61 80 82 77 c 257,18,19
 95 108 95 108 132 108 c 256,20,21
 156 108 156 108 172 94 c 256,22,23
 187 79 187 79 187 54 c 256,24,25
 187 30 187 30 166 15 c 256,26,27
 145 0 145 0 117 0 c 256,28,29
 67 0 67 0 34 40 c 256,30,31
 0 80 0 80 0 135 c 256,32,33
 0 191 0 191 40 230 c 256,34,35
 80 270 80 270 138 270 c 256,36,37
 176 270 176 270 212 250 c 256,38,39
 249 231 249 231 279 203 c 256,40,41
 309 175 309 175 338 147 c 256,42,43
 367 119 367 119 400 100 c 256,44,45
 434 80 434 80 466 80 c 256,46,47
 492 80 492 80 510 96 c 256,48,49
 529 111 529 111 529 135 c 256,50,51
 529 159 529 159 514 174 c 256,52,53
 499 190 499 190 478 193 c 257,54,55
 465 162 465 162 428 162 c 256,56,57
 404 162 404 162 388 176 c 256,58,59
 373 191 373 191 373 216 c 256,60,61
 373 240 373 240 394 255 c 256,62,63
 415 270 415 270 443 270 c 256,64,65
 493 270 493 270 526 230 c 256,66,67
 560 190 560 190 560 135 c 256,68,69
 560 79 560 79 520 40 c 256,70,71
 479 0 479 0 422 0 c 256,0,1
EndSplineSet
Validated: 16385
EndChar

StartChar: scripts.trill
Encoding: 57713 57713 137
Width: 681
Flags: MW
HStem: -11 51<188.5 259.526> 176 26<30.7603 130.312> 285 25<47.5065 146.802> 302 36<337.203 431> 312 28<495.865 568.528>
VStem: 0 26<207.811 264.114> 146 81<40.4622 181.43> 278 25<55.7998 149.298> 508 106<201.609 275.526>
DStem2: 150 124 240 155 0.197063 0.980391<-36.9923 75.5837 94.4871 141.999 176.584 405> 395 268 477 268 0.198847 0.980031<-261.895 6.86021>
LayerCount: 2
Fore
SplineSet
0 228 m 256,0,1
 0 262 0 262 28 286 c 256,2,3
 55 310 55 310 99 310 c 256,4,5
 142 310 142 310 183 285 c 257,6,-1
 230 522 l 257,7,8
 240 517 240 517 250 517 c 256,9,10
 282 517 282 517 320 553 c 257,11,-1
 265 281 l 257,12,-1
 331 317 l 258,13,14
 369 337 369 337 407 338 c 257,15,16
 455 338 455 338 472 309 c 257,17,18
 500 340 500 340 543 340 c 256,19,20
 573 340 573 340 594 322 c 256,21,22
 614 303 614 303 614 269 c 256,23,24
 614 233 614 233 594 205 c 256,25,26
 575 177 575 177 547 177 c 256,27,28
 529 177 529 177 518 191 c 256,29,30
 508 205 508 205 508 226 c 256,31,32
 508 261 508 261 528 276 c 256,33,34
 548 292 548 292 570 292 c 258,35,-1
 573 292 l 257,36,37
 562 312 562 312 534 312 c 256,38,39
 515 312 515 312 498 300 c 256,40,41
 482 288 482 288 477 268 c 258,42,-1
 422 -8 l 257,43,44
 405 3 405 3 384 3 c 256,45,46
 362 3 362 3 339 -8 c 257,47,-1
 395 268 l 257,48,-1
 395 275 l 258,49,50
 395 302 395 302 365 302 c 256,51,52
 355 302 355 302 340 295 c 257,53,-1
 259 250 l 257,54,-1
 252 218 l 257,55,56
 303 160 303 160 303 106 c 256,57,58
 303 61 303 61 273 25 c 256,59,60
 243 -11 243 -11 203 -11 c 256,61,62
 174 -11 174 -11 160 16 c 256,63,64
 146 43 146 43 146 82 c 256,65,66
 146 107 146 107 150 124 c 258,67,-1
 165 202 l 257,68,69
 104 176 104 176 62 176 c 256,70,71
 28 176 28 176 14 192 c 256,72,73
 0 208 0 208 0 228 c 256,0,1
26 232 m 256,74,75
 26 202 26 202 66 202 c 257,76,77
 108 202 108 202 171 230 c 257,78,-1
 176 255 l 257,79,80
 136 285 136 285 93 285 c 256,81,82
 58 285 58 285 42 268 c 256,83,84
 26 251 26 251 26 232 c 256,74,75
242 40 m 256,85,86
 258 40 258 40 268 60 c 256,87,88
 278 80 278 80 278 102 c 256,89,90
 278 140 278 140 245 182 c 257,91,-1
 240 155 l 257,92,93
 227 95 227 95 227 70 c 256,94,95
 227 40 227 40 242 40 c 256,85,86
EndSplineSet
Validated: 16385
EndChar

StartChar: scripts.upedalheel
Encoding: 57714 57714 138
Width: 128
Flags: W
HStem: -128 39<-55.0953 55.0953>
VStem: -128 39<-54.7207 165.328> 89 39<-54.7207 165.328>
LayerCount: 2
Fore
SplineSet
0 -89 m 256,0,1
 37 -89 37 -89 63 -63 c 256,2,3
 89 -37 89 -37 89 0 c 258,4,-1
 89 152 l 258,5,6
 89 160 89 160 94.5 165.5 c 256,7,8
 100 171 100 171 108.5 171 c 256,9,10
 117 171 117 171 122.5 165.5 c 256,11,12
 128 160 128 160 128 152 c 258,13,-1
 128 0 l 258,14,15
 128 -53 128 -53 90.5 -90.5 c 256,16,17
 53 -128 53 -128 0 -128 c 256,18,19
 -53 -128 -53 -128 -90.5 -90.5 c 256,20,21
 -128 -53 -128 -53 -128 0 c 258,22,-1
 -128 152 l 258,23,24
 -128 160 -128 160 -122.5 165.5 c 256,25,26
 -117 171 -117 171 -108.5 171 c 256,27,28
 -100 171 -100 171 -94.5 165.5 c 256,29,30
 -89 160 -89 160 -89 152 c 258,31,-1
 -89 0 l 258,32,33
 -89 -37 -89 -37 -63 -63 c 256,34,35
 -37 -89 -37 -89 0 -89 c 256,0,1
EndSplineSet
Validated: 16385
EndChar

StartChar: scripts.dpedalheel
Encoding: 57715 57715 139
Width: 128
Flags: W
HStem: 89 39<-55.0953 55.0953>
VStem: -128 39<-165.328 54.7207> 89 39<-165.328 54.7207>
LayerCount: 2
Fore
SplineSet
0 89 m 256,0,1
 -37 89 -37 89 -63 63 c 256,2,3
 -89 37 -89 37 -89 0 c 258,4,-1
 -89 -152 l 258,5,6
 -89 -160 -89 -160 -94.5 -165.5 c 256,7,8
 -100 -171 -100 -171 -108.5 -171 c 256,9,10
 -117 -171 -117 -171 -122.5 -165.5 c 256,11,12
 -128 -160 -128 -160 -128 -152 c 258,13,-1
 -128 0 l 258,14,15
 -128 53 -128 53 -90.5 90.5 c 256,16,17
 -53 128 -53 128 0 128 c 256,18,19
 53 128 53 128 90.5 90.5 c 256,20,21
 128 53 128 53 128 0 c 258,22,-1
 128 -152 l 258,23,24
 128 -160 128 -160 122.5 -165.5 c 256,25,26
 117 -171 117 -171 108.5 -171 c 256,27,28
 100 -171 100 -171 94.5 -165.5 c 256,29,30
 89 -160 89 -160 89 -152 c 258,31,-1
 89 0 l 258,32,33
 89 37 89 37 63 63 c 256,34,35
 37 89 37 89 0 89 c 256,0,1
EndSplineSet
Validated: 16385
EndChar

StartChar: scripts.upedaltoe
Encoding: 57716 57716 140
Width: 128
Flags: MW
VStem: -19 38<0.00463867 41.5659>
DStem2: -90 371 -127 359 0.302741 -0.953073<-5.66697 221.079>
LayerCount: 2
Fore
SplineSet
0 0 m 256,0,1
 -19 0 -19 0 -19 19 c 257,2,-1
 -127 359 l 258,3,4
 -128 361 -128 361 -128 365 c 256,5,6
 -128 373 -128 373 -122.5 378.5 c 256,7,8
 -117 384 -117 384 -109 384 c 256,9,10
 -94 384 -94 384 -90 371 c 258,11,-1
 -24 160 l 257,12,-1
 0 54 l 257,13,-1
 24 160 l 257,14,-1
 90 371 l 258,15,16
 93 384 93 384 109 384 c 256,17,18
 117 384 117 384 122.5 378.5 c 256,19,20
 128 373 128 373 128 365 c 256,21,22
 128 362 128 362 127 359 c 258,23,-1
 19 19 l 257,24,25
 19 0 19 0 0 0 c 256,0,1
EndSplineSet
Validated: 16385
EndChar

StartChar: scripts.dpedaltoe
Encoding: 57717 57717 141
Width: 128
Flags: MW
VStem: -19 38<-41.5659 -0.00463867>
DStem2: 19 -19 24 -160 0.302741 -0.953073<27.6055 362.643>
LayerCount: 2
Fore
SplineSet
0 0 m 256,0,1
 19 0 19 0 19 -19 c 257,2,-1
 127 -359 l 258,3,4
 128 -361 128 -361 128 -365 c 256,5,6
 128 -373 128 -373 122.5 -378.5 c 256,7,8
 117 -384 117 -384 109 -384 c 256,9,10
 93 -384 93 -384 90 -371 c 258,11,-1
 24 -160 l 257,12,-1
 0 -54 l 257,13,-1
 -24 -160 l 257,14,-1
 -90 -371 l 258,15,16
 -93 -384 -93 -384 -109 -384 c 256,17,18
 -117 -384 -117 -384 -122.5 -378.5 c 256,19,20
 -128 -373 -128 -373 -128 -365 c 256,21,22
 -128 -362 -128 -362 -127 -359 c 258,23,-1
 -19 -19 l 257,24,25
 -19 0 -19 0 0 0 c 256,0,1
EndSplineSet
Validated: 16385
EndChar

StartChar: scripts.flageolet
Encoding: 57718 57718 142
Width: 135
Flags: W
HStem: -136 20<-46.7871 46.7871> 116 20<-46.7871 46.7871>
VStem: -136 20<-46.7871 46.7871> 116 20<-46.7871 46.7871>
LayerCount: 2
Fore
SplineSet
0 136 m 256,0,1
 57 136 57 136 96.5 96.5 c 256,2,3
 136 57 136 57 136 0 c 256,4,5
 136 -57 136 -57 96.5 -96.5 c 256,6,7
 57 -136 57 -136 0 -136 c 256,8,9
 -57 -136 -57 -136 -96.5 -96.5 c 256,10,11
 -136 -57 -136 -57 -136 0 c 256,12,13
 -136 57 -136 57 -96.5 96.5 c 256,14,15
 -57 136 -57 136 0 136 c 256,0,1
0 116 m 256,16,17
 -48 116 -48 116 -82 82 c 256,18,19
 -116 48 -116 48 -116 0 c 256,20,21
 -116 -48 -116 -48 -82 -82 c 256,22,23
 -48 -116 -48 -116 0 -116 c 256,24,25
 48 -116 48 -116 82 -82 c 256,26,27
 116 -48 116 -48 116 0 c 256,28,29
 116 48 116 48 82 82 c 256,30,31
 48 116 48 116 0 116 c 256,16,17
EndSplineSet
Validated: 16385
EndChar

StartChar: scripts.segno
Encoding: 57719 57719 143
Width: 256
Flags: W
HStem: -384 31<62.9509 149.492> -82 62<-197.718 -154.282> 20 62<154.282 197.718> 353 31<-149.492 -62.9509>
VStem: -256 80<193.374 309.773> -256 61<-384 -323> -207 62<-72.7178 -29.2822> -79 115<191.595 288.691> -36 115<-288.074 -191.595> 145 62<29.2822 72.7178> 176 80<-309.773 -193.374> 195 61<323 384>
DStem2: -256 -384 -195 -384 0.506382 0.862309<30.8893 413.678 507.843 890.632>
LayerCount: 2
Fore
SplineSet
145 51 m 256,0,1
 145 64 145 64 154 73 c 256,2,3
 163 82 163 82 176 82 c 256,4,5
 189 82 189 82 198 73 c 256,6,7
 207 64 207 64 207 51 c 256,8,9
 207 38 207 38 198 29 c 256,10,11
 189 20 189 20 176 20 c 256,12,13
 163 20 163 20 154 29 c 256,14,15
 145 38 145 38 145 51 c 256,0,1
-207 -51 m 256,16,17
 -207 -38 -207 -38 -198 -29 c 256,18,19
 -189 -20 -189 -20 -176 -20 c 256,20,21
 -163 -20 -163 -20 -154 -29 c 256,22,23
 -145 -38 -145 -38 -145 -51 c 256,24,25
 -145 -64 -145 -64 -154 -73 c 256,26,27
 -163 -82 -163 -82 -176 -82 c 256,28,29
 -189 -82 -189 -82 -198 -73 c 256,30,31
 -207 -64 -207 -64 -207 -51 c 256,16,17
-36 -232 m 256,32,33
 -36 -172 -36 -172 19 -172 c 256,34,35
 48 -172 48 -172 63.5 -191 c 256,36,37
 79 -210 79 -210 79 -236 c 256,38,39
 79 -258 79 -258 67.5 -276 c 256,40,41
 56 -294 56 -294 38 -301 c 257,42,43
 44 -324 44 -324 64 -338.5 c 256,44,45
 84 -353 84 -353 109 -353 c 256,46,47
 138 -353 138 -353 157 -330.5 c 256,48,49
 176 -308 176 -308 176 -276 c 256,50,51
 176 -153 176 -153 0 -52 c 257,52,-1
 -195 -384 l 257,53,-1
 -256 -384 l 257,54,-1
 -47 -27 l 257,55,56
 -143 26 -143 26 -199.5 85.5 c 256,57,58
 -256 145 -256 145 -256 224 c 256,59,60
 -256 291 -256 291 -213 337.5 c 256,61,62
 -170 384 -170 384 -109 384 c 256,63,64
 -49 384 -49 384 -6.5 339.5 c 256,65,66
 36 295 36 295 36 232 c 256,67,68
 36 172 36 172 -19 172 c 256,69,70
 -48 172 -48 172 -63.5 191 c 256,71,72
 -79 210 -79 210 -79 236 c 256,73,74
 -79 258 -79 258 -67.5 276 c 256,75,76
 -56 294 -56 294 -38 301 c 257,77,78
 -44 324 -44 324 -64 338.5 c 256,79,80
 -84 353 -84 353 -109 353 c 256,81,82
 -138 353 -138 353 -157 330.5 c 256,83,84
 -176 308 -176 308 -176 276 c 256,85,86
 -176 153 -176 153 0 52 c 257,87,-1
 195 384 l 257,88,-1
 256 384 l 257,89,-1
 47 27 l 257,90,91
 143 -26 143 -26 199.5 -85.5 c 256,92,93
 256 -145 256 -145 256 -224 c 256,94,95
 256 -291 256 -291 213 -337.5 c 256,96,97
 170 -384 170 -384 109 -384 c 256,98,99
 49 -384 49 -384 6.5 -339 c 256,100,101
 -36 -294 -36 -294 -36 -232 c 256,32,33
EndSplineSet
Validated: 16385
EndChar

StartChar: scripts.coda
Encoding: 57720 57720 144
Width: 260
Flags: W
HStem: -15 30<-274.999 -170 -95 -15 15 95 170 274.999>
VStem: -170 75<-133.336 -15 15 132.67> -15 30<-360.999 -253.143 -224 -15 15 224 253.143 360.999> 95 75<-132.67 -15 15 133.336>
CounterMasks: 1 70
LayerCount: 2
Fore
SplineSet
15 -346 m 258,0,1
 15 -352 15 -352 10.5 -356.5 c 256,2,3
 6 -361 6 -361 0 -361 c 256,4,5
 -6 -361 -6 -361 -10.5 -356.5 c 256,6,7
 -15 -352 -15 -352 -15 -346 c 258,8,-1
 -15 -255 l 257,9,10
 -86 -248 -86 -248 -126.5 -179 c 256,11,12
 -167 -110 -167 -110 -170 -15 c 257,13,-1
 -260 -15 l 258,14,15
 -266 -15 -266 -15 -270.5 -10.5 c 256,16,17
 -275 -6 -275 -6 -275 0 c 256,18,19
 -275 6 -275 6 -270.5 10.5 c 256,20,21
 -266 15 -266 15 -260 15 c 258,22,-1
 -170 15 l 257,23,24
 -167 109 -167 109 -126.5 178.5 c 256,25,26
 -86 248 -86 248 -15 255 c 257,27,-1
 -15 346 l 258,28,29
 -15 352 -15 352 -10.5 356.5 c 256,30,31
 -6 361 -6 361 0 361 c 256,32,33
 6 361 6 361 10.5 356.5 c 256,34,35
 15 352 15 352 15 346 c 258,36,-1
 15 255 l 257,37,38
 86 248 86 248 126.5 179 c 256,39,40
 167 110 167 110 170 15 c 257,41,-1
 260 15 l 258,42,43
 266 15 266 15 270.5 10.5 c 256,44,45
 275 6 275 6 275 0 c 256,46,47
 275 -6 275 -6 270.5 -10.5 c 256,48,49
 266 -15 266 -15 260 -15 c 258,50,-1
 170 -15 l 257,51,52
 167 -109 167 -109 126.5 -178.5 c 256,53,54
 86 -248 86 -248 15 -255 c 257,55,-1
 15 -346 l 258,0,1
15 15 m 257,56,-1
 95 15 l 257,57,58
 95 58 95 58 92 87.5 c 256,59,60
 89 117 89 117 82 149.5 c 256,61,62
 75 182 75 182 58 201 c 256,63,64
 41 220 41 220 15 224 c 257,65,-1
 15 15 l 257,56,-1
15 -15 m 257,66,-1
 15 -224 l 257,67,68
 41 -220 41 -220 58 -201 c 256,69,70
 75 -182 75 -182 82 -149.5 c 256,71,72
 89 -117 89 -117 92 -87.5 c 256,73,74
 95 -58 95 -58 95 -15 c 257,75,-1
 15 -15 l 257,66,-1
-15 15 m 257,76,-1
 -15 224 l 257,77,78
 -41 220 -41 220 -58 201 c 256,79,80
 -75 182 -75 182 -82 149.5 c 256,81,82
 -89 117 -89 117 -92 87.5 c 256,83,84
 -95 58 -95 58 -95 15 c 257,85,-1
 -15 15 l 257,76,-1
-15 -15 m 257,86,-1
 -95 -15 l 257,87,88
 -95 -58 -95 -58 -92 -87.5 c 256,89,90
 -89 -117 -89 -117 -82 -149.5 c 256,91,92
 -75 -182 -75 -182 -58 -201 c 256,93,94
 -41 -220 -41 -220 -15 -224 c 257,95,-1
 -15 -15 l 257,86,-1
EndSplineSet
Validated: 16385
EndChar

StartChar: scripts.varcoda
Encoding: 57721 57721 145
Width: 260
Flags: W
HStem: -256 31<-81 -15 15 81> -15 30<-274.999 -171 -81 -15 15 81 171 274.999> 225 31<-81 -15 15 81>
VStem: -171 90<-225 -15 15 225> -15 30<-360.999 -256 -225 -15 15 225 256 360.999> 81 90<-225 -15 15 225>
CounterMasks: 1 fc
LayerCount: 2
Fore
SplineSet
15 -346 m 258,0,1
 15 -352 15 -352 10.5 -356.5 c 256,2,3
 6 -361 6 -361 0 -361 c 256,4,5
 -6 -361 -6 -361 -10.5 -356.5 c 256,6,7
 -15 -352 -15 -352 -15 -346 c 258,8,-1
 -15 -256 l 257,9,-1
 -161 -256 l 258,10,11
 -171 -256 -171 -256 -171 -246 c 258,12,-1
 -171 -15 l 257,13,-1
 -260 -15 l 258,14,15
 -266 -15 -266 -15 -270.5 -10.5 c 256,16,17
 -275 -6 -275 -6 -275 0 c 256,18,19
 -275 6 -275 6 -270.5 10.5 c 256,20,21
 -266 15 -266 15 -260 15 c 258,22,-1
 -171 15 l 257,23,-1
 -171 246 l 258,24,25
 -171 256 -171 256 -161 256 c 258,26,-1
 -15 256 l 257,27,-1
 -15 346 l 258,28,29
 -15 352 -15 352 -10.5 356.5 c 256,30,31
 -6 361 -6 361 0 361 c 256,32,33
 6 361 6 361 10.5 356.5 c 256,34,35
 15 352 15 352 15 346 c 258,36,-1
 15 256 l 257,37,-1
 161 256 l 258,38,39
 171 256 171 256 171 246 c 258,40,-1
 171 15 l 257,41,-1
 260 15 l 258,42,43
 266 15 266 15 270.5 10.5 c 256,44,45
 275 6 275 6 275 0 c 256,46,47
 275 -6 275 -6 270.5 -10.5 c 256,48,49
 266 -15 266 -15 260 -15 c 258,50,-1
 171 -15 l 257,51,-1
 171 -246 l 258,52,53
 171 -256 171 -256 161 -256 c 258,54,-1
 91 -256 l 257,55,-1
 15 -256 l 257,56,-1
 15 -346 l 258,0,1
15 15 m 257,57,-1
 81 15 l 257,58,-1
 81 225 l 257,59,-1
 15 225 l 257,60,-1
 15 15 l 257,57,-1
15 -15 m 257,61,-1
 15 -225 l 257,62,-1
 81 -225 l 257,63,-1
 81 -15 l 257,64,-1
 15 -15 l 257,61,-1
-15 15 m 257,65,-1
 -15 225 l 257,66,-1
 -81 225 l 257,67,-1
 -81 15 l 257,68,-1
 -15 15 l 257,65,-1
-15 -15 m 257,69,-1
 -81 -15 l 257,70,-1
 -81 -225 l 257,71,-1
 -15 -225 l 257,72,-1
 -15 -15 l 257,69,-1
EndSplineSet
Validated: 16385
EndChar

StartChar: scripts.rcomma
Encoding: 57722 57722 146
Width: 128
Flags: MW
VStem: 51 64<-33.8953 95.4741>
LayerCount: 2
Fore
SplineSet
51 13 m 256,0,1
 51 53 51 53 34.5 84 c 256,2,3
 18 115 18 115 18 122 c 256,4,5
 18 138 18 138 29 149.5 c 256,6,7
 40 161 40 161 56 161 c 256,8,9
 84 161 84 161 99.5 127 c 256,10,11
 115 93 115 93 115 60 c 256,12,13
 115 -23 115 -23 26 -150 c 256,14,15
 21 -157 21 -157 12 -157 c 256,16,17
 -3 -157 -3 -157 -3 -141 c 256,18,19
 -3 -138 -3 -138 11 -116.5 c 256,20,21
 25 -95 25 -95 38 -59.5 c 256,22,23
 51 -24 51 -24 51 13 c 256,0,1
EndSplineSet
Validated: 1
EndChar

StartChar: scripts.lcomma
Encoding: 57723 57723 147
Width: 0
Flags: MW
VStem: -115 64<-95.4741 33.8953>
LayerCount: 2
Fore
SplineSet
-51 -13 m 256,0,1
 -51 -53 -51 -53 -34.5 -84 c 256,2,3
 -18 -115 -18 -115 -18 -122 c 256,4,5
 -18 -138 -18 -138 -29 -149.5 c 256,6,7
 -40 -161 -40 -161 -56 -161 c 256,8,9
 -84 -161 -84 -161 -99.5 -127 c 256,10,11
 -115 -93 -115 -93 -115 -60 c 256,12,13
 -115 23 -115 23 -26 150 c 256,14,15
 -21 157 -21 157 -12 157 c 256,16,17
 3 157 3 157 3 141 c 256,18,19
 3 138 3 138 -11 116.5 c 256,20,21
 -25 95 -25 95 -38 59.5 c 256,22,23
 -51 24 -51 24 -51 -13 c 256,0,1
EndSplineSet
Validated: 1
EndChar

StartChar: scripts.rvarcomma
Encoding: 57724 57724 148
Width: 62
Flags: MW
LayerCount: 2
Fore
SplineSet
-65 -169 m 256,0,1
 -79 -169 -79 -169 -79 -154 c 256,2,3
 -79 -150 -79 -150 -78 -147 c 258,4,-1
 29 168 l 258,5,6
 37 193 37 193 63 193 c 256,7,8
 80 193 80 193 91.5 181 c 256,9,10
 103 169 103 169 103 154 c 256,11,12
 103 150 103 150 99 139 c 258,13,-1
 -50 -160 l 258,14,15
 -56 -169 -56 -169 -65 -169 c 256,0,1
EndSplineSet
Validated: 1
EndChar

StartChar: scripts.lvarcomma
Encoding: 57725 57725 149
Width: 62
Flags: MW
LayerCount: 2
Fore
SplineSet
65 169 m 256,0,1
 79 169 79 169 79 154 c 256,2,3
 79 150 79 150 78 147 c 258,4,-1
 -29 -168 l 258,5,6
 -37 -193 -37 -193 -63 -193 c 256,7,8
 -80 -193 -80 -193 -91.5 -181 c 256,9,10
 -103 -169 -103 -169 -103 -154 c 256,11,12
 -103 -150 -103 -150 -99 -139 c 258,13,-1
 50 160 l 258,14,15
 56 169 56 169 65 169 c 256,0,1
EndSplineSet
Validated: 1
EndChar

StartChar: scripts.arpeggio
Encoding: 57726 57726 150
Width: 256
Flags: MW
DStem2: -53 63 -3 75 0.63673 0.771086<-10.113 74.0986> 259 130 309 141 0.639607 0.768702<-33.0663 51.3057>
LayerCount: 2
Fore
SplineSet
179 -1 m 256,0,1
 161 -1 161 -1 142 22 c 256,2,3
 123 45 123 45 98 68 c 256,4,5
 74 92 74 92 45 92 c 256,6,7
 17 92 17 92 -3 75 c 257,8,-1
 -29 43 l 258,9,10
 -33 37 -33 37 -41 37 c 256,11,12
 -47 37 -47 37 -52 42 c 256,13,14
 -57 46 -57 46 -57 53 c 256,15,16
 -57 59 -57 59 -53 63 c 258,17,-1
 56 195 l 258,18,19
 64 206 64 206 77 206 c 256,20,21
 95 206 95 206 114 183 c 256,22,23
 133 160 133 160 158 136 c 256,24,25
 182 113 182 113 211 113 c 256,26,27
 239 113 239 113 259 130 c 257,28,-1
 285 162 l 258,29,30
 289 168 289 168 297 168 c 256,31,32
 303 168 303 168 308 164 c 256,33,34
 313 159 313 159 313 152 c 256,35,36
 313 146 313 146 309 141 c 258,37,-1
 200 10 l 258,38,39
 191 -1 191 -1 179 -1 c 256,0,1
EndSplineSet
Validated: 1
EndChar

StartChar: scripts.trill_element
Encoding: 57727 57727 151
Width: 256
VWidth: 1224
Flags: MW
DStem2: -53 263 -29 243 0.63673 0.771086<-10.113 74.7242> 259 330 309 341 0.639607 0.768702<-33.0663 51.3057>
LayerCount: 2
Fore
SplineSet
179 199 m 256,0,1
 161 199 161 199 142 222 c 256,2,3
 123 245 123 245 98 268 c 256,4,5
 74 292 74 292 45 292 c 256,6,7
 17 292 17 292 -3 275 c 257,8,-1
 -29 243 l 258,9,10
 -33 237 -33 237 -41 237 c 256,11,12
 -47 237 -47 237 -52 242 c 256,13,14
 -57 246 -57 246 -57 253 c 256,15,16
 -57 259 -57 259 -53 263 c 258,17,-1
 56 395 l 258,18,19
 64 406 64 406 77 406 c 256,20,21
 95 406 95 406 114 383 c 256,22,23
 133 360 133 360 158 336 c 256,24,25
 182 313 182 313 211 313 c 256,26,27
 239 313 239 313 259 330 c 257,28,-1
 285 362 l 258,29,30
 289 368 289 368 297 368 c 256,31,32
 303 368 303 368 308 364 c 256,33,34
 313 359 313 359 313 352 c 256,35,36
 313 346 313 346 309 341 c 258,37,-1
 200 210 l 258,38,39
 191 199 191 199 179 199 c 256,0,1
EndSplineSet
Validated: 16385
EndChar

StartChar: scripts.arpeggio.arrow.M1
Encoding: 57728 57728 152
Width: 238
VWidth: 969
Flags: W
HStem: 48 314
VStem: 9 327
LayerCount: 2
Fore
SplineSet
266 162 m 258,0,1
 271 169 271 169 278 168 c 256,2,3
 285 167 285 167 290 162 c 256,4,5
 292 160 292 160 294 152 c 256,6,7
 295 147 295 147 290 142 c 258,8,-1
 196 52 l 258,9,10
 178 38 178 38 152 32 c 257,11,-1
 190 -48 l 258,12,13
 193 -53 193 -53 193 -56 c 0,14,15
 193 -63 193 -63 186 -62 c 256,16,17
 177 -60 177 -60 148 -30 c 256,18,19
 125 -6 125 -6 70 40 c 256,20,21
 18 83 18 83 -16 96 c 257,22,23
 -20 96 -20 96 -20 104 c 256,24,25
 -19 107 -19 107 -17.5 107.5 c 260,26,27
 22 121 22 121 70.5 162.5 c 256,28,29
 116.5 202.5 116.5 202.5 147.5 234.5 c 256,30,31
 178.5 265.5 178.5 265.5 185.5 265.5 c 256,32,33
 190.5 265.5 190.5 265.5 192.5 261.5 c 256,34,35
 193.5 257.5 193.5 257.5 191.5 252.5 c 258,36,-1
 146.5 158.5 l 257,37,38
 152.5 154.5 152.5 154.5 162.5 144.5 c 256,39,40
 173.5 135.5 173.5 135.5 180.5 130.5 c 256,41,42
 186.5 124.5 186.5 124.5 195.5 120.5 c 256,43,44
 204.5 115.5 204.5 115.5 211.5 115.5 c 256,45,46
 227.5 115.5 227.5 115.5 239.5 129.5 c 258,47,-1
 266 162 l 258,0,1
EndSplineSet
Validated: 33
EndChar

StartChar: scripts.arpeggio.arrow.1
Encoding: 57729 57729 153
Width: 200
VWidth: 1027
Flags: W
HStem: 154 314
VStem: -70 327
LayerCount: 2
Fore
SplineSet
-28.5 42.5 m 258,0,1
 -33.5 36.5 -33.5 36.5 -41.5 36.5 c 256,2,3
 -48.5 36.5 -48.5 36.5 -53.5 41.5 c 256,4,5
 -57.5 46.5 -57.5 46.5 -57.5 52.5 c 256,6,7
 -57.5 57.5 -57.5 57.5 -52.5 63.5 c 258,8,-1
 41.5 151.5 l 258,9,10
 58.5 166.5 58.5 166.5 84.5 171.5 c 257,11,-1
 46.5 251.5 l 258,12,13
 43.9209 256.658 43.9209 256.658 43.9209 259.915 c 0,14,15
 43.9209 265.5 43.9209 265.5 51.5 265.5 c 256,16,17
 58.5 265.5 58.5 265.5 88.5 234.5 c 256,18,19
 119.5 202.5 119.5 202.5 166.5 162.5 c 256,20,21
 212.5 123.5 212.5 123.5 253.5 108.5 c 257,22,23
 256.5 108.5 256.5 108.5 256.5 101.5 c 256,24,25
 256.5 98.5 256.5 98.5 254.5 96.5 c 257,26,27
 213.5 81.5 213.5 81.5 166.5 41.5 c 256,28,29
 119.5 1.5 119.5 1.5 88.5 -29.5 c 256,30,31
 58.5 -61.5 58.5 -61.5 51.5 -61.5 c 256,32,33
 46.5 -61.5 46.5 -61.5 44.5 -57.5 c 256,34,35
 43.5 -53.5 43.5 -53.5 45.5 -48.5 c 258,36,-1
 90.5 45.5 l 257,37,38
 84.5 49.5 84.5 49.5 74.5 58.5 c 256,39,40
 61.5 70.5 61.5 70.5 56.5 74.5 c 256,41,42
 50.5 79.5 50.5 79.5 41.5 84.5 c 256,43,44
 32.5 88.5 32.5 88.5 25.5 88.5 c 256,45,46
 9.5 88.5 9.5 88.5 -2.5 74.5 c 258,47,-1
 -28.5 42.5 l 258,0,1
EndSplineSet
Validated: 1
EndChar

StartChar: scripts.trilelement
Encoding: 57730 57730 154
Width: 214
VWidth: 1152
Flags: W
HStem: 128 256
VStem: 203 248
LayerCount: 2
Fore
SplineSet
27 129 m 257,0,-1
 19 117 l 257,1,-1
 -15 139 l 257,2,-1
 57 247 l 258,3,4
 63 256 63 256 74 256 c 256,5,6
 83 256 83 256 90 249 c 258,7,-1
 191 127 l 257,8,-1
 199 139 l 257,9,-1
 233 117 l 257,10,-1
 161 9 l 258,11,12
 155 0 155 0 144 0 c 256,13,14
 135 0 135 0 128 7 c 258,15,-1
 27 129 l 257,0,-1
EndSplineSet
Validated: 1
EndChar

StartChar: scripts.prall
Encoding: 57731 57731 155
Width: 469
VWidth: 1152
Flags: MW
HStem: 128 256
LayerCount: 2
Back
SplineSet
477 175 m 258,0,1
 483 184 483 184 494 184 c 256,2,3
 502 184 502 184 508 178 c 256,4,5
 514 172 514 172 514 164 c 256,6,7
 514 157 514 157 511 153 c 258,8,-1
 416 9 l 258,9,10
 410 0 410 0 398 0 c 256,11,12
 389 0 389 0 383 7 c 258,13,-1
 283 129 l 257,14,-1
 203 9 l 258,15,16
 197 0 197 0 185 0 c 256,17,18
 176 0 176 0 170 7 c 258,19,-1
 69 129 l 257,20,-1
 37 81 l 258,21,22
 31 72 31 72 20 72 c 256,23,24
 12 72 12 72 6 78 c 256,25,26
 0 84 0 84 0 92 c 256,27,28
 0 99 0 99 3 103 c 258,29,-1
 98 247 l 258,30,31
 104 256 104 256 116 256 c 256,32,33
 125 256 125 256 131 249 c 258,34,-1
 231 127 l 257,35,-1
 311 247 l 258,36,37
 317 256 317 256 329 256 c 256,38,39
 338 256 338 256 344 249 c 258,40,-1
 445 127 l 257,41,-1
 477 175 l 258,0,1
EndSplineSet
Fore
SplineSet
477 175 m 258,0,1
 483 184 483 184 494 184 c 256,2,3
 502 184 502 184 508 178 c 256,4,5
 514 172 514 172 514 164 c 256,6,7
 514 157 514 157 511 153 c 258,8,-1
 416 9 l 258,9,10
 410 0 410 0 398 0 c 256,11,12
 389 0 389 0 383 7 c 258,13,-1
 283 129 l 257,14,-1
 203 9 l 258,15,16
 197 0 197 0 185 0 c 256,17,18
 176 0 176 0 170 7 c 258,19,-1
 69 129 l 257,20,-1
 37 81 l 258,21,22
 31 72 31 72 20 72 c 256,23,24
 12 72 12 72 6 78 c 256,25,26
 0 84 0 84 0 92 c 256,27,28
 0 99 0 99 3 103 c 258,29,-1
 98 247 l 258,30,31
 104 256 104 256 116 256 c 256,32,33
 125 256 125 256 131 249 c 258,34,-1
 231 127 l 257,35,-1
 311 247 l 258,36,37
 317 256 317 256 329 256 c 256,38,39
 338 256 338 256 344 249 c 258,40,-1
 445 127 l 257,41,-1
 477 175 l 258,0,1
EndSplineSet
Validated: 16385
EndChar

StartChar: scripts.mordent
Encoding: 57732 57732 156
Width: 469
VWidth: 1150
Flags: W
VStem: 237 40<-44.9985 58 194 296.999>
LayerCount: 2
Fore
SplineSet
277 -25 m 258,0,1
 277 -33 277 -33 271 -39 c 256,2,3
 265 -45 265 -45 257 -45 c 256,4,5
 249 -45 249 -45 243 -39 c 256,6,7
 237 -33 237 -33 237 -25 c 258,8,-1
 237 58 l 257,9,-1
 203 7 l 258,10,11
 197 -2 197 -2 185 -2 c 256,12,13
 176 -2 176 -2 170 5 c 258,14,-1
 69 127 l 257,15,-1
 37 79 l 258,16,17
 31 70 31 70 20 70 c 256,18,19
 12 70 12 70 6 76 c 256,20,21
 0 82 0 82 0 90 c 256,22,23
 0 97 0 97 3 101 c 258,24,-1
 98 245 l 258,25,26
 104 254 104 254 116 254 c 256,27,28
 125 254 125 254 131 247 c 258,29,-1
 231 125 l 257,30,-1
 237 132 l 257,31,-1
 237 277 l 258,32,33
 237 285 237 285 243 291 c 256,34,35
 249 297 249 297 257 297 c 256,36,37
 265 297 265 297 271 291 c 256,38,39
 277 285 277 285 277 277 c 258,40,-1
 277 194 l 257,41,-1
 311 245 l 258,42,43
 317 254 317 254 329 254 c 256,44,45
 338 254 338 254 344 247 c 258,46,-1
 445 125 l 257,47,-1
 477 173 l 258,48,49
 483 182 483 182 494 182 c 256,50,51
 502 182 502 182 508 176 c 256,52,53
 514 170 514 170 514 162 c 256,54,55
 514 155 514 155 511 151 c 258,56,-1
 416 7 l 258,57,58
 410 -2 410 -2 398 -2 c 256,59,60
 389 -2 389 -2 383 5 c 258,61,-1
 283 127 l 257,62,-1
 277 120 l 257,63,-1
 277 -25 l 258,0,1
EndSplineSet
Validated: 16385
EndChar

StartChar: scripts.prallprall
Encoding: 57733 57733 157
Width: 684
VWidth: 1152
Flags: MW
LayerCount: 2
Fore
SplineSet
692 175 m 258,0,1
 698 184 698 184 709 184 c 256,2,3
 717 184 717 184 723.5 178 c 256,4,5
 730 172 730 172 730 164 c 256,6,7
 730 159 730 159 725 153 c 258,8,-1
 630 9 l 258,9,10
 624 0 624 0 614 0 c 256,11,12
 604 0 604 0 597 7 c 258,13,-1
 497 129 l 257,14,-1
 417 9 l 258,15,16
 411 0 411 0 400 0 c 256,17,18
 391 0 391 0 384 7 c 258,19,-1
 283 129 l 257,20,-1
 203 9 l 258,21,22
 197 0 197 0 187 0 c 256,23,24
 177 0 177 0 170 7 c 258,25,-1
 70 129 l 257,26,-1
 38 81 l 258,27,28
 32 72 32 72 21 72 c 256,29,30
 13 72 13 72 6.5 78 c 256,31,32
 0 84 0 84 0 92 c 256,33,34
 0 97 0 97 5 103 c 258,35,-1
 100 247 l 258,36,37
 106 256 106 256 117 256 c 256,38,39
 126 256 126 256 133 249 c 258,40,-1
 233 127 l 257,41,-1
 313 247 l 258,42,43
 319 256 319 256 330 256 c 256,44,45
 339 256 339 256 346 249 c 258,46,-1
 447 127 l 257,47,-1
 527 247 l 258,48,49
 533 256 533 256 543 256 c 256,50,51
 553 256 553 256 560 249 c 258,52,-1
 660 127 l 257,53,-1
 692 175 l 258,0,1
EndSplineSet
Validated: 16385
EndChar

StartChar: scripts.prallmordent
Encoding: 57734 57734 158
Width: 684
VWidth: 1149
Flags: W
VStem: 451 41<-45.9985 57 193 295.999>
LayerCount: 2
Fore
SplineSet
492 -26 m 258,0,1
 492 -34 492 -34 486 -40 c 256,2,3
 480 -46 480 -46 471.5 -46 c 256,4,5
 463 -46 463 -46 457 -40 c 256,6,7
 451 -34 451 -34 451 -26 c 258,8,-1
 451 57 l 257,9,-1
 417 6 l 258,10,11
 411 -3 411 -3 400 -3 c 256,12,13
 391 -3 391 -3 384 4 c 258,14,-1
 283 126 l 257,15,-1
 203 6 l 258,16,17
 197 -3 197 -3 187 -3 c 256,18,19
 177 -3 177 -3 170 4 c 258,20,-1
 70 126 l 257,21,-1
 38 78 l 258,22,23
 32 69 32 69 21 69 c 256,24,25
 13 69 13 69 6.5 75 c 256,26,27
 0 81 0 81 0 89 c 256,28,29
 0 94 0 94 5 100 c 258,30,-1
 100 244 l 258,31,32
 106 253 106 253 117 253 c 256,33,34
 126 253 126 253 133 246 c 258,35,-1
 233 124 l 257,36,-1
 313 244 l 258,37,38
 319 253 319 253 330 253 c 256,39,40
 339 253 339 253 346 246 c 258,41,-1
 447 124 l 257,42,-1
 451 131 l 257,43,-1
 451 276 l 258,44,45
 451 284 451 284 457 290 c 256,46,47
 463 296 463 296 471.5 296 c 256,48,49
 480 296 480 296 486 290 c 256,50,51
 492 284 492 284 492 276 c 258,52,-1
 492 193 l 257,53,-1
 527 244 l 258,54,55
 533 253 533 253 543 253 c 256,56,57
 553 253 553 253 560 246 c 258,58,-1
 660 124 l 257,59,-1
 692 172 l 258,60,61
 698 181 698 181 709 181 c 256,62,63
 717 181 717 181 723.5 175 c 256,64,65
 730 169 730 169 730 161 c 256,66,67
 730 156 730 156 725 150 c 258,68,-1
 630 6 l 258,69,70
 624 -3 624 -3 614 -3 c 256,71,72
 604 -3 604 -3 597 4 c 258,73,-1
 497 126 l 257,74,-1
 492 119 l 257,75,-1
 492 -26 l 258,0,1
EndSplineSet
Validated: 16385
EndChar

StartChar: scripts.upprall
Encoding: 57735 57735 159
Width: 721
VWidth: 1152
Flags: W
VStem: 0 41<-127.6 56.1548>
DStem2: 42 103 75 81 0.550681 0.834716<-86.8714 57.4969> 697 127 762 153 0.550681 0.834716<0 69.3008>
LayerCount: 2
Fore
SplineSet
58 -184 m 256,0,1
 39 -184 39 -184 19.5 -134 c 256,2,3
 0 -84 0 -84 0 -36 c 256,4,5
 0 40 0 40 42 103 c 258,6,-1
 137 247 l 258,7,8
 143 256 143 256 154 256 c 256,9,10
 163 256 163 256 170 249 c 258,11,-1
 270 127 l 257,12,-1
 350 247 l 258,13,14
 356 256 356 256 367 256 c 256,15,16
 376 256 376 256 383 249 c 258,17,-1
 484 127 l 257,18,-1
 564 247 l 258,19,20
 570 256 570 256 580 256 c 256,21,22
 590 256 590 256 597 249 c 258,23,-1
 697 127 l 257,24,-1
 729 175 l 258,25,26
 735 184 735 184 746 184 c 256,27,28
 754 184 754 184 760.5 178 c 256,29,30
 767 172 767 172 767 164 c 256,31,32
 767 159 767 159 762 153 c 258,33,-1
 667 9 l 258,34,35
 661 0 661 0 651 0 c 256,36,37
 641 0 641 0 634 7 c 258,38,-1
 534 129 l 257,39,-1
 454 9 l 258,40,41
 448 0 448 0 437 0 c 256,42,43
 428 0 428 0 421 7 c 258,44,-1
 320 129 l 257,45,-1
 240 9 l 258,46,47
 234 0 234 0 224 0 c 256,48,49
 214 0 214 0 207 7 c 258,50,-1
 107 129 l 257,51,-1
 75 81 l 258,52,53
 41 30 41 30 41 -36 c 256,54,55
 41 -70 41 -70 50.5 -98.5 c 256,56,57
 60 -127 60 -127 69 -143.5 c 256,58,59
 78 -160 78 -160 78 -164 c 256,60,61
 78 -172 78 -172 72 -178 c 256,62,63
 66 -184 66 -184 58 -184 c 256,0,1
EndSplineSet
Validated: 16385
EndChar

StartChar: scripts.upmordent
Encoding: 57736 57736 160
Width: 721
VWidth: 1152
Flags: MW
VStem: 0 41<-127.6 56.1548> 488 41<-42.9985 60 196 298.999>
LayerCount: 2
Fore
SplineSet
58 -184 m 256,0,1
 39 -184 39 -184 19.5 -134 c 256,2,3
 0 -84 0 -84 0 -36 c 256,4,5
 0 40 0 40 42 103 c 258,6,-1
 137 247 l 258,7,8
 143 256 143 256 154 256 c 256,9,10
 163 256 163 256 170 249 c 258,11,-1
 270 127 l 257,12,-1
 350 247 l 258,13,14
 356 256 356 256 367 256 c 256,15,16
 376 256 376 256 383 249 c 258,17,-1
 484 127 l 257,18,-1
 488 134 l 257,19,-1
 488 279 l 258,20,21
 488 287 488 287 494 293 c 256,22,23
 500 299 500 299 508.5 299 c 256,24,25
 517 299 517 299 523 293 c 256,26,27
 529 287 529 287 529 279 c 258,28,-1
 529 196 l 257,29,-1
 564 247 l 258,30,31
 570 256 570 256 580 256 c 256,32,33
 590 256 590 256 597 249 c 258,34,-1
 697 127 l 257,35,-1
 729 175 l 258,36,37
 735 184 735 184 746 184 c 256,38,39
 754 184 754 184 760.5 178 c 256,40,41
 767 172 767 172 767 164 c 256,42,43
 767 159 767 159 762 153 c 258,44,-1
 667 9 l 258,45,46
 661 0 661 0 651 0 c 256,47,48
 641 0 641 0 634 7 c 258,49,-1
 534 129 l 257,50,-1
 529 122 l 257,51,-1
 529 -23 l 258,52,53
 529 -31 529 -31 523 -37 c 256,54,55
 517 -43 517 -43 508.5 -43 c 256,56,57
 500 -43 500 -43 494 -37 c 256,58,59
 488 -31 488 -31 488 -23 c 258,60,-1
 488 60 l 257,61,-1
 454 9 l 258,62,63
 448 0 448 0 437 0 c 256,64,65
 428 0 428 0 421 7 c 258,66,-1
 320 129 l 257,67,-1
 240 9 l 258,68,69
 234 0 234 0 224 0 c 256,70,71
 214 0 214 0 207 7 c 258,72,-1
 107 129 l 257,73,-1
 75 81 l 258,74,75
 41 30 41 30 41 -36 c 256,76,77
 41 -70 41 -70 50.5 -98.5 c 256,78,79
 60 -127 60 -127 69 -143.5 c 256,80,81
 78 -160 78 -160 78 -164 c 256,82,83
 78 -172 78 -172 72 -178 c 256,84,85
 66 -184 66 -184 58 -184 c 256,0,1
EndSplineSet
Validated: 16385
EndChar

StartChar: scripts.pralldown
Encoding: 57737 57737 161
Width: 684
VWidth: 1152
Flags: MW
VStem: 726 41<-127.6 56.1548>
LayerCount: 2
Fore
SplineSet
709 -184 m 256,0,1
 701 -184 701 -184 695 -178 c 256,2,3
 689 -172 689 -172 689 -164 c 256,4,5
 689 -160 689 -160 698 -143.5 c 256,6,7
 707 -127 707 -127 716.5 -98.5 c 256,8,9
 726 -70 726 -70 726 -36 c 256,10,11
 726 30 726 30 692 81 c 258,12,-1
 660 129 l 257,13,-1
 560 7 l 258,14,15
 554 0 554 0 543.5 0 c 256,16,17
 533 0 533 0 527 9 c 258,18,-1
 447 129 l 257,19,-1
 346 7 l 258,20,21
 340 0 340 0 330 0 c 256,22,23
 319 0 319 0 313 9 c 258,24,-1
 233 129 l 257,25,-1
 133 7 l 258,26,27
 127 0 127 0 116.5 0 c 256,28,29
 106 0 106 0 100 9 c 258,30,-1
 5 153 l 258,31,32
 1 159 1 159 0 164 c 257,33,34
 0 172 0 172 6.5 178 c 256,35,36
 13 184 13 184 21 184 c 256,37,38
 32 184 32 184 38 175 c 258,39,-1
 70 127 l 257,40,-1
 170 249 l 258,41,42
 176 256 176 256 186.5 256 c 256,43,44
 197 256 197 256 203 247 c 258,45,-1
 283 127 l 257,46,-1
 384 249 l 258,47,48
 390 256 390 256 400 256 c 256,49,50
 411 256 411 256 417 247 c 258,51,-1
 497 127 l 257,52,-1
 597 249 l 258,53,54
 603 256 603 256 613 256 c 256,55,56
 624 256 624 256 630 247 c 258,57,-1
 725 103 l 258,58,59
 767 40 767 40 767 -36 c 256,60,61
 767 -84 767 -84 747.5 -134 c 256,62,63
 728 -184 728 -184 709 -184 c 256,0,1
EndSplineSet
Validated: 16385
EndChar

StartChar: scripts.downprall
Encoding: 57738 57738 162
Width: 721
VWidth: 1152
Flags: MW
VStem: 0 41<133.18 312.301> 20 58.2734<301.916 360.275>
LayerCount: 2
Fore
SplineSet
0 220 m 256,0,1
 0 271 0 271 20 320 c 256,2,3
 40 369 40 369 58 369 c 256,4,5
 70 369 70 369 76 358 c 256,6,7
 78.2734 352.545 78.2734 352.545 78.2734 347.711 c 0,8,9
 78.2734 341.909 78.2734 341.909 75 337 c 256,10,11
 41 286 41 286 41 220 c 256,12,13
 41 172 41 172 60 132 c 257,14,-1
 137 247 l 258,15,16
 143 256 143 256 154 256 c 256,17,18
 163 256 163 256 170 249 c 258,19,-1
 270 127 l 257,20,-1
 350 247 l 258,21,22
 356 256 356 256 367 256 c 256,23,24
 376 256 376 256 383 249 c 258,25,-1
 484 127 l 257,26,-1
 564 247 l 258,27,28
 570 256 570 256 580 256 c 256,29,30
 590 256 590 256 597 249 c 258,31,-1
 697 127 l 257,32,-1
 729 175 l 258,33,34
 735 184 735 184 746 184 c 256,35,36
 754 184 754 184 760 178 c 256,37,38
 767 172 767 172 767 164 c 256,39,40
 767 159 767 159 762 153 c 258,41,-1
 667 9 l 258,42,43
 661 0 661 0 651 0 c 256,44,45
 641 0 641 0 634 7 c 258,46,-1
 534 129 l 257,47,-1
 454 9 l 258,48,49
 448 0 448 0 437 0 c 256,50,51
 428 0 428 0 421 7 c 258,52,-1
 320 129 l 257,53,-1
 240 9 l 258,54,55
 234 0 234 0 224 0 c 256,56,57
 214 0 214 0 207 7 c 258,58,-1
 107 129 l 257,59,-1
 75 81 l 258,60,61
 69 72 69 72 58 72 c 256,62,63
 38 72 38 72 19 122 c 256,64,65
 0 173 0 173 0 220 c 256,0,1
EndSplineSet
Validated: 1
EndChar

StartChar: scripts.downmordent
Encoding: 57739 57739 163
Width: 721
VWidth: 1152
Flags: MW
VStem: 0 41<133.18 312.301> 20 58.2734<301.916 360.275> 488 41<-36.812 60 196 292.812>
LayerCount: 2
Fore
SplineSet
0 220 m 256,0,1
 0 271 0 271 20 320 c 256,2,3
 40 369 40 369 58 369 c 256,4,5
 70 369 70 369 76 358 c 256,6,7
 78.2734 352.545 78.2734 352.545 78.2734 347.711 c 0,8,9
 78.2734 341.909 78.2734 341.909 75 337 c 256,10,11
 41 286 41 286 41 220 c 256,12,13
 41 172 41 172 60 132 c 257,14,-1
 137 247 l 258,15,16
 143 256 143 256 154 256 c 256,17,18
 163 256 163 256 170 249 c 258,19,-1
 270 127 l 257,20,-1
 350 247 l 258,21,22
 356 256 356 256 367 256 c 256,23,24
 376 256 376 256 383 249 c 258,25,-1
 484 127 l 257,26,-1
 488 134 l 257,27,-1
 488 279 l 258,28,29
 488 287 488 287 494 293 c 256,30,31
 500 299 500 299 508 299 c 256,32,33
 517 299 517 299 523 293 c 256,34,35
 529 287 529 287 529 279 c 258,36,-1
 529 196 l 257,37,-1
 564 247 l 258,38,39
 570 256 570 256 580 256 c 256,40,41
 590 256 590 256 597 249 c 258,42,-1
 697 127 l 257,43,-1
 729 175 l 258,44,45
 735 184 735 184 746 184 c 256,46,47
 754 184 754 184 760 178 c 256,48,49
 767 172 767 172 767 164 c 256,50,51
 767 159 767 159 762 153 c 258,52,-1
 667 9 l 258,53,54
 661 0 661 0 651 0 c 256,55,56
 641 0 641 0 634 7 c 258,57,-1
 534 129 l 257,58,-1
 529 122 l 257,59,-1
 529 -23 l 258,60,61
 529 -31 529 -31 523 -37 c 256,62,63
 517 -43 517 -43 508 -43 c 256,64,65
 500 -43 500 -43 494 -37 c 256,66,67
 488 -31 488 -31 488 -23 c 258,68,-1
 488 60 l 257,69,-1
 454 9 l 258,70,71
 448 0 448 0 437 0 c 256,72,73
 428 0 428 0 421 7 c 258,74,-1
 320 129 l 257,75,-1
 240 9 l 258,76,77
 234 0 234 0 224 0 c 256,78,79
 214 0 214 0 207 7 c 258,80,-1
 107 129 l 257,81,-1
 75 81 l 258,82,83
 69 72 69 72 58 72 c 256,84,85
 38 72 38 72 19 122 c 256,86,87
 0 173 0 173 0 220 c 256,0,1
EndSplineSet
Validated: 1
EndChar

StartChar: scripts.prallup
Encoding: 57740 57740 164
Width: 684
VWidth: 1152
Flags: MW
VStem: 726 41<133.378 312.301>
LayerCount: 2
Fore
SplineSet
767 220 m 256,0,1
 767 173 767 173 748.5 122.5 c 256,2,3
 730 72 730 72 709 72 c 256,4,5
 698 72 698 72 692 81 c 258,6,-1
 660 129 l 257,7,-1
 560 7 l 258,8,9
 554 0 554 0 543.5 0 c 256,10,11
 533 0 533 0 527 9 c 258,12,-1
 447 129 l 257,13,-1
 346 7 l 258,14,15
 340 0 340 0 330 0 c 256,16,17
 319 0 319 0 313 9 c 258,18,-1
 233 129 l 257,19,-1
 133 7 l 258,20,21
 127 0 127 0 116.5 0 c 256,22,23
 106 0 106 0 100 9 c 258,24,-1
 5 153 l 258,25,26
 1 159 1 159 0 164 c 257,27,28
 0 172 0 172 6.5 178 c 256,29,30
 13 184 13 184 21 184 c 256,31,32
 32 184 32 184 38 175 c 258,33,-1
 70 127 l 257,34,-1
 170 249 l 258,35,36
 176 256 176 256 186.5 256 c 256,37,38
 197 256 197 256 203 247 c 258,39,-1
 283 127 l 257,40,-1
 384 249 l 258,41,42
 390 256 390 256 400 256 c 256,43,44
 411 256 411 256 417 247 c 258,45,-1
 497 127 l 257,46,-1
 597 249 l 258,47,48
 603 256 603 256 613 256 c 256,49,50
 624 256 624 256 630 247 c 258,51,-1
 707 132 l 257,52,53
 726 172 726 172 726 220 c 256,54,55
 726 286 726 286 692 337 c 256,56,57
 689 342 689 342 689 348 c 256,58,59
 689 353 689 353 692 358 c 256,60,61
 697 369 697 369 709 369 c 256,62,63
 727 369 727 369 747 320 c 256,64,65
 767 271 767 271 767 220 c 256,0,1
EndSplineSet
Validated: 16385
EndChar

StartChar: scripts.lineprall
Encoding: 57741 57741 165
Width: 684
VWidth: 1152
Flags: MW
VStem: 0 41<160 624.986>
LayerCount: 2
Fore
SplineSet
692 175 m 258,0,1
 698 184 698 184 709 184 c 256,2,3
 717 184 717 184 723.5 178 c 256,4,5
 730 172 730 172 730 164 c 256,6,7
 730 159 730 159 725 153 c 258,8,-1
 630 9 l 258,9,10
 624 0 624 0 613 0 c 256,11,12
 604 0 604 0 597 7 c 258,13,-1
 497 129 l 257,14,-1
 417 9 l 258,15,16
 411 0 411 0 400 0 c 256,17,18
 391 0 391 0 384 7 c 258,19,-1
 283 129 l 257,20,-1
 203 9 l 258,21,22
 197 0 197 0 187 0 c 256,23,24
 177 0 177 0 170 7 c 258,25,-1
 70 129 l 257,26,-1
 38 81 l 258,27,28
 32 72 32 72 21 72 c 256,29,30
 13 72 13 72 6.5 78 c 256,31,32
 0 84 0 84 0 92 c 258,33,-1
 0 604 l 258,34,35
 0 612 0 612 6.5 618.5 c 256,36,37
 13 625 13 625 21 625 c 256,38,39
 29 625 29 625 35 618.5 c 256,40,41
 41 612 41 612 41 604 c 258,42,-1
 41 160 l 257,43,-1
 100 247 l 258,44,45
 106 256 106 256 117 256 c 256,46,47
 126 256 126 256 133 249 c 258,48,-1
 233 127 l 257,49,-1
 313 247 l 258,50,51
 319 256 319 256 330 256 c 256,52,53
 339 256 339 256 346 249 c 258,54,-1
 447 127 l 257,55,-1
 527 247 l 258,56,57
 533 256 533 256 543 256 c 256,58,59
 553 256 553 256 560 249 c 258,60,-1
 660 127 l 257,61,-1
 692 175 l 258,0,1
EndSplineSet
Validated: 16385
EndChar

StartChar: scripts.caesura.curved
Encoding: 57742 57742 166
Width: 512
Flags: MW
VStem: 103 64<126.945 319.35> 257 64<127.266 310.687>
LayerCount: 2
Fore
SplineSet
289 321 m 256,0,1
 302 321 302 321 312 311 c 256,2,3
 321 301 321 301 321 288 c 256,4,5
 321 255 321 255 314 204 c 256,6,7
 307 153 307 153 276 40 c 256,8,9
 244 -74 244 -74 190 -194 c 256,10,11
 185 -205 185 -205 173 -205 c 256,12,13
 163 -205 163 -205 158 -196 c 256,14,15
 154.4 -190.6 154.4 -190.6 154.4 -185.2 c 0,16,17
 154.4 -181.6 154.4 -181.6 156 -178 c 256,18,19
 235 -1 235 -1 257 290 c 256,20,21
 258 303 258 303 268 312 c 256,22,23
 277 321 277 321 289 321 c 256,0,1
19 -205 m 256,24,25
 11 -205 11 -205 6 -199 c 256,26,27
 0 -193 0 -193 0 -185 c 256,28,29
 0 -180 0 -180 8 -162 c 256,30,31
 19 -138 19 -138 30 -106 c 256,32,33
 43 -69 43 -69 57 -18 c 256,34,35
 71 32 71 32 84 114 c 256,36,37
 95 181 95 181 103 290 c 256,38,39
 104 303 104 303 114 312 c 256,40,41
 123 321 123 321 135 321 c 256,42,43
 148 321 148 321 158 311 c 256,44,45
 167 301 167 301 167 288 c 256,46,47
 167 264 167 264 160 204 c 256,48,49
 154 153 154 153 122 40 c 256,50,51
 90 -74 90 -74 37 -194 c 257,52,53
 31 -205 31 -205 19 -205 c 256,24,25
EndSplineSet
Validated: 1
EndChar

StartChar: scripts.caesura.straight
Encoding: 57743 57743 167
Width: 512
Flags: W
DStem2: 9 -186 83 -186 0.447966 0.89405<0.644716 562.684> 153 -186 226 -186 0.44646 0.894804<0.340908 562.185>
LayerCount: 2
Fore
SplineSet
153 -186 m 258,0,-1
 390 289 l 258,1,2
 398 307 398 307 420 307 c 258,3,-1
 453 307 l 258,4,5
 465 307 465 307 465 295 c 256,6,7
 465 291 465 291 464 289 c 258,8,-1
 226 -186 l 258,9,10
 218 -204 218 -204 197 -205 c 258,11,-1
 164 -205 l 258,12,13
 157 -205 157 -205 154 -199 c 256,14,15
 152 -196 152 -196 152 -191 c 256,16,17
 152 -189 152 -189 153 -186 c 258,0,-1
9 -186 m 258,18,-1
 247 289 l 258,19,20
 255 307 255 307 276 307 c 258,21,-1
 309 307 l 258,22,23
 321 307 321 307 322 295 c 256,24,25
 322 291 322 291 321 289 c 258,26,-1
 83 -186 l 258,27,28
 75 -204 75 -204 53 -205 c 258,29,-1
 20 -205 l 258,30,31
 8 -205 8 -205 8 -193 c 256,32,33
 8 -188 8 -188 9 -186 c 258,18,-1
EndSplineSet
Validated: 16385
EndChar

StartChar: flags.u3
Encoding: 57744 57744 168
Width: 230
Flags: W
HStem: -20 20G<-16 0>
VStem: -16 16<-66.5464 0> 171 43<-682.94 -456.914>
LayerCount: 2
Fore
SplineSet
-16 -256 m 257,0,-1
 -16 0 l 257,1,-1
 0 0 l 257,2,3
 0 -55 0 -55 22 -114 c 256,4,5
 44 -172 44 -172 75 -222 c 256,6,7
 106 -272 106 -272 138 -323 c 256,8,9
 170 -374 170 -374 192 -432 c 256,10,11
 214 -490 214 -490 214 -546 c 256,12,13
 214 -648 214 -648 171 -758 c 257,14,15
 164 -770 164 -770 152 -770 c 256,16,17
 142 -770 142 -770 134 -762 c 256,18,19
 127.6 -755.6 127.6 -755.6 127.6 -746.64 c 0,20,21
 127.6 -744.4 127.6 -744.4 128 -742 c 257,22,23
 171 -641 171 -641 171 -546 c 256,24,25
 171 -496 171 -496 141 -438 c 256,26,27
 111 -380 111 -380 80 -344 c 256,28,29
 49 -307 49 -307 0 -256 c 257,30,-1
 -16 -256 l 257,0,-1
EndSplineSet
Validated: 1
EndChar

StartChar: flags.u4
Encoding: 57745 57745 169
Width: 230
Flags: W
HStem: -20 20G<-16 0>
VStem: -16 16<-512 -435 -275.792 -218 -61.4945 0> 171 43<-817.997 -614.461 -528.656 -409.85>
LayerCount: 2
Fore
SplineSet
0 0 m 257,0,1
 0 -49 0 -49 22 -102 c 256,2,3
 41 -149 41 -149 74 -197 c 256,4,5
 134 -285 134 -285 134 -285 c 256,6,7
 165 -329 165 -329 186 -380 c 256,8,9
 208 -431 208 -431 208 -481 c 256,10,11
 208 -528 208 -528 184 -579 c 257,12,13
 214 -640 214 -640 214 -698 c 256,14,15
 214 -789 214 -789 171 -886 c 257,16,17
 164 -898 164 -898 152 -898 c 256,18,19
 142 -898 142 -898 134 -890 c 256,20,21
 127.6 -883.6 127.6 -883.6 127.6 -874.64 c 0,22,23
 127.6 -872.4 127.6 -872.4 128 -870 c 257,24,25
 171 -784 171 -784 171 -698 c 256,26,27
 171 -663 171 -663 156 -626 c 256,28,29
 140 -590 140 -590 112 -554 c 256,30,31
 84 -518 84 -518 60 -492 c 256,32,33
 35 -467 35 -467 0 -435 c 257,34,-1
 0 -512 l 257,35,-1
 -16 -512 l 257,36,-1
 -16 0 l 257,37,-1
 0 0 l 257,0,1
157 -529 m 257,38,39
 164 -507 164 -507 164 -481 c 256,40,41
 164 -445 164 -445 150 -410 c 256,42,43
 135 -373 135 -373 108 -337 c 256,44,45
 80 -301 80 -301 57 -276 c 256,46,47
 34 -251 34 -251 0 -218 c 257,48,49
 0 -260 0 -260 17 -305 c 256,50,51
 33 -346 33 -346 54 -380 c 256,52,53
 73 -410 73 -410 108 -457 c 256,54,55
 142 -504 142 -504 157 -529 c 257,38,39
EndSplineSet
Validated: 1
EndChar

StartChar: flags.u5
Encoding: 57746 57746 170
Width: 212
Flags: W
HStem: -20 20G<-16 0>
VStem: -16 16<-768 -663 -500.997 -440 -278.418 -217 -61.6802 0> 154 44<-518.171 -398.028> 171 43<-1022.44 -825.817 -741.111 -620.94>
LayerCount: 2
Fore
SplineSet
0 -217 m 257,0,-1
 0 -222 l 258,1,2
 0 -265 0 -265 16 -305 c 256,3,4
 35 -354 35 -354 50 -376 c 256,5,6
 68 -403 68 -403 102 -450 c 256,7,8
 135 -498 135 -498 150 -519 c 257,9,10
 154 -504 154 -504 154 -485 c 256,11,12
 154 -441 154 -441 126 -386 c 256,13,14
 99 -333 99 -333 71 -298 c 256,15,16
 43 -264 43 -264 0 -217 c 257,0,-1
0 0 m 257,17,18
 0 -52 0 -52 20 -102 c 256,19,20
 40 -151 40 -151 70 -198 c 256,21,22
 128 -288 128 -288 128 -288 c 256,23,24
 157 -332 157 -332 178 -384 c 256,25,26
 198 -435 198 -435 198 -485 c 256,27,28
 198 -527 198 -527 178 -569 c 257,29,30
 208 -630 208 -630 208 -685 c 256,31,32
 208 -737 208 -737 183 -792 c 257,33,34
 214 -851 214 -851 214 -908 c 256,35,36
 214 -996 214 -996 171 -1087 c 257,37,38
 163 -1100 163 -1100 152 -1100 c 256,39,40
 142 -1100 142 -1100 134 -1092 c 256,41,42
 127.6 -1084.8 127.6 -1084.8 127.6 -1076.32 c 0,43,44
 127.6 -1074.2 127.6 -1074.2 128 -1072 c 257,45,46
 171 -989 171 -989 171 -908 c 256,47,48
 171 -845 171 -845 123 -785 c 256,49,50
 75 -725 75 -725 0 -663 c 257,51,-1
 0 -768 l 257,52,-1
 -16 -768 l 257,53,-1
 -16 0 l 257,54,-1
 0 0 l 257,17,18
0 -440 m 257,55,-1
 0 -445 l 258,56,57
 0 -486 0 -486 17 -529 c 256,58,59
 35 -576 35 -576 52 -600 c 256,60,61
 71 -628 71 -628 106 -674 c 256,62,63
 140 -720 140 -720 155 -742 c 257,64,65
 164 -714 164 -714 164 -685 c 256,66,67
 164 -641 164 -641 135 -592 c 256,68,69
 106 -543 106 -543 76 -512 c 256,70,71
 46 -481 46 -481 0 -440 c 257,55,-1
EndSplineSet
Validated: 1
EndChar

StartChar: flags.u6
Encoding: 57747 57747 171
Width: 212
Flags: W
HStem: -20 20G<-16 0>
VStem: -16 16<-1024 -908 -747.418 -678 -518.793 -447 -287.557 -217 -62.0515 0> 154 44<-530.207 -401.624> 164 44<-1296.14 -1064.98 -983.333 -844.705 -765.468 -613.705>
LayerCount: 2
Fore
SplineSet
0 -217 m 257,0,-1
 0 -230 l 258,1,2
 0 -273 0 -273 16 -314 c 256,3,4
 34 -360 34 -360 50 -386 c 256,5,6
 68 -415 68 -415 102 -462 c 256,7,8
 135 -510 135 -510 150 -531 c 257,9,10
 154 -515 154 -515 154 -494 c 256,11,12
 154 -458 154 -458 140 -420 c 256,13,14
 126 -382 126 -382 100 -344 c 256,15,16
 75 -306 75 -306 53 -279 c 256,17,18
 31 -252 31 -252 0 -217 c 257,0,-1
0 0 m 257,19,20
 0 -53 0 -53 20 -103 c 256,21,22
 42 -159 42 -159 70 -202 c 256,23,24
 99 -247 99 -247 128 -292 c 256,25,26
 157 -338 157 -338 178 -390 c 256,27,28
 198 -443 198 -443 198 -494 c 256,29,30
 198 -538 198 -538 178 -583 c 257,31,32
 208 -645 208 -645 208 -700 c 256,33,34
 208 -757 208 -757 178 -814 c 257,35,36
 208 -876 208 -876 208 -931 c 256,37,38
 208 -979 208 -979 172 -1022 c 257,39,40
 214 -1096 214 -1096 214 -1161 c 256,41,42
 214 -1252 214 -1252 171 -1345 c 257,43,44
 164 -1356 164 -1356 152 -1356 c 256,45,46
 142 -1356 142 -1356 134 -1348 c 256,47,48
 127.6 -1340.8 127.6 -1340.8 127.6 -1332.32 c 0,49,50
 127.6 -1330.2 127.6 -1330.2 128 -1328 c 257,51,52
 171 -1244 171 -1244 171 -1161 c 256,53,54
 171 -1124 171 -1124 156 -1091 c 256,55,56
 140 -1056 140 -1056 112 -1022 c 256,57,58
 83 -987 83 -987 59 -963 c 256,59,60
 35 -939 35 -939 0 -908 c 257,61,-1
 0 -1024 l 257,62,-1
 -16 -1024 l 257,63,-1
 -16 0 l 257,64,-1
 0 0 l 257,19,20
0 -447 m 257,65,-1
 0 -461 l 258,66,67
 0 -505 0 -505 16 -546 c 256,68,69
 31 -586 31 -586 52 -619 c 256,70,71
 70 -648 70 -648 104 -695 c 256,72,73
 137 -742 137 -742 152 -766 c 257,74,75
 164 -735 164 -735 164 -700 c 256,76,77
 164 -637 164 -637 118 -575 c 256,78,79
 72 -513 72 -513 0 -447 c 257,65,-1
0 -678 m 257,80,-1
 0 -691 l 258,81,82
 0 -734 0 -734 16 -774 c 256,83,84
 31 -812 31 -812 50 -843 c 256,85,86
 66 -869 66 -869 101 -918 c 256,87,88
 136 -966 136 -966 148 -984 c 257,89,90
 163 -960 163 -960 164 -931 c 257,91,92
 164 -868 164 -868 118 -806 c 256,93,94
 72 -744 72 -744 0 -678 c 257,80,-1
EndSplineSet
Validated: 1
EndChar

StartChar: flags.d3
Encoding: 57748 57748 172
Width: 275
Flags: W
HStem: 0 21G<-16 0>
VStem: -16 16<0 60.4214> 232 43<443.664 642.836>
LayerCount: 2
Fore
SplineSet
201 741 m 256,0,1
 225 741 225 741 250 666 c 256,2,3
 275 591 275 591 275 525 c 256,4,5
 275 469 275 469 247 412 c 256,6,7
 218 353 218 353 178 308 c 256,8,9
 96 216 96 216 96 216 c 256,10,11
 56 170 56 170 28 114 c 256,12,13
 0 57 0 57 0 0 c 257,14,-1
 -16 0 l 257,15,-1
 -16 256 l 257,16,-1
 0 256 l 257,17,18
 34 277 34 277 80 310 c 256,19,20
 115 335 115 335 152 370 c 256,21,22
 190 404 190 404 211 444 c 256,23,24
 232 484 232 484 232 525 c 256,25,26
 232 619 232 619 177 714 c 257,27,28
 176.6 716.2 176.6 716.2 176.6 718.28 c 0,29,30
 176.6 726.6 176.6 726.6 183 733 c 256,31,32
 191 741 191 741 201 741 c 256,0,1
EndSplineSet
Validated: 1
EndChar

StartChar: flags.ugrace
Encoding: 57749 57749 173
Width: 212
Flags: W
DStem2: 199 -237 229 -275 0.779012 0.627009<-488.562 15.2325>
LayerCount: 2
Fore
SplineSet
-170 -534 m 258,0,-1
 199 -237 l 258,1,2
 206 -232 206 -232 214 -231 c 256,3,4
 225 -231 225 -231 232 -238.5 c 256,5,6
 239 -246 239 -246 239 -256 c 256,7,8
 239 -269 239 -269 229 -275 c 258,9,-1
 -138 -572 l 258,10,11
 -145 -577 -145 -577 -154 -578 c 256,12,13
 -165 -578 -165 -578 -172 -570.5 c 256,14,15
 -179 -563 -179 -563 -179 -553 c 256,16,17
 -179 -540 -179 -540 -170 -534 c 258,0,-1
EndSplineSet
Validated: 16385
EndChar

StartChar: flags.dgrace
Encoding: 57750 57750 174
Width: 275
Flags: W
HStem: 228 322
DStem2: -186 547 -211 504 0.866551 -0.499089<-11.7597 558.526>
LayerCount: 2
Fore
SplineSet
-211 504 m 258,0,1
 -223 510 -223 510 -223 525 c 256,2,3
 -223 535 -223 535 -216 542.5 c 256,4,5
 -209 550 -209 550 -198 550 c 256,6,7
 -193 550 -193 550 -186 547 c 258,8,-1
 288 275 l 258,9,10
 301 268 301 268 301 254 c 256,11,12
 301 244 301 244 294 236 c 256,13,14
 287 228 287 228 275 228 c 256,15,16
 269 228 269 228 263 231 c 258,17,-1
 -211 504 l 258,0,1
EndSplineSet
Validated: 16385
EndChar

StartChar: flags.d4
Encoding: 57751 57751 175
Width: 275
Flags: W
HStem: 0 21G<-16 0> 492 20G<-16 0>
VStem: -16 16<0 53.3408 205 281.897 435 512> 219 43<372.297 519.007 679.877 761.234> 232 43<605.958 763.528>
LayerCount: 2
Fore
SplineSet
0 205 m 257,0,1
 49 234 49 234 76 252 c 256,2,3
 112 277 112 277 144 306 c 256,4,5
 179 338 179 338 199 374 c 256,6,7
 219 411 219 411 219 449 c 256,8,9
 219 486 219 486 205 520 c 257,10,11
 190 502 190 502 140 456 c 256,12,13
 95 414 95 414 70 387 c 256,14,15
 44 360 44 360 22 317 c 256,16,17
 0 274 0 274 0 230 c 258,18,-1
 0 205 l 257,0,1
275 679 m 256,19,20
 275 618 275 618 237 560 c 257,21,22
 262 506 262 506 262 449 c 256,23,24
 262 399 262 399 235 350 c 256,25,26
 206 297 206 297 170 262 c 256,27,28
 131 224 131 224 92 186 c 256,29,30
 54 147 54 147 27 99 c 256,31,32
 0 51 0 51 0 0 c 257,33,-1
 -16 0 l 257,34,-1
 -16 512 l 257,35,-1
 0 512 l 257,36,-1
 0 435 l 257,37,38
 232 556 232 556 232 679 c 256,39,40
 232 707 232 707 218 742 c 257,41,42
 217.6 744.2 217.6 744.2 217.6 746.32 c 0,43,44
 217.6 754.8 217.6 754.8 224 762 c 256,45,46
 231 770 231 770 242 770 c 256,47,48
 253 770 253 770 260 758 c 256,49,50
 268 745 268 745 270 727 c 256,51,52
 273 709 273 709 274 698 c 256,53,54
 275 687 275 687 275 679 c 256,19,20
EndSplineSet
Validated: 1
EndChar

StartChar: flags.d5
Encoding: 57752 57752 176
Width: 275
Flags: W
HStem: 0 21G<-16 0>
VStem: -16 16<0 56.4264 215 283.254 445 513.074 676 768> 211 43<388.822 519.984> 224 43<605.013 751.278> 232 43<835.557 981.113>
LayerCount: 2
Fore
SplineSet
0 215 m 257,0,1
 42 243 42 243 72 266 c 256,2,3
 103 290 103 290 138 323 c 256,4,5
 173 356 173 356 192 393 c 256,6,7
 211 430 211 430 211 468 c 256,8,9
 211 496 211 496 200 521 c 257,10,11
 180 497 180 497 137 456 c 256,12,13
 81 403 81 403 68 388 c 256,14,15
 43 360 43 360 22 317 c 256,16,17
 0 274 0 274 0 230 c 258,18,-1
 0 215 l 257,0,1
275 907 m 256,19,20
 275 847 275 847 237 790 c 257,21,22
 267 735 267 735 267 676 c 256,23,24
 267 618 267 618 229 560 c 257,25,26
 254 514 254 514 254 468 c 256,27,28
 254 417 254 417 228 366 c 256,29,30
 202 315 202 315 164 274 c 256,31,32
 90 194 90 194 90 194 c 256,33,34
 52 153 52 153 26 102 c 256,35,36
 0 52 0 52 0 0 c 257,37,-1
 -16 0 l 257,38,-1
 -16 768 l 257,39,-1
 0 768 l 257,40,-1
 0 676 l 257,41,42
 232 786 232 786 232 907 c 256,43,44
 232 936 232 936 218 970 c 257,45,46
 217.6 972.2 217.6 972.2 217.6 974.28 c 0,47,48
 217.6 982.6 217.6 982.6 224 989 c 256,49,50
 231 997 231 997 242 997 c 256,51,52
 275 997 275 997 275 907 c 256,19,20
0 445 m 257,53,54
 224 557 224 557 224 677 c 256,55,56
 224 713 224 713 206 752 c 257,57,58
 183 724 183 724 141 686 c 256,59,60
 96 645 96 645 70 618 c 256,61,62
 45 592 45 592 22 548 c 256,63,64
 0 505 0 505 0 461 c 258,65,-1
 0 445 l 257,53,54
EndSplineSet
Validated: 1
EndChar

